<svg width="47" height="59" viewBox="0 0 47 59" fill="none" xmlns="http://www.w3.org/2000/svg">
<path fill-rule="evenodd" clip-rule="evenodd" d="M0.0151367 0V43.2713H0.0172059L23.4802 58.0114L46.9452 43.2713H46.9473V0H0.0151367Z" fill="#2C39F2"/>
<path d="M23.5 9C14.3879 9 7 16.3452 7 25.4045C7 32.6535 11.7273 38.8012 18.2843 40.9699C19.1091 41.1201 19.4103 40.6134 19.4103 40.1809C19.4103 39.7904 19.3951 38.4968 19.3871 37.1271C14.7988 38.1183 13.829 35.1927 13.829 35.1927C13.0777 33.2983 11.9971 32.7937 11.9971 32.7937C10.4976 31.7764 12.1109 31.7965 12.1109 31.7965C13.7675 31.9106 14.6397 33.4866 14.6397 33.4866C16.1121 35.9937 18.5029 35.2688 19.4415 34.8483C19.5914 33.7909 20.0184 33.066 20.4888 32.6575C16.8261 32.243 12.973 30.8353 12.973 24.5494C12.973 22.7571 13.6165 21.2953 14.6699 20.1469C14.5017 19.7304 13.9337 18.0613 14.8331 15.8035C14.8331 15.8035 16.2168 15.363 19.3709 17.4856C20.6862 17.1202 22.0971 16.9399 23.5 16.9339C24.9018 16.9399 26.3137 17.1221 27.631 17.4876C30.7792 15.363 32.1649 15.8055 32.1649 15.8055C33.0673 18.0653 32.4993 19.7324 32.3301 20.1469C33.3875 21.2953 34.026 22.7572 34.026 24.5494C34.026 30.8513 30.1669 32.239 26.491 32.6455C27.0852 33.1542 27.6109 34.1514 27.6109 35.6813C27.6109 37.8741 27.5887 39.6423 27.5887 40.1829C27.5887 40.6195 27.8888 41.1301 28.7247 40.9699C35.2768 38.7972 40 32.6495 40 25.4045C40 16.3452 32.6121 9 23.5 9Z" fill="white"/>
</svg>
