<svg width="48" height="59" viewBox="0 0 48 59" fill="none" xmlns="http://www.w3.org/2000/svg">
<path class="svg-shield" fill-rule="evenodd" clip-rule="evenodd" d="M0.909668 0V43.2713H0.911737L24.3747 58.0114L47.8397 43.2713H47.8418V0H0.909668Z" fill="#2C39F2"/>
<path fill-rule="evenodd" clip-rule="evenodd" d="M11.2797 13.0525L13.7632 40.2724L24.912 43.2962L36.0706 40.2739L38.5581 13.0525H11.2797ZM16.3614 18.617H24.9179H33.4749L33.1695 21.9537L32.8586 25.3723L31.9216 35.6244L24.9179 37.5204L24.9132 37.5219L17.914 35.6244L17.4256 30.2622H20.8547L21.1089 33.0438L24.9139 34.0492L24.9177 34.0479L28.7274 33.0422L29.2469 28.4093L17.2616 28.4398L16.923 25.2718L29.5356 25.1278L29.7905 21.7354L16.5844 21.7722L16.3614 18.617Z" fill="white"/>
<path fill-rule="evenodd" clip-rule="evenodd" d="M18.0993 5.65967V6.80872H18.1048L18.0994 9.88728H18.0993V11.0363H21.5091V9.88728H19.3233L19.3285 6.80872H21.5091V5.65967H18.0993Z" fill="white"/>
<path fill-rule="evenodd" clip-rule="evenodd" d="M22.3694 5.65967V6.76491L25.1253 9.87905H22.1909V11.0363H26.9646V9.93116L24.221 6.81695H26.7862V5.65967H22.3694Z" fill="white"/>
<path fill-rule="evenodd" clip-rule="evenodd" d="M27.8252 5.65967V6.76491L30.5811 9.87905H27.6467V11.0363H32.4205V9.93116L29.6768 6.81695H32.242V5.65967H27.8252Z" fill="white"/>
<path class="svg-shadow" fill-rule="evenodd" clip-rule="evenodd" d="M24.8775 40.124V15.677H36.1017L33.9702 37.5971L24.8775 40.124Z" fill="#2C39F2" fill-opacity="0.19"/>
</svg>
