<svg width="48" height="39" viewBox="0 0 48 39" fill="none" xmlns="http://www.w3.org/2000/svg">
<path fill-rule="evenodd" clip-rule="evenodd" d="M20.2796 8.05249L22.7632 35.2724L33.912 38.2962L45.0706 35.2739L47.5581 8.05249H20.2796ZM25.3613 13.617H33.9178H42.4748L42.1695 16.9537L41.8585 20.3723L40.9215 30.6244L33.9179 32.5204L33.9131 32.5219L26.914 30.6244L26.4255 25.2622H29.8547L30.1088 28.0438L33.9139 29.0492L33.9176 29.0479L37.7273 28.0422L38.2468 23.4093L26.2616 23.4398L25.9229 20.2718L38.5356 20.1278L38.7904 16.7354L25.5843 16.7722L25.3613 13.617Z" fill="white"/>
<path fill-rule="evenodd" clip-rule="evenodd" d="M27.0992 0.659668V1.80872H27.1047L27.0993 4.88728H27.0992V6.03633H30.5091V4.88728H28.3232L28.3285 1.80872H30.5091V0.659668H27.0992Z" fill="white"/>
<path fill-rule="evenodd" clip-rule="evenodd" d="M31.3693 0.659668V1.76491L34.1252 4.87905H31.1909V6.03633H35.9646V4.93116L33.221 1.81695H35.7861V0.659668H31.3693Z" fill="white"/>
<path fill-rule="evenodd" clip-rule="evenodd" d="M36.8251 0.659668V1.76491L39.581 4.87905H36.6467V6.03633H41.4204V4.93116L38.6767 1.81695H41.242V0.659668H36.8251Z" fill="white"/>
<path fill-rule="evenodd" clip-rule="evenodd" d="M33.8774 35.124V10.677H45.1016L42.9701 32.5971L33.8774 35.124Z" fill="#2C39F2" fill-opacity="0.19"/>
</svg>
