<svg xmlns="http://www.w3.org/2000/svg" xml:space="preserve" width="100px" height="35px" viewBox="0 0 1684 570" fill="none" >
<!--  <defs> -->
<!--    <style type="text/css"> <![CDATA[ .str0 {stroke:#2B2A29;stroke-width:0.900109} .fil0 {fill:#2B2A29} ]]> </style> -->
<!--  </defs> -->
<!--  <g id="Layer_x0020_1">-->
<!--    <metadata id="CorelCorpID_0Corel-Layer"></metadata>-->
    <path fill-rule="evenodd" clip-rule="evenodd" image-rendering="optimizeQuality" text-rendering="geometricPrecision" shape-rendering="geometricPrecision" d="M1462 234l68 192 -135 0 67 -192zm122 335l99 0 -221 -568 -220 568 100 0 23 -64 195 0 24 64zm-611 -90l0 -372c0,0 229,-35 229,186 0,218 -229,186 -229,186zm-93 -462l0 552 93 0c137,0 322,-40 322,-276 0,-245 -188,-276 -322,-276l-93 0zm-310 92l74 0c0,0 92,0 92,69 0,54 -56,66 -80,69l-86 -138zm287 460l-150 -240c53,-15 121,-53 121,-151 0,-161 -184,-161 -184,-161l-184 0 0 92 87 138 -87 0 0 322 92 0 0 -230 53 0 144 230 108 0zm-636 -335l67 192 -134 0 67 -192zm121 335l100 0 -221 -568 -220 568 99 0 24 -64 194 0 24 64z"></path>
<!--  </g>-->
</svg>
