<svg width="108" height="97" viewBox="0 0 108 97" fill="none" xmlns="http://www.w3.org/2000/svg">
<path fill-rule="evenodd" clip-rule="evenodd" d="M76.1574 22.0201C74.1263 22.0201 72.4645 20.3582 72.4645 18.3269C72.4645 16.2956 74.1263 14.6336 76.1574 14.6336C78.1885 14.6336 79.8503 16.2956 79.8503 18.3269C79.8503 20.3582 78.1885 22.0201 76.1574 22.0201ZM76.2271 16.0273C75.0008 16.0273 73.9974 17.0307 73.9974 18.2572C73.9974 19.4836 75.0008 20.4871 76.2271 20.4871C77.4534 20.4871 78.4568 19.4836 78.4568 18.2572C78.4568 17.0307 77.4534 16.0273 76.2271 16.0273ZM85.0761 22.0201C83.045 22.0201 81.3832 20.3582 81.3832 18.3269C81.3832 16.2956 83.045 14.6336 85.0761 14.6336C87.1072 14.6336 88.769 16.2956 88.769 18.3269C88.769 20.3582 87.1072 22.0201 85.0761 22.0201ZM85.0065 16.0273C83.7801 16.0273 82.7768 17.0307 82.7768 18.2572C82.7768 19.4836 83.7801 20.4871 85.0065 20.4871C86.2328 20.4871 87.2361 19.4836 87.2361 18.2572C87.2361 17.0307 86.2328 16.0273 85.0065 16.0273ZM108 70.327L102.584 64.9056V63.0008C102.584 57.9092 98.778 53.5501 93.801 52.8542V51.2791H95.2648C100.901 51.2791 105.512 46.6636 105.512 41.0225V31.4986C105.512 30.2897 104.523 29.3007 103.316 29.3007C102.767 29.3007 102.255 29.5205 101.852 29.8502C101.449 29.4839 100.937 29.3007 100.388 29.3007C99.8393 29.3007 99.3269 29.5205 98.9244 29.8502C98.5218 29.4839 98.0095 29.3007 97.4606 29.3007C96.2529 29.3007 95.2648 30.2897 95.2648 31.4986V39.5573C95.2648 40.3632 94.6061 41.0225 93.801 41.0225V30.766H90.1415V30.3996C90.1415 29.7769 89.6658 29.3007 89.0436 29.3007C88.4215 29.3007 87.9458 29.7769 87.9458 30.3996V30.766H85.7501V30.3996C85.7501 29.7769 85.2743 29.3007 84.6522 29.3007C84.0301 29.3007 83.5544 29.7769 83.5544 30.3996V30.766H81.3586V30.3996C81.3586 29.7769 80.8829 29.3007 80.2608 29.3007C79.6387 29.3007 79.1629 29.7769 79.1629 30.3996V30.766H76.9672V30.3996C76.9672 29.7769 76.4915 29.3007 75.8693 29.3007C75.2472 29.3007 74.7715 29.7769 74.7715 30.3996V30.766C73.1613 30.766 71.8439 29.4472 71.8439 27.8355C71.8439 26.2237 73.1613 24.9051 74.7715 24.9051H76.9672V25.2714C76.9672 25.8941 77.4429 26.3703 78.0651 26.3703C78.6872 26.3703 79.1629 25.8941 79.1629 25.2714V24.9051H81.3586V25.2714C81.3586 25.8941 81.8344 26.3703 82.4565 26.3703C83.0786 26.3703 83.5544 25.8941 83.5544 25.2714V24.9051H85.7501V25.2714C85.7501 25.8941 86.2258 26.3703 86.8479 26.3703C87.47 26.3703 87.9458 25.8941 87.9458 25.2714V24.9051H90.1415V25.2714C90.1415 25.8941 90.6172 26.3703 91.2394 26.3703C91.8615 26.3703 92.3372 25.8941 92.3372 25.2714V24.9051H93.801V23.3666C95.4844 23.0369 96.7287 21.5351 96.7287 19.7768C96.7287 18.0185 95.4844 16.5167 93.801 16.187V11.7181C93.801 6.11358 90.6172 2.92672 85.0182 2.92672H76.2353C70.6362 2.92672 67.4524 6.11358 67.4524 11.7181V16.187C65.7691 16.5167 64.5248 18.0185 64.5248 19.7768C64.5248 21.5351 65.7691 23.0369 67.4524 23.3666V41.0225C66.6473 41.0225 65.9886 40.3632 65.9886 39.5573V31.4986C65.9886 30.2897 65.0005 29.3007 63.7929 29.3007C63.244 29.3007 62.7316 29.5205 62.3291 29.8502C61.9265 29.4839 61.4142 29.3007 60.8653 29.3007C60.3163 29.3007 59.804 29.5205 59.4015 29.8502C58.9989 29.4839 58.4866 29.3007 57.9377 29.3007C56.73 29.3007 55.7419 30.2897 55.7419 31.4986V41.0225C55.7419 46.6636 60.3529 51.2791 65.9886 51.2791H67.4524V57.14C67.4524 57.9458 66.7937 58.6052 65.9886 58.6052H60.1334V74.2831L65.5495 68.8617H67.4524C71.4413 68.8617 75.0276 66.5906 76.711 63.0008H90.8734C91.6785 63.0008 92.3372 63.6602 92.3372 64.4661V70.327H108ZM93.7858 42.4107C95.4063 42.4107 96.7322 41.0888 96.7322 39.4732V31.3953C96.7322 30.9914 97.0636 30.6609 97.4688 30.6609C97.8739 30.6609 98.2053 30.9914 98.2053 31.3953C98.2053 31.7992 98.5368 32.1297 98.9419 32.1297C99.3471 32.1297 99.6785 31.7992 99.6785 31.3953C99.6785 30.9914 100.01 30.6609 100.415 30.6609C100.82 30.6609 101.152 30.9914 101.152 31.3953C101.152 31.7992 101.483 32.1297 101.888 32.1297C102.293 32.1297 102.625 31.7992 102.625 31.3953C102.625 30.9914 102.956 30.6609 103.361 30.6609C103.767 30.6609 104.098 30.9914 104.098 31.3953V40.942C104.098 45.7888 100.12 49.7543 95.259 49.7543H93.7858V42.4107ZM93.7858 17.6997C94.6672 17.9931 95.3187 18.8 95.3187 19.7902C95.3187 20.7805 94.6672 21.5507 93.7858 21.8807V17.6997ZM76.2463 4.3204H85.0532C89.6401 4.3204 92.2088 6.72173 92.3923 11.1241L91.7317 10.3237L89.4933 12.5431L87.2916 10.3601L85.0899 12.5431L82.8882 10.3601L80.6865 12.5431L78.4847 10.3601L76.283 12.5431L74.0813 10.3601L71.8796 12.5431L69.7146 10.3965L68.9806 10.9786C69.1641 6.68535 71.7328 4.3204 76.2463 4.3204ZM65.9148 19.6694C65.9148 18.7074 66.5663 17.8933 67.4477 17.5603V21.7414C66.5663 21.4454 65.9148 20.6314 65.9148 19.6694ZM90.874 61.44H75.7283L75.545 61.879C74.1881 65.1717 70.9976 67.2937 67.4037 67.2937H64.91L61.5362 70.6595V59.9766H65.9368C67.5504 59.9766 68.8706 58.6596 68.8706 57.0498V49.7328H65.9368C61.0961 49.7328 57.1355 45.7816 57.1355 40.9524V31.4402C57.1355 31.0378 57.4655 30.7085 57.8689 30.7085C58.2723 30.7085 58.6024 31.0378 58.6024 31.4402C58.6024 31.8427 58.9324 32.1719 59.3358 32.1719C59.7392 32.1719 60.0693 31.8427 60.0693 31.4402C60.0693 31.0378 60.3993 30.7085 60.8027 30.7085C61.2061 30.7085 61.5362 31.0378 61.5362 31.4402C61.5362 31.8427 61.8662 32.1719 62.2696 32.1719C62.673 32.1719 63.0031 31.8427 63.0031 31.4402C63.0031 31.0378 63.3331 30.7085 63.7365 30.7085C64.1399 30.7085 64.4699 31.0378 64.4699 31.4402V39.489C64.4699 41.0987 65.7902 42.4158 67.4037 42.4158H68.8706V12.1233L69.5674 11.4282L71.8044 13.6598L74.0048 11.4647L76.2051 13.6598L78.4054 11.4647L80.6058 13.6598L82.8061 11.4647L85.0065 13.6598L87.2068 11.4647L89.4071 13.6598L91.5708 11.5013L92.3409 12.5257V23.3915H74.7382C72.3178 23.3915 70.3375 25.3671 70.3375 27.7817C70.3375 30.1963 72.3178 32.1719 74.7382 32.1719H92.3409V54.0864L93.001 54.123C97.5851 54.4888 101.142 58.3303 101.142 62.9034V65.3912L104.516 68.7571H93.8078V64.3668C93.8078 62.7571 92.4876 61.44 90.874 61.44ZM16.0955 22.0201C14.0644 22.0201 12.4026 20.3582 12.4026 18.3269C12.4026 16.2956 14.0644 14.6336 16.0955 14.6336C18.1266 14.6336 19.7884 16.2956 19.7884 18.3269C19.7884 20.3582 18.1266 22.0201 16.0955 22.0201ZM16.1652 16.0273C14.9388 16.0273 13.9355 17.0307 13.9355 18.2572C13.9355 19.4836 14.9388 20.4871 16.1652 20.4871C17.3915 20.4871 18.3948 19.4836 18.3948 18.2572C18.3948 17.0307 17.3915 16.0273 16.1652 16.0273ZM25.0142 22.0201C22.9831 22.0201 21.3213 20.3582 21.3213 18.3269C21.3213 16.2956 22.9831 14.6336 25.0142 14.6336C27.0453 14.6336 28.7071 16.2956 28.7071 18.3269C28.7071 20.3582 27.0453 22.0201 25.0142 22.0201ZM24.9445 16.0273C23.7182 16.0273 22.7148 17.0307 22.7148 18.2572C22.7148 19.4836 23.7182 20.4871 24.9445 20.4871C26.1708 20.4871 27.1742 19.4836 27.1742 18.2572C27.1742 17.0307 26.1708 16.0273 24.9445 16.0273ZM48.4477 45.8958L52.6988 42.4893H33.7521V41.0242H52.6988L48.4477 37.6177L53.6516 35.8962L48.4477 34.1746L52.6988 30.7681H33.0192L31.5533 27.8378L30.0874 30.7681H28.6215L27.1556 27.8378L25.6897 30.7681H24.2239L22.758 27.8378L21.2921 30.7681H19.8262L18.3603 27.8378L16.8944 30.7681H15.4285L13.9626 27.8378L12.8265 30.1088C12.1669 29.5594 11.7638 28.7536 11.7638 27.8378C11.7638 26.2262 13.0831 24.9075 14.6956 24.9075L16.1615 27.8378L17.6273 24.9075H19.0932L20.5591 27.8378L22.025 24.9075H23.4909L24.9568 27.8378L26.4227 24.9075H27.8886L29.3545 27.8378L30.8204 24.9075H33.7521V11.7212C33.7521 9.26706 33.1291 7.25249 31.9564 5.78734L33.8987 3.84602C34.4851 4.21231 35.1814 4.39546 35.9876 4.39546C36.3907 4.39546 36.7206 4.06578 36.7206 3.66286C36.7206 3.25995 36.3907 2.9303 35.9876 2.9303C34.595 2.9303 33.7888 2.12446 33.7888 0.732566C33.7888 0.329649 33.459 0 33.0558 0C32.6527 0 32.3229 0.329649 32.3229 0.732566C32.3229 1.5384 32.5061 2.23434 32.8726 2.82039L30.9303 4.76174C29.4644 3.58963 27.4488 2.96694 24.9934 2.96694H16.1615C13.7061 2.96694 11.6905 3.58963 10.2246 4.76174L8.28228 2.82039C8.64876 2.23434 8.832 1.5384 8.832 0.732566C8.832 0.329649 8.50217 0 8.09905 0C7.69593 0 7.3661 0.329649 7.3661 0.732566C7.3661 2.12446 6.55986 2.9303 5.16726 2.9303C4.76414 2.9303 4.43432 3.25995 4.43432 3.66286C4.43432 4.06578 4.76414 4.39546 5.16726 4.39546C5.9735 4.39546 6.66981 4.21231 7.25617 3.84602L9.19847 5.78734C8.02575 7.25249 7.40275 9.26706 7.40275 11.7212V24.468L0 28.5704L6.59651 32.2333L0 35.8962L6.59651 39.559L0 43.2219L6.59651 46.8848L0 50.5476L7.3661 54.65V57.1408C7.3661 57.9466 6.70645 58.606 5.90021 58.606H0.0366461V74.2831L5.46044 68.862H7.3661C11.3607 68.862 14.9521 66.591 16.6379 63.0014H30.8204C31.6266 63.0014 32.2862 63.6607 32.2862 64.4666V70.3272H47.9713L42.5475 64.9061V63.0014C42.5475 57.91 38.7362 53.5512 33.7521 52.8552V52.7453H52.6988L48.4477 49.3389L53.6516 47.6173L48.4477 45.8958ZM33.7239 32.194H48.5383L45.4504 34.6684L49.0529 35.8872L45.4504 37.106L48.5383 39.5805H33.7239V32.194ZM7.38581 26.0618V30.9397L3.06581 28.5007L7.38581 26.0618ZM7.38581 33.4483V38.3261L3.06581 35.8872L7.38581 33.4483ZM7.38581 40.6954V45.5733L3.06581 43.1343L7.38581 40.6954ZM3.06581 50.5208L7.38581 48.0819V52.9598L3.06581 50.5208ZM8.86058 11.6426C8.86058 6.91977 11.4619 4.3204 16.1883 4.3204H24.9815C29.7078 4.3204 32.3092 6.91977 32.3092 11.6426V23.3581H14.7227C12.3046 23.3581 10.3261 25.3351 10.3261 27.7514C10.3261 30.1677 12.3046 32.1447 14.7227 32.1447H32.3092V43.8602H48.54L45.4623 46.3132L49.0529 47.5214L45.4623 48.7295L48.54 51.1825H32.3092V54.0747L32.9686 54.1113C37.5484 54.4774 41.1024 58.3216 41.1024 62.898V65.3875L44.4731 68.7557H33.7747V64.3624C33.7747 62.7515 32.4557 61.4335 30.8436 61.4335H15.712L15.5288 61.8728C14.1731 65.1678 10.9856 67.2913 7.39504 67.2913H4.90363L1.5329 70.6595V59.9691H5.92951C7.5416 59.9691 8.86058 58.6511 8.86058 57.0402V11.6426ZM18.3948 79.0216H21.3213V96.5819H18.3948V79.0216ZM29.4039 96.5819V94.021H24.9724V79.0216H22.0181V96.5819H29.4039ZM12.4374 96.5819C15.2541 96.5819 17.5587 94.2771 17.5587 91.4601V79.0216H14.6323V91.826C14.6323 93.0332 13.6446 94.021 12.4374 94.021H11.7058V79.0216H8.77936V96.5819H12.4374ZM53.4774 79.0216C50.6607 79.0216 48.3561 81.3263 48.3561 84.1433V96.5819H51.2826V90.3626H54.209V96.5819H57.1355V79.0216H53.4774ZM51.2826 87.8017V83.7437C51.2826 82.5262 52.2703 81.5302 53.4774 81.5302H54.209V87.8017H51.2826ZM66.751 84.1433C66.751 81.3263 64.4464 79.0216 61.6297 79.0216H57.9716V96.5819H60.8981V90.3626H61.6297C62.8368 90.3626 63.8245 91.3504 63.8245 92.5577V96.5819H66.751V92.9235C66.751 91.2772 65.9462 89.9236 64.739 89.0822C65.9828 88.2407 66.751 86.8871 66.751 85.2408V84.1433ZM63.8245 85.5882C63.8245 86.8057 62.8368 87.8017 61.6297 87.8017H60.8981V81.5302H61.6297C62.8368 81.5302 63.8245 82.5262 63.8245 83.7437V85.5882ZM84.2748 79.0216C81.4581 79.0216 79.1535 81.3263 79.1535 84.1433V96.5819H82.08V90.7284H85.0065V96.5819H87.9329V79.0216H84.2748ZM82.08 88.2198V83.853C82.08 82.6521 83.0677 81.6695 84.2748 81.6695H85.0065V88.2198H82.08ZM74.8335 79.0216H67.4477V81.5824H69.6635V96.5819H72.6178V81.5824H74.8335V79.0216ZM75.5303 79.0216H78.4568V96.5819H75.5303V79.0216ZM41.8065 83.7775C41.8065 82.5702 42.7941 81.5824 44.0013 81.5824H44.7329V96.5819H47.6594V79.0216H44.0013C42.5746 79.0216 41.2577 79.7898 40.3432 80.9239C39.4287 79.7898 38.1118 79.0216 36.6852 79.0216H33.0271V96.5819H35.9535V81.5824H36.6852C37.8923 81.5824 38.88 82.5702 38.88 83.7775V96.5819H41.8065V83.7775ZM88.6297 79.0216V96.5819H91.5561V82.2044C93.0559 82.8263 94.4826 84.5823 94.4826 86.3384V96.5819H97.409V79.0216H94.4826V81.0703C93.3852 79.7898 91.8488 79.0216 90.0929 79.0216H88.6297ZM0 79.0216V91.4601C0 94.2771 2.31456 96.5819 5.14346 96.5819H8.08258V94.021H5.14346C3.93108 94.021 2.93912 93.0332 2.93912 91.826V87.4359H7.3478V84.875H2.93912V81.5824H8.08258V79.0216H0ZM107.025 84.9503V83.4897C107.025 80.2034 105.452 78.7428 102.635 78.7428C99.8181 78.7428 98.2452 80.6781 98.2452 83.4897C98.2452 88.9669 104.098 89.0033 104.098 92.2531V92.6183C104.098 93.7137 103.732 94.444 102.635 94.444C101.537 94.444 101.172 93.7137 101.172 92.6183V90.7926H98.2452V92.2531C98.2452 95.5759 99.8181 97 102.635 97C105.452 97 107.025 95.0647 107.025 92.2531C107.025 86.8125 101.172 86.776 101.172 83.4897V83.1245C101.172 82.0291 101.537 81.2988 102.635 81.2988C103.732 81.2988 104.098 82.0291 104.098 83.1245V84.9503H107.025Z"/>
</svg>
