<svg width="120" height="25" viewBox="0 0 120 25" fill="none" xmlns="http://www.w3.org/2000/svg">
<path fill-rule="evenodd" clip-rule="evenodd" d="M82.2299 0.0383301L77.0136 13.2881L72.0461 0.190535H65.6998L61.5303 24.8478H67.9135L70.0165 10.6624L74.0453 20.9347L75.5706 25H78.1158L84.0562 10.668L85.8638 25H92.2465L88.5572 0.0383301H82.2299Z"/>
<path fill-rule="evenodd" clip-rule="evenodd" d="M55.4789 0.119019C53.3911 0.119019 51.5977 1.72828 51.5977 3.71213V12.1956V12.3292V21.1475C51.5977 23.1326 53.3911 24.7405 55.4789 24.7405C57.5664 24.7405 59.3601 23.1326 59.3601 21.1475V12.3294V12.1957V3.71228C59.3601 1.72828 57.5664 0.119019 55.4789 0.119019Z"/>
<path fill-rule="evenodd" clip-rule="evenodd" d="M109.867 0.214279L109.87 0.119303L102.894 0.0383301H102.893H102.892L93.4473 24.8478H100.199L101.88 20.4338H110.714L112.301 24.8478H119.127L109.867 0.214279Z"/>
<path fill-rule="evenodd" clip-rule="evenodd" d="M16.3595 0.236389L9.38147 0.316297L0 25H0.0639262H6.69703V24.8501L6.69216 24.7819L8.36976 20.4339H17.2033L18.7897 25H25.6152L16.3558 0.320102L16.3595 0.236389Z"/>
<path fill-rule="evenodd" clip-rule="evenodd" d="M45.5695 11.1493H37.4428V15.5633H42.303C42.128 16.9331 41.7421 17.6966 41.1452 18.2935C40.2326 19.1725 39.0017 19.6783 37.4583 19.6783C35.7032 19.6783 34.3344 19.1398 33.2835 18.0526C31.8783 16.5796 31.1766 14.7301 31.1766 12.5195C31.1766 11.4659 31.3875 10.421 31.7739 9.4352C32.7906 6.73447 34.65 5.36858 37.2834 5.36858C38.5816 5.36858 39.6717 5.75564 40.6185 6.49383C41.2858 7.0541 41.8464 7.86307 42.3391 8.91663L48.0942 6.56248C47.1133 4.59933 45.9538 3.12614 44.5844 2.10652C42.6547 0.704101 40.3371 0 37.5652 0C33.422 0 30.2281 1.33499 27.91 3.96631C25.8758 6.28379 24.8594 9.12637 24.8594 12.5318C24.8594 15.6216 25.7352 18.2523 27.4561 20.466C29.7718 23.3786 33.0361 24.8539 37.3544 24.8539C38.4364 24.8539 39.4604 24.7473 40.4269 24.5312L40.428 24.5288C41.8062 24.2228 43.063 23.6991 44.1986 22.9562C46.1982 21.6551 47.6378 19.7623 48.5168 17.3398C49.0795 15.7229 49.3589 13.6654 49.3589 11.1365L45.5823 11.1493H45.5695Z"/>
</svg>
