<svg width="115" height="73" viewBox="0 0 115 73" fill="none" xmlns="http://www.w3.org/2000/svg">
<path d="M12.9712 59.9006C11.7572 62.6482 10.2875 65.3319 9.07348 67.9517H8.88179C7.98722 66.0987 7.09265 64.3096 5.23962 60.6035L1.46965 53.0636H0V72.169H1.21406V55.1722H1.34185C1.91693 56.3223 2.42811 57.6003 3.00319 58.7505L8.30671 69.2936H9.52077L14.2492 59.8367C15.016 58.3032 15.8466 56.7696 16.5495 55.1722H16.6773V72.169H17.9553V53.0636H16.4217L12.9712 59.9006ZM29.8403 52.8719C24.0256 52.8719 21.9808 56.9613 21.9808 62.8399C21.9808 68.5268 23.7061 72.4246 29.6486 72.4246C35.9105 72.4246 37.5719 67.6961 37.5719 62.8399C37.5719 57.5364 36.0383 52.8719 29.8403 52.8719ZM29.6486 71.2744C25.3035 71.2744 23.1949 68.5907 23.1949 62.776C23.1949 57.4725 24.9201 53.9581 29.8403 53.9581C34.6965 53.9581 36.3578 57.5364 36.3578 62.776C36.2939 68.5907 33.8658 71.2744 29.6486 71.2744ZM42.7476 53.0636H41.5335V72.169H53.8019V71.0827H42.7476V53.0636ZM56.9968 53.0636H58.2109V72.169H56.9968V53.0636ZM76.1661 69.9326H76.0383C74.377 67.5045 72.5879 64.9485 70.9265 62.5204L64.1534 52.9997H63.0032V72.1051H64.2173V55.2361H64.345C65.3674 56.8335 66.4537 58.431 67.5399 59.9645L76.23 72.169H77.3802V53.0636H76.1022V69.9326H76.1661ZM89.7125 52.8719C83.8978 52.8719 81.853 56.9613 81.853 62.8399C81.853 68.5268 83.5783 72.4246 89.5208 72.4246C95.7828 72.4246 97.4441 67.6961 97.4441 62.8399C97.4441 57.5364 95.9105 52.8719 89.7125 52.8719ZM89.5208 71.2744C85.1757 71.2744 83.0671 68.5907 83.0671 62.776C83.0671 57.4725 84.7923 53.9581 89.7125 53.9581C94.5687 53.9581 96.23 57.5364 96.23 62.776C96.1661 68.5907 93.738 71.2744 89.5208 71.2744ZM109.01 61.6259C105.24 61.0508 102.939 60.7313 102.939 57.9198C102.939 55.8751 104.601 54.0859 108.179 54.0859C111.885 54.0859 113.419 56.1946 113.482 58.431H114.569C114.569 58.2393 114.633 58.1115 114.633 57.9198C114.633 54.3415 111.502 52.8719 108.243 52.8719C103.387 52.8719 101.661 55.4917 101.661 58.0476C101.661 61.6259 104.728 62.2009 108.243 62.6482C112.013 63.1594 113.738 64.4374 113.738 67.1211C113.738 69.038 112.268 71.2744 107.923 71.2744C103.45 71.2744 102.3 68.7824 102.236 66.3543H101.086V66.9294C101.086 70.5715 103.77 72.4246 107.923 72.4246C113.035 72.4246 114.952 69.677 114.952 66.9933C115.016 63.5428 112.46 62.2009 109.01 61.6259ZM91.246 47.3128C91.1821 47.2489 91.1821 47.3128 91.246 47.3128V47.3128Z"/>
<path d="M114.952 23.4505C114.952 23.3866 114.888 23.3227 114.824 23.2588L92.0767 0.191693C91.9489 0.0638978 91.8211 0 91.6933 0H68.8179C68.754 0 68.6901 0 68.5623 0.0638978C68.4984 0.0638978 68.4345 0.127796 68.3706 0.191693L57.4441 11.3099L46.5176 0.191693C46.4537 0.127796 46.3898 0.127796 46.3898 0.0638978C46.3259 0.0638978 46.262 0 46.1342 0H23.131C23.0671 0 23.0032 0.0638978 22.9393 0.127796L0.191693 23.1949C0.0638978 23.3227 0 23.4505 0 23.5783V46.6454C0 46.9649 0.255591 47.2204 0.57508 47.2204H23.3227C23.4505 47.2204 23.6422 47.1565 23.7061 47.0288L34.6326 35.9105L45.5591 47.0288C45.5591 47.0288 45.623 47.0288 45.623 47.0927C45.6869 47.0927 45.6869 47.1566 45.7508 47.1566C45.8147 47.1566 45.8786 47.2204 46.0064 47.2204H68.8179C68.8818 47.2204 68.9457 47.2205 69.0735 47.1566C69.1374 47.1566 69.2013 47.0927 69.2652 47.0288L80.1917 35.9105L91.1821 47.0927C91.246 47.1565 91.3099 47.1566 91.3738 47.2204C91.4377 47.2204 91.5016 47.2843 91.6294 47.2843H114.377C114.696 47.2843 114.952 47.0288 114.952 46.7093V23.6422C115.016 23.5783 115.016 23.5144 114.952 23.4505ZM68.2428 1.91693V22.1725L58.2748 12.0767L68.2428 1.91693ZM34.3131 34.6965L23.131 46.0703H1.15016V23.8339L22.7476 1.91693V23.5783C22.7476 23.8978 23.0032 24.1534 23.3227 24.1534H44.6645L34.3131 34.6965ZM45.5591 45.2396L35.5272 35.0799L45.4952 24.984V45.2396H45.5591ZM23.9617 23.0032V1.08626H45.8786L57.0607 12.4601L67.4121 23.0032H23.9617ZM79.8083 34.6965L68.6262 46.0703H46.6454V24.2173H90.2236L79.8083 34.6965ZM90.9904 45.2396L81.0224 35.1438L90.9904 25.0479V45.2396ZM91.5655 23.0032H69.393V1.08626H91.3099L112.907 23.0032H91.5655ZM113.802 46.0703H92.2045V24.2173H113.802V46.0703Z"/>
</svg>
