<svg width="41" height="24" viewBox="0 0 41 24" fill="none" xmlns="http://www.w3.org/2000/svg">
<path fill-rule="evenodd" clip-rule="evenodd" d="M39.1179 1.66334C39.4143 0.731791 39.1179 0.0543052 37.8052 0.0543052H33.4439C32.343 0.0543052 31.8349 0.647107 31.5385 1.28225C31.5385 1.28225 29.2943 6.70215 26.1609 10.2166C25.1447 11.2328 24.6789 11.5716 24.1284 11.5716C23.832 11.5716 23.451 11.2329 23.451 10.3013V1.62099C23.451 0.520077 23.1122 0.0119629 22.1807 0.0119629H15.3211C14.6436 0.0119629 14.2202 0.520076 14.2202 1.02819C14.2202 2.08677 15.7869 2.34083 15.9563 5.30483V11.741C15.9563 13.1383 15.7022 13.3923 15.1517 13.3923C13.6697 13.3923 10.0706 7.9301 7.91109 1.70568C7.48766 0.477736 7.06423 0.0119629 5.96331 0.0119629H1.55964C0.289352 0.0119629 0.0776367 0.604762 0.0776367 1.23991C0.0776367 2.38317 1.55964 8.14181 6.97954 15.7635C10.5787 20.9717 15.7022 23.7664 20.3176 23.7664C23.1122 23.7664 23.451 23.1312 23.451 22.0726V18.1348C23.451 16.8645 23.705 16.6528 24.5942 16.6528C25.2294 16.6528 26.3726 16.9915 28.9555 19.4897C31.9196 22.4537 32.4277 23.8087 34.079 23.8087H38.4404C39.7107 23.8087 40.3035 23.1736 39.9647 21.9456C39.5836 20.7177 38.144 18.9393 36.2809 16.8221C35.2646 15.6365 33.7403 14.3239 33.2745 13.6887C32.6394 12.8419 32.8088 12.5031 33.2745 11.741C33.2322 11.741 38.5674 4.20391 39.1179 1.66334Z"/>
</svg>
