<svg width="155" height="59" viewBox="0 0 155 59" fill="none" xmlns="http://www.w3.org/2000/svg">
<path d="M0 14.625V20.8854L28.7708 6.27084L57.5417 20.8854V14.625L28.7708 0L0 14.625Z"/>
<path d="M4.875 27.1563H11.8333V42.698H16.7083V22.7396H0V42.698H4.875V27.1563Z"/>
<path d="M57.5417 45.4792H0V50.5834H57.5417V45.4792Z"/>
<path d="M39.9062 22.7396V42.698H44.7813V35.9271L46.3021 34.3542L51.9792 42.698H57.5417L49.5729 30.9792L57.5417 22.7396H51.2813L44.7813 30.3959V22.7396H39.9062Z"/>
<path d="M19.0312 22.7396V42.698H26.4479L32.7188 26.6146V42.698H37.5938V22.7396H30.1667L23.8958 38.823V22.7396H19.0312Z"/>
<path d="M77.9583 0H77.0312V51.0521H77.9583V0Z"/>
<path d="M155 25.5311H152.448V50.5936H155V25.5311Z"/>
<path d="M100.938 36.6666H98.3857V50.5937H100.938V36.6666Z"/>
<path d="M123.208 36.6666H120.656V50.5937H123.208V36.6666Z"/>
<path d="M131.104 28.3125L128.552 29.7083V36.6667H125.302V39.0625H128.552V50.5833H131.104V39.0625H134.343V36.6667H131.104V28.3125Z"/>
<path d="M93.2811 38.3436C91.9478 37.0207 90.1248 36.2082 88.104 36.2082C84.0415 36.2082 80.7603 39.4999 80.7603 43.552C80.7603 47.6145 84.0519 50.8957 88.104 50.8957C90.1248 50.8957 91.9582 50.0832 93.2811 48.7603V50.5936H95.8332V25.5311H93.2811V38.3436ZM88.4061 48.4999C85.6769 48.4999 83.4582 46.2811 83.4582 43.552C83.4582 40.8228 85.6769 38.604 88.4061 38.604C91.1353 38.604 93.354 40.8228 93.354 43.552C93.354 46.2811 91.1353 48.4999 88.4061 48.4999Z"/>
<path d="M147.344 38.3437C146.011 37.0207 144.188 36.2083 142.167 36.2083C138.104 36.2083 134.823 39.4999 134.823 43.552C134.823 47.6145 138.115 50.8958 142.167 50.8958C144.188 50.8958 146.021 50.0833 147.344 48.7603V50.5937H149.896V36.6666H147.344V38.3437ZM142.469 48.4999C139.74 48.4999 137.521 46.2812 137.521 43.552C137.521 40.8228 139.74 38.6041 142.469 38.6041C145.198 38.6041 147.417 40.8228 147.417 43.552C147.417 46.2812 145.209 48.4999 142.469 48.4999Z"/>
<path d="M115.552 38.3437C114.219 37.0207 112.396 36.2083 110.375 36.2083C106.312 36.2083 103.031 39.4999 103.031 43.552C103.031 47.6145 106.323 50.8958 110.375 50.8958C112.396 50.8958 114.229 50.0833 115.552 48.7603V50.5103C115.552 54.2708 113.927 56.0833 110.99 56.0833C107.948 56.0833 106.396 54.1978 106.271 51.5208H103.719C103.719 55.5833 106.729 58.4791 110.99 58.4791C115.25 58.4791 118.104 55.5208 118.104 50.7395V36.6666H115.552V38.3437ZM110.677 48.4999C107.948 48.4999 105.729 46.2812 105.729 43.552C105.729 40.8228 107.948 38.6041 110.677 38.6041C113.406 38.6041 115.625 40.8228 115.625 43.552C115.635 46.2812 113.417 48.4999 110.677 48.4999Z"/>
<path d="M99.6564 33.6458C100.68 33.6458 101.511 32.8157 101.511 31.7917C101.511 30.7676 100.68 29.9375 99.6564 29.9375C98.6324 29.9375 97.8022 30.7676 97.8022 31.7917C97.8022 32.8157 98.6324 33.6458 99.6564 33.6458Z"/>
<path d="M121.938 33.6458C122.962 33.6458 123.792 32.8157 123.792 31.7917C123.792 30.7676 122.962 29.9375 121.938 29.9375C120.914 29.9375 120.083 30.7676 120.083 31.7917C120.083 32.8157 120.914 33.6458 121.938 33.6458Z"/>
</svg>
