<svg width="100" height="30" viewBox="0 0 100 30" fill="none" xmlns="http://www.w3.org/2000/svg">
<path d="M4.31506 0.287894V28.0697C4.31506 28.2137 4.17586 28.3576 4.03667 28.3576H0.278391C0.139195 28.3576 0 28.2137 0 28.0697V0.287894C0 0.143947 0.139195 0 0.278391 0H4.03667C4.17586 0 4.31506 0.143947 4.31506 0.287894ZM48.0224 0H44.5425C44.4034 0 44.2642 0.143947 44.2642 0.287894V28.0697C44.2642 28.2137 44.4034 28.3576 44.5425 28.3576H48.0224C48.1616 28.3576 48.3008 28.2137 48.3008 28.0697V0.287894C48.3008 0.143947 48.1616 0 48.0224 0ZM85.8836 0H82.4037C82.2645 0 82.1253 0.143947 82.1253 0.287894V28.0697C82.1253 28.2137 82.2645 28.3576 82.4037 28.3576H85.8836C86.0228 28.3576 86.162 28.2137 86.162 28.0697V0.287894C86.162 0.143947 86.0228 0.143947 85.8836 0ZM77.9495 7.6292H74.4696C74.3304 7.6292 74.1912 7.77315 74.1912 7.9171V28.0697C74.1912 28.2137 74.3304 28.3576 74.4696 28.3576H77.9495C78.0887 28.3576 78.2279 28.2137 78.2279 28.0697V7.9171C78.2279 7.77315 78.0887 7.6292 77.9495 7.6292ZM77.9495 0H74.4696C74.3304 0 74.1912 0.143947 74.1912 0.287894V4.03052C74.1912 4.17447 74.3304 4.31842 74.4696 4.31842H77.9495C78.0887 4.31842 78.2279 4.17447 78.2279 4.03052V0.287894C78.2279 0.143947 78.0887 0.143947 77.9495 0ZM10.1613 14.2508C11.8316 12.3795 21.7145 0.719736 21.8537 0.431842C21.8537 0.287894 21.8537 0.143947 21.7145 0.143947C21.7145 0.143947 21.7145 0.143947 21.5753 0.143947H16.9818C16.8427 0.143947 16.7035 0.287894 16.5643 0.431842L6.68138 12.3795V15.9781L16.8427 28.0697C16.9818 28.2137 17.121 28.3576 17.2602 28.3576H22.1321C22.2713 28.3576 22.4105 28.2137 22.2713 28.0697C22.2713 28.0697 22.2713 28.0697 22.2713 27.9258C21.9929 27.7818 11.6924 15.8342 10.1613 14.2508ZM91.4514 17.7055C93.5394 15.2584 99.1072 8.20499 99.2464 7.9171C99.3856 7.77315 99.2464 7.48526 99.1072 7.48526H95.2097C95.0705 7.48526 94.9313 7.6292 94.7921 7.77315L88.5283 15.9781V19.5768L95.2097 28.0697C95.3489 28.2137 95.4881 28.3576 95.6273 28.3576H99.8031C99.9423 28.3576 100.082 28.2137 99.9423 28.0697C99.9423 28.0697 99.9423 28.0697 99.9423 27.9258C99.664 27.7818 96.6017 24.1831 91.4514 17.7055ZM61.3852 7.05341C59.0189 7.05341 52.3375 7.05341 52.3375 16.41V27.9258C52.3375 28.0697 52.4767 28.2137 52.6159 28.2137H56.0958C56.235 28.2137 56.3742 28.0697 56.3742 27.9258V15.8342C56.3742 10.3642 59.9932 10.5081 61.3852 10.5081C62.7772 10.5081 66.3962 10.5081 66.3962 15.8342V27.9258C66.3962 28.0697 66.5354 28.2137 66.6746 28.2137H70.1545C70.2937 28.2137 70.4329 28.0697 70.4329 27.9258V16.41C70.1545 7.05341 63.7515 7.05341 61.3852 7.05341ZM38.2788 9.93236C39.9491 12.0916 40.9235 14.9705 40.6451 17.8495C40.6451 18.1374 40.6451 18.2813 40.6451 19.001C40.6451 19.2889 40.5059 19.4329 40.2275 19.4329H26.4471C26.4471 21.1602 26.8647 22.7437 27.9783 24.0392C28.9527 25.1908 30.4838 25.7666 31.8758 25.6226C32.9893 25.6226 34.1029 25.3347 35.0773 24.615C35.9124 23.8952 36.4692 23.0316 36.6084 22.0239H40.3667C40.5059 22.0239 40.5059 22.0239 40.5059 22.1679C40.0883 24.1831 39.1139 25.9105 37.4436 27.206C35.7732 28.5016 33.6853 29.0773 31.5974 29.0773C29.0919 29.2213 26.5863 28.2137 24.916 26.3423C23.1064 24.0392 22.2713 21.1602 22.4105 18.1374C22.2713 15.2584 23.1064 12.3795 24.916 10.0763C26.5863 8.06105 29.0919 7.05341 31.7366 7.19736C34.2421 6.90947 36.6084 7.9171 38.2788 9.93236ZM36.7476 16.1221C36.7476 14.6826 36.33 13.2431 35.3556 12.0916C34.3813 11.0839 32.9893 10.6521 31.5974 10.6521C30.2054 10.6521 28.9527 11.0839 27.9783 12.0916C27.0039 13.2431 26.4471 14.6826 26.4471 16.1221H36.7476Z"/>
</svg>
