<svg width="60" height="60" viewBox="0 0 60 60" fill="none" xmlns="http://www.w3.org/2000/svg">
<path fill-rule="evenodd" clip-rule="evenodd" d="M20.7904 0H39.2096C56.0198 0 60 3.98024 60 20.7904V39.2096C60 56.0198 56.0198 60 39.2096 60H20.7904C3.98024 60 0 56.0198 0 39.2096V20.7904C0 3.98024 3.98024 0 20.7904 0Z" fill="black"/>
<path fill-rule="evenodd" clip-rule="evenodd" d="M49.1174 20.6631C49.4138 19.7315 49.1174 19.0541 47.8047 19.0541H43.4434C42.3425 19.0541 41.8344 19.6469 41.538 20.282C41.538 20.282 39.2938 25.7019 36.1604 29.2164C35.1442 30.2326 34.6784 30.5714 34.128 30.5714C33.8316 30.5714 33.4505 30.2326 33.4505 29.3011V20.6207C33.4505 19.5198 33.1117 19.0117 32.1802 19.0117H25.3206C24.6431 19.0117 24.2197 19.5198 24.2197 20.0279C24.2197 21.0865 25.7864 21.3406 25.9558 24.3046V30.7407C25.9558 32.138 25.7017 32.3921 25.1512 32.3921C23.6692 32.3921 20.0701 26.9299 17.9106 20.7054C17.4872 19.4775 17.0637 19.0117 15.9628 19.0117H11.5592C10.2889 19.0117 10.0771 19.6045 10.0771 20.2397C10.0771 21.3829 11.5592 27.1416 16.9791 34.7633C20.5782 39.9715 25.7017 42.7661 30.3171 42.7661C33.1117 42.7661 33.4505 42.131 33.4505 41.0724V37.1345C33.4505 35.8642 33.7045 35.6525 34.5937 35.6525C35.2289 35.6525 36.3721 35.9913 38.9551 38.4895C41.9191 41.4535 42.4272 42.8085 44.0786 42.8085H48.4399C49.7102 42.8085 50.303 42.1733 49.9642 40.9454C49.5831 39.7174 48.1435 37.939 46.2804 35.8219C45.2642 34.6363 43.7398 33.3236 43.274 32.6885C42.6389 31.8416 42.8083 31.5029 43.274 30.7407C43.2317 30.7407 48.5669 23.2037 49.1174 20.6631Z" fill="white"/>
</svg>
