<svg width="170" height="33" viewBox="0 0 170 33" fill="none" xmlns="http://www.w3.org/2000/svg">
<path d="M6.66211 16.0259C6.66118 18.4972 7.63504 20.8677 9.36946 22.6158C11.1039 24.364 13.4568 25.3466 15.9106 25.3475C21.02 25.3449 25.162 21.1754 25.1672 16.0295C25.1682 10.8833 21.0267 6.71063 15.917 6.70966C10.8073 6.70868 6.66425 10.8797 6.66328 16.0259H6.66211ZM10.083 13.6044C10.927 11.4813 12.8392 9.97907 15.0893 9.6714C17.3394 9.36374 19.5801 10.2981 20.9556 12.1178C22.3311 13.9375 22.6291 16.3614 21.7358 18.464C20.3769 21.6623 16.7164 23.1646 13.525 21.8337C10.3337 20.5028 8.79912 16.834 10.083 13.6044Z"/>
<path d="M4.62808 27.4302C7.62208 30.4463 11.6898 32.1137 15.9126 32.0557C20.1356 32.1133 24.2035 30.4461 27.1981 27.4304C30.1928 24.4146 31.8617 20.3046 31.8282 16.028C31.863 11.7511 30.1945 7.64046 27.1995 4.62464C24.2045 1.60882 20.1359 -0.0577109 15.9126 0.00152693C11.6902 -0.0567385 7.6226 1.61006 4.62845 4.62551C1.6343 7.64097 -0.0339093 11.7508 0.000542994 16.0268C-0.0345594 20.3036 1.63356 24.4142 4.62808 27.4302ZM2.88704 16.0411C2.88118 8.75145 8.71279 2.83427 15.9126 2.82715C23.1171 2.82477 28.9593 8.73246 28.9675 16.0268C28.9699 23.3188 23.1359 29.2325 15.9349 29.2372C8.7339 29.2408 2.8929 23.3343 2.88704 16.0423V16.0411Z"/>
<path d="M15.7907 19.1349C14.8211 19.1349 13.9251 18.6139 13.4403 17.7681C12.9555 16.9224 12.9555 15.8803 13.4403 15.0346C13.9251 14.1888 14.8211 13.6678 15.7907 13.6678C17.2897 13.6678 18.5048 14.8917 18.5048 16.4014C18.5048 17.9111 17.2897 19.1349 15.7907 19.1349ZM68.5326 15.0637V23.4285H65.6072V15.2523C65.6072 13.3631 64.5772 12.3102 62.9758 12.3102C61.2415 12.3102 60.0234 13.4135 60.0234 15.8719V23.4285H57.0886V15.2523C57.0886 13.3631 56.1656 12.3102 54.5407 12.3102C52.9169 12.3102 51.5318 13.4135 51.5318 15.8719V23.4285H48.6064V9.93501H51.5318V11.5513C52.3798 10.2543 53.8566 9.50476 55.4084 9.58365C56.9926 9.51499 58.4807 10.3402 59.2568 11.7176C60.1538 10.3127 61.7404 9.49747 63.4096 9.58365C66.4644 9.60707 68.5326 11.6883 68.5326 15.0626V15.0637ZM75.304 10.0802C72.632 11.1916 70.8964 13.7981 70.9077 16.6823C70.8927 18.5739 71.6423 20.392 72.9877 21.7271C74.3331 23.0621 76.1611 23.802 78.06 23.7799C80.9548 23.779 83.5637 22.0401 84.6687 19.3749C85.7736 16.7097 85.1569 13.6439 83.1062 11.6086C81.0556 9.5733 77.9756 8.96997 75.304 10.0802ZM78.0624 12.4718C80.3969 12.4718 82.2893 14.357 82.2893 16.6823C82.2893 19.0077 80.3969 20.8928 78.0624 20.8928C75.7279 20.8928 73.8354 19.0077 73.8354 16.6823C73.8354 14.357 75.7279 12.4718 78.0624 12.4718ZM95.5405 23.7787C99.2231 23.7787 102.287 20.675 102.287 16.6812C102.287 12.6592 99.2231 9.60707 95.5405 9.60707C93.6839 9.52779 91.9079 10.3678 90.7962 11.8511V4.55096H87.8708V23.425H90.7962V21.4808C91.8901 22.9915 93.6721 23.8546 95.5405 23.7787ZM95.0808 12.4156C96.6109 12.4156 98.0247 13.2287 98.7898 14.5487C99.5548 15.8686 99.5548 17.4949 98.7898 18.8148C98.0247 20.1348 96.6109 20.9479 95.0808 20.9479C92.7154 20.9479 90.7979 19.0379 90.7979 16.6818C90.7979 14.3256 92.7154 12.4156 95.0808 12.4156ZM105.663 4.30618C104.712 4.7111 104.27 5.80755 104.676 6.75518C105.083 7.7028 106.184 8.14274 107.135 7.73782C108.086 7.3329 108.528 6.23644 108.121 5.28882C107.715 4.3412 106.614 3.90126 105.663 4.30618ZM107.862 9.93384H104.936V23.4273H107.862V9.93501V9.93384ZM111.256 3.7276H114.181V23.4285H111.256V3.72994V3.7276ZM127.705 19.4253C126.889 20.5245 125.579 21.1505 124.207 21.0978C122.062 21.0978 120.336 20.0273 119.873 17.9449H130.658C130.723 17.5432 130.758 17.1368 130.764 16.7315C130.764 12.8244 128.001 9.60707 123.968 9.60707C119.712 9.60707 116.801 12.5995 116.801 16.6484C116.801 20.6984 119.712 23.7459 124.185 23.7459C126.838 23.7459 128.868 22.6426 130.113 20.8038L127.705 19.4253ZM123.938 12.2189C125.9 12.1504 127.585 13.5946 127.81 15.5369H119.845C120.155 13.5496 121.923 12.117 123.939 12.2189H123.938ZM152.169 9.93384V23.4297H149.244V21.701C148.349 23.0795 146.886 23.7787 145.045 23.7787C142.008 23.7787 139.844 21.7291 139.844 18.2213V9.94789H142.77V17.9227C142.77 19.9723 143.96 21.0533 145.806 21.0533C147.726 21.0533 149.244 19.9172 149.244 17.1684V9.93501H152.169V9.93384ZM163.253 23.7787C166.94 23.7787 170 20.7043 170 16.6812C170 12.6874 166.94 9.60707 163.254 9.58013C161.387 9.50495 159.607 10.3681 158.515 11.878V9.93501H155.589V28.8266H158.515V21.5136C159.619 23.0047 161.394 23.8535 163.253 23.7799V23.7787ZM164.977 12.8712C166.322 13.6648 167.126 15.1249 167.076 16.6812C167.126 18.2374 166.321 19.6972 164.976 20.4905C163.631 21.2837 161.959 21.2844 160.613 20.4923C159.268 19.6986 158.464 18.2377 158.516 16.6812C158.465 15.1249 159.269 13.6647 160.614 12.8715C161.959 12.0783 163.632 12.0782 164.977 12.8712Z"/>
</svg>
