<svg width="155" height="32" viewBox="0 0 155 32" fill="none" xmlns="http://www.w3.org/2000/svg">
<path d="M76.2171 10.0274C76.2171 9.36217 76.2171 8.79197 76.2171 8.22177C76.3122 8.22177 76.5022 8.12673 76.5973 8.12673C77.8327 8.12673 79.0681 8.12673 80.3986 8.12673C80.3986 8.3168 80.3986 8.50687 80.3986 8.69694C80.3986 14.0188 80.3986 19.3407 80.3986 24.7576C80.3986 25.803 80.1135 26.7533 79.6384 27.7037C79.1632 28.559 78.498 29.2242 77.7377 29.8895C77.2625 30.2696 76.6923 30.6497 76.1221 30.9348C75.3618 31.2199 74.6016 31.41 73.8413 31.6001C73.2711 31.6951 72.7009 31.6951 72.1307 31.6951C71.5605 31.6951 70.8953 31.7901 70.325 31.6951C69.4697 31.6001 68.5194 31.41 67.7591 31.0299C67.1889 30.7448 66.7138 30.4597 66.2386 30.1746C65.9535 29.9845 65.7634 29.6994 65.4783 29.5093C64.9081 29.0342 64.433 28.4639 64.1479 27.7037C65.3833 27.0384 66.5237 26.2782 67.8542 25.6129C68.3293 26.5633 69.0896 27.1335 70.0399 27.5136C70.5151 27.7037 70.9903 27.8937 71.5605 27.8937C71.9406 27.8937 72.3208 27.8937 72.7009 27.8937C74.0314 27.7987 75.0767 27.3235 75.837 26.2782C76.1221 25.9931 76.2171 25.5179 76.3122 25.1378C76.4072 24.8527 76.4072 24.6626 76.4072 24.3775C76.4072 24.0924 76.4072 23.9023 76.4072 23.6172C76.4072 23.1421 76.4072 22.7619 76.4072 22.1917C76.3122 22.2868 76.2171 22.3818 76.1221 22.3818C75.5519 23.047 74.8867 23.5222 74.0314 23.9023C73.2711 24.1874 72.5108 24.3775 71.8456 24.3775C71.4655 24.3775 70.9903 24.3775 70.6102 24.3775C69.1846 24.3775 67.8542 23.9974 66.6187 23.1421C65.3833 22.2868 64.3379 21.2414 63.6727 19.8159C63.3876 19.2457 63.1975 18.6755 63.1025 18.1053C63.0075 17.8202 63.1025 17.44 62.9124 17.1549C62.7223 16.7748 62.9124 16.4897 62.8174 16.1096C62.8174 15.7294 62.8174 15.4443 62.8174 15.0642C62.8174 14.7791 62.9124 14.494 62.9124 14.3039C63.1025 13.6387 63.1975 12.9735 63.4826 12.4033C63.7677 11.833 64.1479 11.1678 64.528 10.6926C64.8131 10.4075 65.0032 10.1224 65.2883 9.83734C66.0485 9.17211 66.8088 8.6019 67.6641 8.22177C68.2343 8.0317 68.8045 7.84163 69.3747 7.7466C70.0399 7.55653 70.6101 7.65157 71.2754 7.65157C72.6059 7.65157 73.8413 8.12673 74.9817 8.887C75.5519 9.17211 75.837 9.64727 76.2171 10.0274ZM71.7506 20.5762C72.1307 20.6712 72.6059 20.5762 73.081 20.4811C73.2711 20.3861 73.4612 20.2911 73.6512 20.196C74.1264 20.0059 74.5065 19.8159 74.7916 19.4357C75.1718 19.0556 75.4569 18.7705 75.742 18.2003C76.0271 17.6301 76.2171 17.0599 76.2171 16.3947C76.2171 16.2046 76.2171 15.9195 76.2171 15.7294C76.2171 15.4443 76.1221 15.0642 76.1221 14.7791C76.1221 14.589 75.932 14.399 75.932 14.2089C75.6469 13.4486 75.0767 12.8784 74.5065 12.4983C73.6512 11.9281 72.7959 11.833 71.8456 11.643C71.6555 11.643 71.4655 11.738 71.2754 11.738C71.0853 11.738 70.8002 11.833 70.6102 11.833C69.6598 11.9281 68.9946 12.4983 68.4244 13.1635C68.2343 13.3536 68.1393 13.6387 67.9492 13.9238C67.6641 14.2089 67.6641 14.589 67.5691 14.8741C67.379 15.6344 67.379 16.2996 67.5691 17.1549C67.5691 17.345 67.5691 17.6301 67.6641 17.8202C67.8542 18.0102 67.9492 18.2953 68.0442 18.4854C68.4244 19.1506 68.8045 19.5308 69.4697 19.9109C69.9449 20.3861 70.7052 20.6712 71.7506 20.5762Z"/>
<path d="M55.5949 9.93242C55.5949 9.36222 55.5949 8.79201 55.5949 8.22181L55.6899 8.12678C55.6899 8.12678 55.6899 8.12678 55.785 8.12678C57.1154 8.12678 58.5409 8.12678 59.7764 8.12678C59.7764 8.22181 59.8714 8.22181 59.8714 8.31685C59.8714 13.7338 59.8714 19.1507 59.8714 24.6626C58.4459 24.6626 57.0204 24.6626 55.5949 24.6626C55.5949 24.0924 55.5949 23.5222 55.5949 22.952C55.4048 23.1421 55.3098 23.2371 55.2147 23.3322C55.1197 23.4272 54.9297 23.6173 54.8346 23.7123C54.7396 23.8073 54.5495 23.9024 54.4545 23.9024C53.8843 24.3775 52.7439 24.8527 51.9836 25.0428C51.0333 25.2328 49.9879 25.1378 49.0376 25.1378C48.4674 25.1378 47.8972 24.8527 47.422 24.6626C46.4717 24.2825 45.7114 23.7123 45.0461 23.0471C44.4759 22.4769 44.0008 21.9067 43.5256 21.3365C43.1455 20.6712 42.7653 19.911 42.5753 19.0557C42.3852 18.3904 42.2902 17.7252 42.2902 17.0599C42.2902 16.9649 42.2902 16.8699 42.1951 16.7748C42.1951 16.6798 42.1001 16.4897 42.1001 16.3947C42.2902 16.0146 42.1951 15.6344 42.1951 15.1593C42.2902 14.494 42.4802 13.9238 42.6703 13.3536C43.0504 12.1182 43.7157 11.0728 44.666 10.1225C45.2362 9.55228 45.9014 8.98208 46.5667 8.60195C47.0419 8.31685 47.517 8.22181 47.9922 8.03175C48.3723 7.93671 48.8475 7.84168 49.2276 7.74664C49.7978 7.74664 50.4631 7.65161 51.0333 7.74664C52.4588 7.93671 53.7892 8.31685 54.8346 9.45725C55.1197 9.55228 55.3098 9.74235 55.5949 9.93242C55.4999 9.93242 55.4999 9.93242 55.5949 9.93242ZM51.1283 20.9563C51.6985 21.0514 52.2687 20.8613 52.8389 20.6712C53.219 20.5762 53.5041 20.2911 53.8843 20.101C54.6445 19.5308 55.1197 18.7706 55.4048 17.9153C55.6899 17.25 55.5949 16.6798 55.6899 16.0146C55.6899 15.6344 55.5949 15.2543 55.4999 14.9692C55.3098 14.399 55.0247 13.8288 54.6445 13.4487C54.2644 13.0685 53.7892 12.5934 53.219 12.3083C52.4588 12.0232 51.6035 11.7381 50.8432 11.8331C50.6531 11.8331 50.4631 11.9281 50.273 11.9281C49.7978 11.9281 49.4177 12.1182 49.0376 12.3083C48.3723 12.5934 47.8972 13.1636 47.517 13.6387C47.2319 14.0189 47.0419 14.5891 46.8518 15.0642C46.7567 15.4444 46.7567 15.8245 46.6617 16.2046C46.6617 16.4897 46.7568 16.7748 46.7568 17.0599C46.8518 17.7252 46.9468 18.1053 47.327 18.7706C47.422 18.9606 47.6121 19.2457 47.7071 19.4358C48.1823 20.006 48.7525 20.3861 49.5127 20.6712C49.8929 20.9563 50.4631 21.0514 51.1283 20.9563Z"/>
<path d="M100.261 18.2003C96.1745 18.2003 92.0881 18.2003 88.0016 18.2003C88.0967 18.3904 88.0967 18.5804 88.1917 18.6755C88.6669 19.8159 89.6172 20.5761 90.7576 20.8612C91.0427 20.9563 91.2328 21.0513 91.5179 21.0513C91.7079 21.0513 91.898 21.1463 92.0881 21.1463C93.1334 21.2414 94.1788 20.9563 95.1292 20.4811C95.3192 20.196 95.7944 20.101 95.8894 19.7208C95.8894 19.6258 96.0795 19.5308 96.1745 19.4357C96.7447 19.8159 97.41 20.101 97.9802 20.4811C98.5504 20.8612 99.2156 21.0513 99.6908 21.5265C99.3106 22.0016 98.9305 22.4768 98.5504 22.8569C97.9802 23.4271 97.3149 23.9023 96.5547 24.1874C95.8894 24.4725 95.3192 24.6626 94.559 24.8527C93.4185 25.0427 92.1831 24.9477 91.0427 24.9477C90.1874 24.9477 89.3321 24.7576 88.4768 24.2825C88.0016 23.9973 87.5265 23.9023 87.0513 23.5222C86.3861 23.047 85.6258 22.5718 85.2456 21.8116C85.0556 21.4314 84.6754 21.1463 84.4854 20.7662C84.2003 20.196 83.9152 19.6258 83.7251 18.9606C83.535 18.2953 83.345 17.5351 83.44 16.8698C83.44 16.7748 83.345 16.6798 83.345 16.4897C83.345 16.2996 83.2499 16.1096 83.345 16.0145C83.44 15.8245 83.44 15.7294 83.44 15.6344C83.44 14.3039 83.8201 13.1635 84.3903 11.9281C84.5804 11.5479 84.8655 11.1678 85.0556 10.8827C85.9109 9.64726 86.8612 9.07706 88.0016 8.41182C88.5718 8.12672 89.142 7.93665 89.7122 7.84162C89.9973 7.74658 90.2824 7.74658 90.4725 7.74658C90.7576 7.65155 90.9477 7.65155 91.2328 7.65155C91.5179 7.65155 91.803 7.65155 92.0881 7.65155C92.3732 7.65155 92.6583 7.65155 92.8483 7.65155C94.3689 7.84162 95.6994 8.22175 96.9348 9.26712C97.3149 9.55222 97.6951 9.93236 98.0752 10.3125C99.0255 11.3579 99.6908 12.5933 100.071 14.0188C100.356 15.2542 100.261 16.4897 100.261 17.6301C100.356 17.8202 100.261 18.0102 100.261 18.2003ZM96.0795 14.7791C95.9845 14.494 95.9845 14.3989 95.8894 14.2089C95.6043 13.3536 95.0341 12.5933 94.1788 12.2132C93.6086 11.9281 93.1334 11.643 92.4682 11.643C92.3732 11.643 92.3732 11.5479 92.2781 11.5479C92.1831 11.5479 91.993 11.4529 91.898 11.5479C91.7079 11.738 91.4228 11.643 91.2328 11.643C90.9477 11.643 90.6626 11.738 90.3775 11.833C89.5222 12.2132 88.7619 12.6883 88.2867 13.5436C88.0967 13.9238 87.9066 14.3039 87.8116 14.7791C90.6626 14.7791 93.3235 14.7791 96.0795 14.7791Z"/>
<path d="M138.084 8.12677C139.605 8.12677 141.125 8.12677 142.646 8.12677C142.836 8.31684 142.931 8.5069 142.931 8.79201C143.026 9.17214 143.216 9.45724 143.311 9.83738C143.596 10.5026 143.881 11.1678 144.071 11.8331C144.356 12.4983 144.546 13.1636 144.831 13.8288C145.117 14.494 145.307 15.1593 145.497 15.7295C145.972 16.8699 146.352 17.9152 146.827 19.1507C148.063 15.4444 149.203 11.8331 150.438 8.2218C151.959 8.2218 153.48 8.2218 155 8.2218C155 8.31684 154.905 8.5069 154.905 8.60194C154.81 8.98207 154.62 9.26717 154.525 9.64731C154.24 10.5026 153.86 11.2629 153.575 12.1182C153.194 13.1636 152.814 14.2089 152.434 15.2543C152.054 16.3947 151.674 17.5351 151.199 18.5805C150.914 19.3407 150.629 20.101 150.343 20.8613C150.248 21.2414 150.058 21.5265 149.963 21.9067C149.868 22.1918 149.773 22.5719 149.583 22.857C149.298 23.5222 149.108 24.1875 148.918 24.7577C148.538 25.803 148.063 26.8484 147.397 27.7987C146.922 28.464 146.447 29.1292 145.782 29.6044C144.927 30.2696 144.071 30.7448 143.026 31.0299C142.741 31.1249 142.361 31.0299 142.076 31.22C141.79 31.41 141.505 31.315 141.22 31.315C140.935 31.315 140.555 31.315 140.175 31.315C140.175 30.6498 140.175 29.8895 140.175 29.2243C140.175 28.559 140.08 27.8938 140.27 27.2285C141.315 27.3236 142.171 27.1335 142.931 26.4683C143.691 25.803 144.166 25.0428 144.451 24.0924C144.261 23.6173 143.976 23.0471 143.691 22.4769C143.501 22.0967 143.311 21.6216 143.216 21.2414C142.836 20.1961 142.361 19.2457 141.98 18.2954C141.885 17.9152 141.6 17.5351 141.505 17.155C141.125 16.3947 140.84 15.6344 140.46 14.7791C139.985 13.6387 139.51 12.4983 139.034 11.3579C138.654 10.4076 138.179 9.45724 137.894 8.5069C138.179 8.41187 138.179 8.31684 138.084 8.12677Z"/>
<path d="M118.792 24.6626C117.367 24.6626 115.941 24.6626 114.421 24.6626C114.421 24.4725 114.421 24.1874 114.421 23.9974C114.421 21.0513 114.421 18.2003 114.421 15.2543C114.421 14.7791 114.326 14.3039 114.326 13.8288C114.231 13.7337 114.231 13.6387 114.135 13.4486C113.755 12.5933 113.185 12.0231 112.235 11.833C111.95 11.738 111.57 11.833 111.284 11.643C110.904 11.9281 110.429 11.643 110.049 11.9281C109.669 12.1182 109.289 12.2132 109.004 12.4983C108.528 12.8784 108.243 13.4486 108.053 14.0188C107.863 14.494 107.768 15.0642 107.768 15.5394C107.768 18.5804 107.768 21.6215 107.768 24.5676C107.768 24.5676 107.768 24.5676 107.768 24.6626C106.343 24.6626 104.917 24.6626 103.492 24.6626C103.492 19.2457 103.492 13.7337 103.492 8.3168C103.587 8.12673 103.777 8.12673 103.967 8.12673C105.202 8.12673 106.533 8.12673 107.863 8.12673C107.863 8.69694 107.863 9.26714 107.863 9.93238C108.053 9.64727 108.148 9.55224 108.338 9.36217C108.528 9.07707 108.909 8.887 109.194 8.6019C109.859 8.12673 110.619 7.93667 111.379 7.7466C112.045 7.55653 112.805 7.65157 113.47 7.65157C114.04 7.65157 114.706 7.84163 115.276 8.0317C116.131 8.41184 116.796 8.887 117.462 9.55224C118.127 10.3125 118.507 11.1678 118.792 12.1182C118.887 12.5933 119.077 13.0685 118.982 13.5437C119.267 14.6841 119.077 15.9195 119.077 17.0599C119.077 18.2953 119.077 19.5308 119.077 20.7662C118.792 22.1917 118.792 23.4272 118.792 24.6626Z"/>
<path d="M133.902 18.6755C135.138 19.3407 136.373 20.101 137.609 20.7662C137.419 21.0513 137.324 21.3364 137.134 21.6215C136.658 22.1917 136.183 22.6669 135.613 23.1421C135.043 23.6172 134.378 23.9974 133.712 24.2825C132.857 24.6626 131.907 25.0427 130.861 24.9477C130.291 24.9477 129.721 24.9477 129.246 24.9477C128.39 24.9477 127.535 24.6626 126.68 24.3775C125.349 23.9023 124.304 23.047 123.449 22.0017C122.783 21.2414 122.213 20.3861 121.928 19.3407C121.738 18.7705 121.643 18.2953 121.548 17.7251C121.358 17.0599 121.453 16.3947 121.453 15.6344C121.453 14.9692 121.643 14.399 121.833 13.7337C122.023 13.1635 122.213 12.4983 122.498 12.0231C122.783 11.5479 122.973 11.1678 123.354 10.7877C123.544 10.5976 123.544 10.4075 123.734 10.3125C124.589 9.55224 125.349 8.79197 126.395 8.41184C127.06 8.12673 127.82 7.93667 128.58 7.7466C129.436 7.55653 130.291 7.65157 131.051 7.65157C131.431 7.65157 131.717 7.84163 132.002 7.84163C132.287 7.84163 132.572 8.0317 132.857 8.12673C133.617 8.3168 134.663 8.887 135.233 9.36217C135.803 9.83734 136.658 10.6926 137.134 11.3579C137.229 11.5479 137.419 11.738 137.514 12.0231C136.278 12.6884 135.043 13.4486 133.807 14.2089C133.712 14.1139 133.617 14.1139 133.617 14.0188C133.522 13.6387 133.237 13.4486 133.047 13.1635C132.477 12.5933 131.812 12.3082 131.146 12.1182C130.766 12.0231 130.291 11.9281 129.816 12.0231C129.246 12.1182 128.676 12.2132 128.2 12.4983C127.155 13.0685 126.395 13.9238 126.015 15.0642C125.539 16.4897 125.825 17.8202 126.49 19.0556C126.585 19.3407 126.965 19.5308 127.155 19.7208C127.725 20.3861 128.39 20.6712 129.246 20.8613C130.671 21.2414 132.002 20.7662 133.047 20.0059C133.332 19.8159 133.522 19.4357 133.712 19.1506C133.712 18.8655 133.807 18.8655 133.902 18.6755Z"/>
<path d="M32.8817 11.2629C31.6462 11.9281 30.4108 12.5934 29.2704 13.2586C28.9853 12.8785 28.6052 12.5934 28.3201 12.2132C28.035 11.9281 27.6548 11.7381 27.2747 11.643C26.9896 11.548 26.7995 11.548 26.5144 11.548C25.9442 11.548 25.5641 11.7381 25.0889 12.0232C24.8989 12.1182 24.8038 12.4033 24.6138 12.5934C24.6138 12.7834 24.6138 13.0685 24.6138 13.3536C24.6138 13.3536 24.7088 13.4487 24.8038 13.4487C25.374 14.1139 26.1343 14.304 26.8946 14.494C27.9399 14.7791 28.9853 15.0642 29.9356 15.4444C30.6959 15.7295 31.3611 16.2046 31.9313 16.7748C32.4065 17.25 32.6916 17.9152 32.8817 18.5805C33.0718 19.3408 33.0718 20.101 32.9767 20.8613C32.8817 21.7166 32.5966 22.4769 31.9313 23.1421C31.4562 23.6173 30.981 23.9974 30.4108 24.2825C29.9356 24.5676 29.4605 24.7577 28.9853 24.8527C28.3201 25.0428 27.6548 25.1378 26.9896 25.1378C26.3244 25.1378 25.6591 25.2328 24.9939 25.1378C24.0436 25.0428 22.523 24.6626 21.2876 23.7123C20.7174 23.2371 20.1472 22.6669 19.8621 22.0017C19.767 21.8116 19.577 21.6216 19.4819 21.4315C19.577 21.3365 19.672 21.2414 19.767 21.1464C20.2422 20.8613 20.8124 20.6712 21.2876 20.2911C21.7627 19.911 22.3329 19.8159 22.8081 19.4358C22.9031 19.3408 23.1882 19.3408 23.3783 19.2457C23.4734 19.8159 23.8535 20.1961 24.3287 20.5762C24.6138 20.8613 25.279 21.1464 25.7542 21.2414C26.0393 21.2414 26.2293 21.3365 26.5144 21.3365C27.0846 21.3365 27.5598 21.1464 28.13 21.0514C28.8903 20.3861 28.8903 20.3861 28.8903 19.7209C28.7002 19.3408 28.4151 19.0556 28.13 18.9606C27.3697 18.5805 26.6095 18.3904 25.8492 18.2003C24.8038 17.9152 23.7585 17.6301 22.8081 17.0599C22.523 16.8699 22.3329 16.7748 22.0478 16.5848C21.8578 16.3947 21.4776 16.2997 21.4776 16.0146C21.0025 15.6344 20.7174 15.0642 20.6223 14.494C20.5273 14.1139 20.3372 13.7338 20.4323 13.4487C20.4323 13.0685 20.2422 12.6884 20.5273 12.3083C20.5273 11.7381 20.8124 11.2629 21.0025 10.7877C21.2876 10.1225 21.8578 9.55228 22.428 9.17214C22.8081 8.88704 23.1882 8.69697 23.6634 8.50691C23.7585 8.50691 23.8535 8.41187 23.8535 8.41187C24.3287 8.41187 24.6138 8.22181 25.0889 8.12677C25.7542 8.03174 26.3244 8.03174 26.9896 8.03174C28.035 8.03174 28.9853 8.31684 29.9356 8.69697C30.5058 8.98208 30.981 9.36221 31.4562 9.74234C31.9313 9.93241 32.4065 10.5976 32.8817 11.2629Z"/>
<path d="M18.0563 24.6626C17.106 24.8527 16.1557 24.8527 15.2053 24.7576C14.255 24.7576 13.3997 24.5676 12.5444 24.1874C11.8791 23.9023 11.3089 23.4272 10.9288 22.7619C10.6437 22.1917 10.4536 21.6215 10.2636 21.0513C10.1685 20.6712 10.0735 20.196 10.0735 19.7209C10.0735 17.44 10.0735 15.2543 10.0735 12.9735C10.0735 12.7834 10.0735 12.4983 10.0735 12.3082C9.12316 12.3082 8.17283 12.3082 7.22249 12.3082C7.22249 11.548 7.22249 10.8827 7.22249 10.1225C7.22249 9.45722 7.12746 8.79198 7.31752 8.03171C8.26786 8.03171 9.12316 8.03171 10.0735 8.03171C10.0735 6.98634 10.0735 5.84593 10.0735 4.80056C10.2636 4.80056 10.3586 4.70553 10.4536 4.70553C11.7841 4.42043 13.0195 3.85023 14.35 3.56512C14.35 5.08566 14.35 6.6062 14.35 8.03171C15.5855 8.03171 16.8209 8.03171 18.0563 8.03171C18.0563 9.45721 18.0563 10.7877 18.0563 12.2132C16.8209 12.2132 15.6805 12.2132 14.4451 12.2132C14.4451 12.4033 14.4451 12.5933 14.4451 12.7834C14.4451 14.8741 14.4451 16.9649 14.4451 19.0556C14.4451 19.5308 14.5401 20.006 14.9202 20.2911C15.0153 20.3861 15.0153 20.4811 15.1103 20.4811C16.1557 20.7662 17.106 20.5762 18.1514 20.6712C18.0563 22.0017 18.0563 23.3321 18.0563 24.6626Z"/>
<path d="M0.475586 8.31684C0.57062 8.2218 0.57062 8.2218 0.665653 8.12677C1.99613 8.12677 3.3266 8.12677 4.65707 8.12677H4.7521C4.7521 13.6387 4.7521 19.0556 4.7521 24.6626C3.3266 24.6626 1.90109 24.6626 0.475586 24.6626C0.475586 19.2457 0.475586 13.7338 0.475586 8.31684Z"/>
<path d="M40.8648 23.0471C40.2946 24.3775 39.4393 25.0428 38.1088 25.0428C36.6833 25.0428 35.9231 24.2825 35.3528 23.1421C35.2578 22.857 35.4479 22.5719 35.2578 22.2868C35.3528 21.9067 35.3528 21.6216 35.4479 21.3365C35.5429 20.9563 35.733 20.7663 35.923 20.4812C36.1131 20.1961 36.3032 19.911 36.5883 19.8159C36.8734 19.6259 37.1585 19.6259 37.5386 19.5308C37.9188 19.4358 38.2039 19.4358 38.584 19.4358C38.8691 19.4358 39.1542 19.6259 39.5343 19.7209C39.9145 19.8159 40.1045 20.101 40.2946 20.3861C40.5797 20.5762 40.6747 20.8613 40.8648 21.2414C40.9598 21.5265 40.8648 21.9067 41.0549 22.1918C40.9598 22.4769 40.7698 22.857 40.8648 23.0471Z"/>
<path d="M0 3.56514C0 3.47011 0.0950337 3.37508 0.0950337 3.18501C0.0950337 2.61481 0.380135 2.23467 0.665236 1.85454C1.23544 1.28434 1.99571 0.9042 2.85101 0.999234C3.04108 0.999234 3.23115 0.999234 3.42121 0.999234C3.61128 1.09427 3.70631 1.1893 3.89638 1.28434C4.75169 1.66447 5.13182 2.42474 5.32189 3.18501C5.51196 3.85025 5.22685 4.51548 4.84672 5.08568C4.65665 5.46582 4.37155 5.75092 3.99142 5.94099C3.70631 6.13105 3.32618 6.22609 3.04108 6.22609C1.80564 6.41616 0.855303 5.75092 0.285101 4.80058C0.190067 4.61052 0.190067 4.32541 0.0950337 4.04031C0.0950337 3.94528 0 3.85025 0 3.56514Z"/>
</svg>
