<svg width="150" height="52" viewBox="0 0 150 52" fill="none" xmlns="http://www.w3.org/2000/svg">
<path d="M62.3005 38.1763C62.085 38.2303 61.8155 38.3383 61.546 38.3383C61.1149 38.3383 60.6838 38.1223 60.6838 37.4744V33.3165C60.6838 29.8067 58.6358 28.2407 55.3483 28.2407C53.5159 28.2407 51.8453 28.6727 50.9291 28.9967V31.3726C51.953 30.9406 53.4082 30.4546 55.0788 30.4546C57.0729 30.4546 58.0969 31.4806 58.0969 32.9385V33.3705C57.1807 33.1545 56.1028 33.0465 55.0788 33.0465C52.6536 33.0465 49.959 33.9645 49.959 36.9344C49.959 39.3103 51.8991 40.4982 54.001 40.4982C55.7795 40.4982 57.2346 39.9043 58.3663 38.9863C58.7975 39.9043 59.6059 40.3363 60.6838 40.3363C61.2766 40.3363 61.8155 40.2283 62.3005 40.0663V38.1763ZM58.1508 37.0964C57.2346 38.0143 56.0489 38.4463 54.8094 38.4463C53.6776 38.4463 52.6536 37.8524 52.6536 36.7184C52.6536 35.2605 54.2166 34.8285 55.6717 34.8285C56.4801 34.8285 57.4502 34.9905 58.1508 35.0985V37.0964Z"/>
<path d="M69.63 40.4443C71.0852 40.4443 72.3247 40.1743 73.4565 39.6343V37.2584C72.5403 37.7984 71.3007 38.1763 70.1151 38.1763C68.0671 38.1763 66.0731 36.9884 66.0731 34.3425C66.0731 31.6426 68.121 30.5086 70.169 30.5086C71.3546 30.5086 72.5403 30.8866 73.3487 31.4806V29.1587C72.3247 28.5647 71.0852 28.2407 69.7917 28.2407C66.7198 28.2407 63.4323 30.1307 63.4323 34.4505C63.3784 38.6083 66.5581 40.4443 69.63 40.4443Z"/>
<path d="M80.1931 33.0467C77.7679 33.0467 75.0732 33.9647 75.0732 36.9346C75.0732 39.3105 77.0134 40.4985 79.1152 40.4985C80.8937 40.4985 82.3488 39.9045 83.4806 38.9865C83.9117 39.9045 84.7201 40.3365 85.798 40.3365C86.3908 40.3365 86.9298 40.2285 87.4148 40.0665V38.2305C87.1992 38.2845 86.9298 38.3925 86.6603 38.3925C86.2292 38.3925 85.798 38.1765 85.798 37.5286V33.3707C85.798 29.8609 83.7501 28.2949 80.4626 28.2949C78.6302 28.2949 76.9595 28.7269 76.0433 29.0509V31.4268C77.0673 30.9948 78.5224 30.5088 80.1931 30.5088C82.1872 30.5088 83.2111 31.5348 83.2111 32.9927V33.4247C82.2949 33.2087 81.1632 33.0467 80.1931 33.0467ZM83.2111 37.0966C82.2949 38.0145 81.1093 38.4465 79.8697 38.4465C78.738 38.4465 77.714 37.8526 77.714 36.7186C77.714 35.2607 79.2769 34.8287 80.732 34.8287C81.5404 34.8287 82.5105 34.9907 83.2111 35.0987V37.0966Z"/>
<path d="M88.4395 34.3425C88.4395 37.6904 90.6491 40.4443 94.1521 40.4443C96.3079 40.4443 97.7091 39.4183 98.5714 38.2844V40.1203H100.889V23.2729H98.3019V30.0767C97.4935 29.1587 96.1462 28.2948 94.1521 28.2948C90.703 28.2948 88.4395 31.0487 88.4395 34.3425ZM98.3019 32.9386V35.7465C97.763 37.0424 96.4157 38.1764 94.6372 38.1764C92.5892 38.1764 91.0802 36.6104 91.0802 34.3425C91.0802 32.0746 92.5892 30.5087 94.6372 30.5087C96.4157 30.5087 97.763 31.6966 98.3019 32.9386Z"/>
<path d="M109.942 40.4443C111.559 40.4443 113.014 40.1743 114.092 39.6343V37.4204C113.122 37.9064 111.828 38.2303 110.427 38.2303C108.325 38.2303 106.277 37.3664 106.008 35.3145H114.685C115.439 31.9666 113.822 28.2407 109.241 28.2407C106.547 28.2407 103.421 30.1307 103.421 34.3425C103.421 38.4463 106.385 40.4443 109.942 40.4443ZM109.349 30.4006C111.882 30.4006 112.475 32.3986 112.367 33.3705H105.954C106.062 31.4266 107.625 30.4006 109.349 30.4006Z"/>
<path d="M132.901 32.9927V40.1745H135.488V32.9387C135.488 30.5628 134.141 28.2949 131.123 28.2949C129.452 28.2949 128.105 29.1589 127.081 30.1308C126.434 28.9969 125.194 28.2949 123.47 28.2949C121.584 28.2949 120.236 29.3749 119.643 30.0769V28.6189H117.38V40.1745H119.967V32.3448C120.56 31.5888 121.637 30.5628 123.039 30.5628C124.44 30.5628 125.302 31.4808 125.302 32.9927V40.1745H127.889V32.9387C127.889 32.6688 127.889 32.3988 127.835 32.1288C128.428 31.4268 129.398 30.5628 130.692 30.5628C131.985 30.5628 132.901 31.4808 132.901 32.9927Z"/>
<path d="M149.5 28.5649H146.806L143.356 37.3126L139.476 28.5649H136.728L142.225 40.2285L142.009 40.8225C141.362 42.6044 140.392 43.5224 139.153 43.5224C138.775 43.5224 138.344 43.4684 137.967 43.3604V45.5743C138.452 45.6823 138.991 45.7903 139.476 45.7903C141.255 45.7903 142.871 44.7643 144.111 41.7404L149.5 28.5649Z"/>
<path d="M53.408 12.2576C54.0547 11.3396 55.1865 10.3136 56.6416 10.3136C58.2045 10.3136 59.3362 11.2316 59.3362 13.0675V19.8713H61.9231V12.7436C61.9231 9.98966 60.0908 8.04573 57.1805 8.04573C55.6176 8.04573 54.2703 8.7477 53.4619 9.61167V3.02393H50.875V19.8713H53.4619V12.2576H53.408Z"/>
<path d="M66.3966 16.3614C66.3966 19.0613 68.1212 20.1953 70.3847 20.1953C71.5164 20.1953 72.5943 19.9793 73.5105 19.7093V17.4954C72.8099 17.7654 72.0015 17.9274 71.1931 17.9274C69.6841 17.9274 68.9835 17.4414 68.9835 15.9295V10.6377H73.1871V8.36975H68.9835V4.21191L66.3966 4.85989V8.36975H64.3486V10.6377H66.3966V16.3614Z"/>
<path d="M78.9539 12.0957C79.5467 11.3398 80.6246 10.3138 82.0258 10.3138C83.427 10.3138 84.2893 11.2318 84.2893 12.7437V19.9254H86.8762V12.6897C86.8762 12.4197 86.8762 12.1497 86.8223 11.8798C87.4151 11.1778 88.3852 10.3138 89.6786 10.3138C91.0799 10.3138 91.9422 11.2318 91.9422 12.7437V19.9254H94.529V12.6897C94.529 10.3138 93.1817 8.0459 90.1637 8.0459C88.493 8.0459 87.1457 8.90987 86.1217 9.88183C85.475 8.74787 84.2354 8.0459 82.5108 8.0459C80.6246 8.0459 79.2772 9.12586 78.6844 9.82783V8.36989H76.4209V19.9254H79.0078V12.0957H78.9539Z"/>
<path d="M100.889 3.02393H98.3018V19.8713H100.889V3.02393Z"/>
<path d="M20.695 0H20.4795L0 2.15992V39.7965L20.4795 52L40.9589 39.7965V2.15992L20.695 0ZM38.2642 38.2305L20.4795 48.8681L2.69466 38.2305V22.8411L20.4256 33.4247L20.4795 35.3146L8.29957 28.0789V29.9149L20.4795 37.2586L20.5333 39.2025L8.29957 31.9668V33.8027L20.4795 41.2004L32.821 33.8027V31.9128V31.2648V30.5088V25.811L38.2642 22.5711V38.2305ZM38.2642 20.5732L33.4138 23.4351L31.1503 24.785L20.4256 18.3593V20.1952L29.5874 25.649L29.4796 25.703L29.2641 25.811L27.9706 26.567L20.4256 22.0312V23.8671L26.4077 27.5389L25.0065 28.4569H24.9526L20.4256 25.811V27.6469L23.3897 29.3749L20.3717 31.2108L2.69466 20.7352L20.3717 10.0976L38.2642 20.5732ZM38.2642 18.6833L20.3717 8.09969L2.69466 18.6833V4.58982L20.4795 2.6999L38.2642 4.58982V18.6833Z"/>
</svg>
