<svg width="48" height="59" viewBox="0 0 48 59" fill="none" xmlns="http://www.w3.org/2000/svg">
<path class="svg-bg" fill-rule="evenodd" clip-rule="evenodd" d="M0.962402 0V43.2713H0.964472L24.4274 58.0114L47.8925 43.2713H47.8946V0H0.962402Z" fill="#2C39F2"/>
<path fill-rule="evenodd" clip-rule="evenodd" d="M10.799 12.7344L13.3479 40.7502L24.7901 43.8624L36.2423 40.7517L38.7953 12.7344H10.799Z" fill="white"/>
<path class="svg-glyph" d="M21.0279 20V34.1503L16 32.7977V35.711L23.5419 38V20H21.0279Z" fill="#2C39F2"/>
<path class="svg-glyph" d="M26.6536 20H35L34.7989 23.1214H29.3687V27.9075L34.3966 27.2832L33.7933 36.1272L26.6536 38V34.8786L31.7821 33.422L31.8827 30.7168L26.6536 31.6532V20Z" fill="#2C39F2"/>
<path fill-rule="evenodd" clip-rule="evenodd" d="M22.1148 5.65967V6.86919H23.1444L23.15 10.1098H20.849V11.3193H24.4383V10.1098H24.4382L24.4326 6.86919H24.4383V5.65967H22.1148Z" fill="white"/>
<path fill-rule="evenodd" clip-rule="evenodd" d="M25.2902 5.65967V6.82308L27.3624 10.1011H25.1561V11.3193H28.7453V10.156L26.6825 6.87786H28.6112V5.65967H25.2902Z" fill="white"/>
<path fill-rule="evenodd" clip-rule="evenodd" d="M25 40.8317V16.3848H36.2242L34.0927 38.3049L25 40.8317Z" fill="#2C39F2" fill-opacity="0.19"/>
</svg>
