<svg width="47" height="59" viewBox="0 0 47 59" fill="none" xmlns="http://www.w3.org/2000/svg">
<path fill-rule="evenodd" clip-rule="evenodd" d="M0.0678711 0V43.2713H0.0699403L23.5329 58.0114L46.9979 43.2713H47V0H0.0678711Z" fill="#2C39F2"/>
<path d="M29.0629 37.814L30.1838 35.8719C30.1838 35.8719 27.6389 36.9308 23.381 36.9308C19.1197 36.9308 16.6136 35.9131 16.6136 35.9131L17.8666 38.0326L18.3107 44.7136C18.3107 45.4356 20.6265 46 23.485 46C26.3453 46 28.6628 45.4374 28.6628 44.7136L29.0664 37.8427V37.814H29.0629ZM30.1467 25.1902C28.7915 25.2726 28.1147 26.8081 27.4345 28.4241C27.1825 29.0154 26.3242 31.5362 25.7638 31.2244C25.2033 30.9145 26.4916 28.8434 26.8547 27.6107C26.437 27.9225 24.9072 29.1318 24.5125 27.9959C23.8816 28.5585 22.5228 28.8559 22.6761 27.4065C22.3395 28.0246 21.5817 28.881 20.6688 28.5065C19.4827 28.0497 21.3649 24.1869 21.8319 24.3732C22.3007 24.59 21.7385 25.4482 21.5922 25.7958C21.2644 26.5465 20.8908 27.5122 21.1428 27.7003C21.5658 28.0479 22.736 26.4408 22.7625 26.4121C22.981 26.1165 23.6066 24.2102 24.1071 24.4288C24.6094 24.6689 22.8541 27.1897 23.5079 27.7003C23.6419 27.8078 24.1829 27.6465 24.5107 27.2721C24.7222 27.0571 24.6482 26.5196 25.3549 24.8032C26.0669 23.0851 26.7013 20.9405 27.186 21.1017C27.6706 21.263 27.2723 22.3612 27.0961 22.7912C26.2784 24.7226 24.8614 27.8866 25.5276 27.6465C26.1867 27.4047 26.5304 27.4047 27.1895 26.6271C27.8486 25.8495 27.7975 24.5632 28.2452 24.59C28.6681 24.6151 28.6152 25.0451 28.5095 25.3389C28.9325 24.8552 30.5397 23.7838 30.9116 24.8301C31.3592 26.0627 28.6135 27.8615 29.3008 27.754C29.9617 27.6734 31.042 26.9765 31.5179 26.3333L32.785 14.6877C32.785 14.6877 31.4914 15.7627 23.337 15.7627C15.1825 15.7627 14.0247 14.7164 14.0247 14.7164L15.105 25.3407C15.6866 23.6781 17.0577 20.2991 19.1972 20.4317C20.1735 20.4854 21.4936 22.4186 20.3568 22.4723C19.881 22.4992 19.8281 21.5066 19.2747 21.3723C18.8535 21.2898 18.2984 21.6141 17.9301 21.9904C17.2181 22.7142 15.6319 25.5844 15.8434 27.0087C16.1078 28.8326 18.3231 26.3888 18.6932 25.665C18.9558 25.158 19.1408 23.6261 19.6942 23.7874C20.2758 23.9486 19.6431 25.5324 19.2183 26.8994C18.7425 28.4564 18.5064 30.0903 17.9283 29.9022C17.3467 29.7159 18.2966 27.7039 18.242 27.3545C17.6904 27.8902 16.6858 29.182 15.3676 28.5352L16.0267 35.1624C16.0267 35.1624 17.8226 36.5832 23.2048 36.5832C28.5871 36.5832 30.4622 35.1624 30.4622 35.1624L31.3064 27.4889C30.6208 28.1876 28.4566 29.3934 28.3245 28.0264C28.2205 26.9263 30.6737 25.3425 30.041 25.3138L30.1467 25.1902ZM32.9225 4.19771L28.2363 9.21427L27.3798 12.6202C30.6948 12.8352 33 13.3117 33 13.8635C33 14.6142 28.7457 15.2198 23.4991 15.2198C18.2526 15.2198 14 14.6053 14 13.8528C14 13.1021 18.2543 12.484 23.5009 12.484C24.2464 12.484 24.9883 12.484 25.7285 12.5127L26.7172 8.43491L31.6959 3.06898C31.8157 2.90773 32.1893 3.04211 32.5312 3.33772C32.8731 3.60468 33.0582 3.95405 32.9524 4.11529V4.16904L32.9225 4.19771ZM26.1656 14.5802C26.1656 14.5802 25.2439 14.5802 25.0905 14.4369C25.0518 14.3921 25.0271 14.333 25.0271 14.2756C25.0271 14.1717 25.0958 14.1126 25.1857 14.0785L25.2632 14.2129C25.2262 14.2237 25.2121 14.2398 25.2051 14.2541C25.2051 14.3276 25.7585 14.3777 26.1832 14.3724C26.6044 14.367 27.119 14.3312 27.1225 14.2577C27.1225 14.2362 27.082 14.2165 27.015 14.1986L27.0943 14.0696C27.2054 14.1054 27.3005 14.1735 27.3005 14.2864C27.3005 14.4835 27.052 14.5157 26.8952 14.539C26.7066 14.5659 26.1691 14.5802 26.1691 14.5802H26.1656Z" fill="white"/>
</svg>
