<svg width="152" height="26" viewBox="0 0 152 26" fill="none" xmlns="http://www.w3.org/2000/svg">
<path d="M17.943 8.00326C16.5308 6.85994 15.077 5.94952 13.2702 5.63193C9.42818 4.95441 6.70759 7.57981 5.75227 10.3111C4.46466 14.0375 5.60689 18.2085 8.59747 20.0717C11.235 21.702 13.914 21.4479 16.5516 19.987C16.78 19.8599 16.9877 19.5212 17.0085 19.2671C17.0708 18.2297 17.0292 17.2134 17.0292 16.0912C15.3263 16.0912 13.7271 16.0912 12.0657 16.0912C12.0657 14.5244 12.0657 13.0635 12.0657 11.5391C12.2734 11.4968 12.4603 11.4544 12.668 11.4544C15.4716 11.4544 18.2753 11.4756 21.079 11.4332C21.7435 11.4332 21.9927 11.6238 21.972 12.3225C21.9304 15.3502 21.972 18.399 21.9512 21.4267C21.9512 21.7443 21.8058 22.1466 21.5981 22.3371C17.0292 26.4658 9.65663 27.3762 4.67234 23.544C2.2425 21.6808 0.830286 19.1612 0.290321 16.1547C-0.561161 11.5391 0.435696 7.38926 3.77932 4.04398C6.52068 1.27037 9.90584 0.317597 13.7479 0.719877C16.1777 0.973949 18.3791 1.75734 20.2898 3.30294C20.4559 3.42998 20.6221 3.55701 20.7674 3.70522C20.8505 3.76874 20.892 3.8746 21.0166 4.02281C20.0198 5.33551 19.0022 6.64822 17.943 8.00326Z"/>
<path d="M118.604 0C120.204 0 121.72 0 123.381 0C123.381 3.09121 123.381 6.16124 123.381 9.48534C123.963 8.87134 124.316 8.44788 124.71 8.08795C127.389 5.67427 131.668 5.99186 134.347 8.78664C137.856 12.4283 137.836 19.9023 134.388 23.5863C131.771 26.3811 126.6 26.8681 123.963 23.6287C123.859 23.5016 123.713 23.3958 123.443 23.1629C123.402 24.0309 123.381 24.7508 123.34 25.513C121.761 25.513 120.224 25.513 118.604 25.513C118.604 17.044 118.604 8.57492 118.604 0ZM127.659 10.9674C126.392 10.9251 125.375 11.4544 124.586 12.4283C123.111 14.2492 122.924 17.2345 124.108 19.2671C124.959 20.7068 126.185 21.4902 127.867 21.4267C129.549 21.342 130.795 20.4951 131.398 18.9283C131.792 17.8909 132.041 16.684 132 15.5619C131.834 12.8094 129.985 10.9674 127.659 10.9674Z"/>
<path d="M52.8957 17.9756C48.5967 17.9756 44.5885 17.9756 40.4765 17.9756C40.5596 19.4153 41.2449 20.4104 42.3248 21.1303C44.1109 22.316 46.0215 21.956 49.0744 19.9446C49.9051 20.728 50.7566 21.4902 51.5873 22.2948C51.6496 22.3583 51.6911 22.4642 51.7535 22.6124C49.822 25.1531 47.1845 26.1694 44.1316 26C40.0819 25.7671 37.029 23.3111 35.9283 19.5635C34.6823 15.3713 35.9906 10.7345 39.0435 8.27851C42.7817 5.25082 50.3828 5.58959 52.2726 13.0635C52.6465 14.5668 52.688 16.1971 52.8957 17.9756ZM47.8699 14.715C47.5583 12.1108 46.2084 10.6922 44.1316 10.6922C42.1172 10.7134 40.6842 12.2166 40.3934 14.715C42.8648 14.715 45.3362 14.715 47.8699 14.715Z"/>
<path d="M71.1507 17.9968C67.0802 17.9968 63.0512 17.9968 59.0223 17.9968C59.1884 21.2785 63.5081 23.6075 67.5994 19.9023C68.5132 20.7492 69.427 21.6173 70.3407 22.4642C68.0147 25.5554 64.3388 26.6987 60.3929 25.5766C57.0493 24.6238 54.5364 21.4479 54.1418 17.8274C53.768 14.461 54.4949 11.518 56.8001 8.97724C60.2891 5.12382 68.3263 5.31438 70.59 12.1955C71.1922 14.0375 71.3584 15.943 71.1507 17.9968ZM66.3533 14.715C66.3741 12.3649 64.6711 10.6499 62.5113 10.6922C60.476 10.7134 58.7938 13.0424 59.043 14.715C61.4936 14.715 63.9235 14.715 66.3533 14.715Z"/>
<path d="M115.656 25.5342C114.077 25.5342 112.603 25.5342 111.045 25.5342C111.004 24.9414 110.962 24.3485 110.921 23.6498C110.63 23.9039 110.422 24.0733 110.235 24.2427C108.2 26.0423 104.732 26.4234 102.364 25.1319C100.225 23.9674 99.2282 21.6173 99.6851 18.8013C100.038 16.557 101.887 14.8208 104.358 14.355C106.331 13.9739 108.262 14.0798 110.194 14.6515C110.422 14.715 110.651 14.7573 110.879 14.7997C111.232 12.9577 110.048 11.2427 108.2 11.2215C106.269 11.2003 104.337 11.5179 102.219 11.7085C101.907 10.7134 101.513 9.42182 101.077 8.06677C104.482 6.54234 107.93 6.01303 111.46 7.17752C114.181 8.06677 115.489 10.2899 115.593 13.0423C115.78 17.171 115.656 21.2997 115.656 25.5342ZM107.971 17.2557C107.971 17.298 107.971 17.3192 107.951 17.3616C107.535 17.3616 107.099 17.298 106.705 17.3827C105.687 17.5945 104.752 18.0179 104.462 19.1612C104.212 20.0717 104.275 21.0033 105.064 21.6808C106.933 23.2476 110.547 21.956 111.024 19.5635C111.294 18.2296 111.107 17.912 109.778 17.5945C109.197 17.4039 108.574 17.3404 107.971 17.2557Z"/>
<path d="M89.3847 25.5342C87.8686 25.5342 86.3318 25.5342 84.6496 25.5342C84.6496 25.0896 84.6496 24.6873 84.6496 24.285C84.6081 20.8762 84.6081 17.4463 84.4835 14.0375C84.4212 12.3013 83.1751 11.2427 81.576 11.2215C79.9353 11.2003 78.6269 12.3013 78.5231 14.0163C78.3777 16.3665 78.3985 18.7378 78.3569 21.088C78.3362 22.5277 78.3569 23.9675 78.3569 25.5131C76.7371 25.5131 75.1795 25.5131 73.5596 25.5131C73.5596 19.3095 73.5596 13.1271 73.5596 6.85996C75.1172 6.85996 76.654 6.85996 78.2946 6.85996C78.3362 7.62217 78.357 8.40556 78.4193 9.42185C78.8554 8.93488 79.1669 8.57494 79.4784 8.25735C81.3683 6.39416 83.5697 6.0554 85.9788 6.94465C88.3671 7.8339 89.3847 9.86647 89.4678 12.2166C89.6339 16.5782 89.5093 20.9609 89.5093 25.3225C89.4885 25.3648 89.4262 25.4284 89.3847 25.5342Z"/>
<path d="M151.543 8.72311C150.92 9.92995 150.297 11.0944 149.757 12.1319C148.386 11.6238 147.119 11.0521 145.811 10.6922C145.23 10.5228 144.482 10.5863 143.9 10.798C142.862 11.1791 142.737 12.2801 143.651 12.9153C144.274 13.3387 145.001 13.614 145.686 13.9104C146.787 14.3762 147.95 14.7361 149.03 15.2866C151.148 16.3876 152.208 18.3143 151.979 20.4104C151.668 23.184 150.276 24.9837 147.805 25.5554C144.357 26.3599 141.18 25.6189 138.293 23.5651C137.919 23.2899 137.691 23.0358 138.023 22.5277C138.646 21.5961 139.207 20.6221 139.788 19.6694C141.429 20.7915 143.049 21.7655 145.043 21.829C145.562 21.8501 146.123 21.8501 146.559 21.6596C146.933 21.4902 147.369 21.0032 147.389 20.6221C147.41 20.1987 147.14 19.5212 146.787 19.3518C145.707 18.8013 144.565 18.4625 143.423 18.0391C142.883 17.8273 142.322 17.658 141.782 17.4039C139.207 16.1547 138.272 14.2915 138.667 11.285C138.958 9.14657 140.848 7.24103 143.174 6.77523C145.956 6.1824 148.864 6.85992 151.543 8.72311Z"/>
<path d="M24.7549 6.79643C26.4163 6.79643 27.9739 6.79643 29.6561 6.79643C29.6561 7.91858 29.6561 8.99839 29.6561 10.0994C30.9229 7.89741 32.4805 6.30946 35.2219 6.52119C35.2219 8.32086 35.2219 10.0782 35.2219 11.9202C34.6819 11.9837 34.1004 11.9837 33.5605 12.1319C31.1929 12.7248 29.7184 14.8209 29.6976 17.7003C29.6769 20.2622 29.6976 22.8453 29.6976 25.4919C28.057 25.4919 26.4578 25.4919 24.7757 25.4919C24.7549 19.3095 24.7549 13.1059 24.7549 6.79643Z"/>
<path d="M97.3799 25.5342C95.76 25.5342 94.2232 25.5342 92.624 25.5342C92.624 17.0228 92.624 8.53258 92.624 0.0211792C94.2024 0.0211792 95.76 0.0211792 97.3799 0.0211792C97.3799 8.51141 97.3799 16.9805 97.3799 25.5342Z"/>
</svg>
