<svg width="88" height="30" viewBox="0 0 88 30" fill="none" xmlns="http://www.w3.org/2000/svg">
<path d="M86.6131 3.05225H83.8438V21.8547H86.6131V3.05225Z"/>
<path fill-rule="evenodd" clip-rule="evenodd" d="M80.8581 21.8534H78.0887V8.52923H80.8581V21.8534ZM79.4734 2.5835C80.5054 2.5835 81.3433 3.42141 81.3433 4.45341C81.3433 5.48541 80.5054 6.32332 79.4734 6.32332C78.4414 6.32332 77.6035 5.48541 77.6035 4.45341C77.6035 3.42141 78.4414 2.5835 79.4734 2.5835Z"/>
<path fill-rule="evenodd" clip-rule="evenodd" d="M75.0866 21.853H72.3652V20.3952C71.3896 21.5003 69.671 22.1952 68.0546 22.1952C64.1896 22.1952 61.0508 19.0564 61.0508 15.1904C61.0508 11.3253 64.1896 8.18652 68.0546 8.18652C69.671 8.18652 71.2988 8.79592 72.3652 9.87174V8.52878H75.0866V21.853ZM68.1433 10.9862C70.5266 10.9862 72.4017 12.6912 72.4017 15.1904C72.4017 17.6895 70.5266 19.4102 68.1433 19.4102C65.76 19.4102 63.9485 17.5747 63.9485 15.1904C63.9485 12.807 65.76 10.9862 68.1433 10.9862Z"/>
<path fill-rule="evenodd" clip-rule="evenodd" d="M40.7166 21.853H37.9941V8.52878H40.7166V9.45957C41.3208 8.89087 42.454 8.18861 44.0254 8.18652C45.958 8.18652 47.398 8.99939 48.3841 10.3069C49.463 9.01192 51.2421 8.18652 53.0547 8.18652C56.4564 8.18652 58.775 10.4832 58.775 14.0623V21.853H56.0526V14.0623C56.0526 12.3239 54.6376 10.909 52.8992 10.909C51.1597 10.909 49.7458 12.3239 49.7458 14.0623V21.853H47.0234V14.0623C47.0234 12.3239 45.6084 10.909 43.87 10.909C42.1315 10.909 40.7166 12.3239 40.7166 14.0623V21.853Z"/>
<path d="M19.702 14.9583C19.702 17.3813 17.7309 19.3524 15.3079 19.3524C12.885 19.3524 10.9138 17.3813 10.9138 14.9583C10.9138 12.5353 12.885 10.5642 15.3079 10.5642C17.7309 10.5642 19.702 12.5353 19.702 14.9583ZM15.3079 0.349609C7.25226 0.349609 0.699219 6.90265 0.699219 14.9583C0.699219 23.014 7.25226 29.567 15.3079 29.567C18.2589 29.567 21.1044 28.6884 23.5368 27.0261L23.5785 26.9969L21.6105 24.7096L21.5771 24.7305C19.7051 25.9357 17.5368 26.5722 15.3079 26.5722C8.90409 26.5722 3.694 21.3621 3.694 14.9583C3.694 8.55448 8.90409 3.34439 15.3079 3.34439C21.7117 3.34439 26.9218 8.55448 26.9218 14.9583C26.9218 15.7879 26.829 16.6279 26.6484 17.4543C26.2811 18.9621 25.2251 19.4234 24.4331 19.3628C23.6359 19.2981 22.703 18.7305 22.6968 17.3406V16.2814V14.9583C22.6968 10.8835 19.3827 7.56944 15.3079 7.56944C11.2331 7.56944 7.91904 10.8835 7.91904 14.9583C7.91904 19.0331 11.2331 22.3472 15.3079 22.3472C17.2874 22.3472 19.1437 21.574 20.543 20.1663C21.357 21.4331 22.6832 22.2272 24.1931 22.3482C24.3225 22.3587 24.455 22.3639 24.5855 22.3639C25.6488 22.3639 26.7017 22.008 27.551 21.3642C28.4265 20.6985 29.0808 19.7374 29.4418 18.5823C29.4992 18.3955 29.6056 17.9687 29.6056 17.9656L29.6088 17.95C29.8217 17.0234 29.9166 16.0999 29.9166 14.9583C29.9166 6.90265 23.3636 0.349609 15.3079 0.349609Z"/>
</svg>
