<svg width="145" height="16" viewBox="0 0 145 16" fill="none" xmlns="http://www.w3.org/2000/svg">
<path d="M102.325 15.1852C101.391 15.1852 100.456 15.1852 99.3661 15.1852C96.7962 12.1481 94.1486 8.95533 91.423 5.76253C91.3451 5.76253 91.2672 5.8404 91.1894 5.8404C91.1894 8.87746 91.1894 11.9924 91.1894 15.1073C90.0213 15.1073 88.931 15.1073 87.8408 15.1073C87.8408 10.2013 87.8408 5.29529 87.8408 0.311401C88.8532 0.311401 89.7876 0.311401 90.8 0.311401C93.3698 3.42633 96.0175 6.54126 98.8988 9.88981C98.8988 6.54126 98.8988 3.42633 98.8988 0.311401C100.145 0.311401 101.157 0.311401 102.325 0.311401C102.325 5.37316 102.325 10.2792 102.325 15.1852Z"/>
<path d="M42.8299 9.18904C44.3095 11.2137 45.7891 13.1606 47.3465 15.1853C45.8669 15.1853 44.621 15.1853 43.2192 15.1853C41.9733 13.3942 40.7273 11.5252 39.4035 9.65627C39.3256 9.65627 39.2477 9.65627 39.1698 9.65627C39.1698 11.4474 39.1698 13.2384 39.1698 15.1074C38.0017 15.1074 36.9894 15.1074 35.8213 15.1074C35.8213 10.2014 35.8213 5.29537 35.8213 0.389357C38.0017 0.389357 40.2601 0.23361 42.3626 0.46723C44.4652 0.70085 45.7891 2.25832 45.9448 4.20515C46.1784 6.46347 45.3997 7.86519 43.2971 8.79967C43.2971 8.95542 43.1414 9.03329 42.8299 9.18904ZM39.1698 7.00858C40.3379 7.16433 41.5839 7.32008 42.2069 6.15198C42.5184 5.52899 42.5184 4.43877 42.2069 3.89365C41.5839 2.80343 40.3379 2.95917 39.1698 3.11492C39.1698 4.43877 39.1698 5.68474 39.1698 7.00858Z"/>
<path d="M0 0.389275C1.1681 0.389275 2.10258 0.389275 3.27068 0.389275C3.27068 2.33611 3.27068 4.28294 3.27068 6.1519C3.34855 6.1519 3.42642 6.22977 3.58217 6.30764C5.21751 4.28294 6.85285 2.33611 8.48818 0.311401C9.81203 0.311401 11.058 0.311401 12.6155 0.311401C10.5129 2.80335 8.56606 5.06167 6.61923 7.39787C8.79968 9.96768 10.8244 12.5375 13.0827 15.1852C11.5252 15.1852 10.2793 15.1852 8.7218 15.1852C7.08647 13.1605 5.29538 10.98 3.58217 8.87746C3.5043 8.87746 3.42642 8.95533 3.27068 8.95533C3.27068 10.98 3.27068 13.0826 3.27068 15.1852C2.10258 15.1852 1.09023 15.1852 0 15.1852C0 10.2792 0 5.37316 0 0.389275Z"/>
<path d="M22.4276 0.311401C23.5179 0.311401 24.5302 0.311401 25.5426 0.311401C27.4894 5.21742 29.4362 10.2013 31.3831 15.1852C30.1371 15.1852 29.0469 15.1852 27.8788 15.1852C27.4894 14.2507 27.1 13.3941 26.7107 12.4596C24.7638 12.4596 22.8949 12.4596 21.0259 12.4596C20.6365 13.3941 20.2472 14.2507 19.8578 15.1852C18.7676 15.1852 17.6774 15.1852 16.3535 15.1852C18.4561 10.2013 20.4808 5.29529 22.4276 0.311401ZM25.9319 9.81194C25.3089 8.09873 24.7638 6.54126 24.2187 5.06167C24.1408 5.06167 23.9851 5.06167 23.9072 5.13954C23.3621 6.69701 22.817 8.1766 22.194 9.81194C23.44 9.81194 24.6081 9.81194 25.9319 9.81194Z"/>
<path d="M60.0405 9.03321C58.483 9.03321 57.0034 9.03321 55.4459 9.03321C55.4459 10.1234 55.4459 11.2137 55.4459 12.3818C57.0813 12.3818 58.6388 12.3818 60.2741 12.3818C60.2741 13.3941 60.2741 14.2507 60.2741 15.1852C57.5485 15.1852 54.823 15.1852 52.0195 15.1852C52.0195 10.2792 52.0195 5.37317 52.0195 0.389282C54.7451 0.389282 57.4707 0.389282 60.2741 0.389282C60.2741 1.24589 60.2741 2.10249 60.2741 3.11485C58.6388 3.11485 57.0813 3.11485 55.4459 3.11485C55.4459 4.1272 55.4459 4.9838 55.4459 6.07403C56.9255 6.07403 58.483 6.07403 60.0405 6.07403C60.0405 7.16426 60.0405 8.02086 60.0405 9.03321Z"/>
<path d="M145 0.934418C145 1.8689 145 2.80338 145 3.73786C145 3.97147 144.922 4.12722 144.922 4.51659C143.521 3.27062 141.963 2.80338 140.328 3.27062C139.471 3.50424 138.693 4.04935 138.07 4.75021C136.59 6.38555 136.668 9.11111 137.992 10.7464C139.471 12.6154 141.73 12.7712 144.922 11.1358C144.922 12.3039 144.922 13.472 144.922 14.6401C142.353 16.3533 137.836 15.5746 135.578 13.0826C133.008 10.2013 132.852 5.76256 135.266 2.80338C137.524 -6.15292e-05 141.807 -0.856667 145 0.934418Z"/>
<path d="M129.036 14.718C126.077 16.4312 121.794 15.5746 119.536 13.0048C117.044 10.1235 116.888 5.91833 119.146 2.95915C121.405 0.0778385 125.454 -0.856641 128.958 0.856571C128.958 2.02467 128.958 3.19277 128.958 4.36087C125.688 2.64766 123.585 2.8034 122.028 4.82811C120.626 6.61919 120.704 9.26688 122.105 10.9801C123.663 12.7712 125.999 12.8491 128.958 11.2137C128.958 11.8367 128.958 12.3818 128.958 13.0048C129.036 13.472 129.036 14.095 129.036 14.718Z"/>
<path d="M73.8242 15.2631C71.1765 15.2631 68.6067 15.2631 65.959 15.2631C65.959 10.2792 65.959 5.37318 65.959 0.467163C66.9713 0.467163 67.9837 0.467163 69.2297 0.467163C69.2297 4.4387 69.2297 8.33236 69.2297 12.4596C70.865 12.4596 72.3446 12.4596 73.9021 12.4596C73.8242 13.3941 73.8242 14.2507 73.8242 15.2631Z"/>
<path d="M81.7668 15.1852C80.5987 15.1852 79.5863 15.1852 78.4961 15.1852C78.4961 10.2013 78.4961 5.29529 78.4961 0.311401C79.5863 0.311401 80.5987 0.311401 81.7668 0.311401C81.7668 5.29529 81.7668 10.2013 81.7668 15.1852Z"/>
<path d="M112.839 13.5499C112.839 14.6401 112.06 15.4967 110.892 15.5746C109.802 15.5746 108.867 14.7959 108.867 13.7056C108.867 12.6154 109.724 11.6809 110.814 11.6809C111.904 11.6031 112.839 12.4597 112.839 13.5499Z"/>
</svg>
