<svg width="130" height="30" viewBox="0 0 130 30" fill="none" xmlns="http://www.w3.org/2000/svg">
<path fill-rule="evenodd" clip-rule="evenodd" d="M127.363 24.2456C125.99 24.2456 124.728 25.3491 124.728 26.6793C124.728 28.1167 125.99 29.2257 127.363 29.2257C128.738 29.2257 130 28.1167 130 26.6793C130 25.3491 128.738 24.2456 127.363 24.2456ZM5.51667 1.7659L13.8887 18.0275C14.396 19.0075 14.834 19.9463 15.2036 20.8406C15.569 21.7404 15.9679 22.6499 16.4004 23.5832H16.5533C16.4514 22.4786 16.382 21.3003 16.343 20.0504C16.3061 18.8005 16.2888 17.5376 16.2888 16.2617V1.7659H20.626V28.9547H14.8795L6.92375 13.6838C6.49447 12.9001 6.04351 12.0046 5.57412 10.9976C5.10582 9.99375 4.65269 8.96391 4.22341 7.91022H4.07056C4.17246 9.18505 4.24726 10.4371 4.29821 11.6632C4.35024 12.8881 4.37518 14.1044 4.37518 15.3066V28.9547H0V1.7659H5.51667ZM24.8451 17.3067C24.8451 14.3613 25.6342 12.1531 27.2061 10.6908C28.7769 9.22842 30.9352 8.49669 33.6756 8.49669C39.1294 8.49669 41.8558 11.4648 41.8558 17.3966V19.7956H29.488V20.9707C29.488 24.0591 30.8842 25.6039 33.6756 25.6039C34.9418 25.6039 35.8567 25.3676 36.4161 24.8917C36.9722 24.4125 37.2757 23.8293 37.3299 23.141H41.5913C41.3105 25.0543 40.5625 26.5589 39.3452 27.6473C38.1267 28.7411 36.273 29.2842 33.7895 29.2842C27.8273 29.2842 24.8451 26.3486 24.8451 20.4742V17.3067ZM37.4438 16.5186C37.4438 14.9001 37.1446 13.7716 36.5494 13.1331C35.9521 12.4957 34.9689 12.1759 33.5976 12.1759C32.1536 12.1759 31.1119 12.5326 30.4788 13.2437C29.8446 13.9559 29.527 15.0443 29.527 16.5186H37.4438ZM51.1189 3.64345V8.86851H55.3065V12.0285H51.1189V24.6857C51.1189 25.4966 51.4745 25.8998 52.1834 25.8998C52.8458 25.8998 53.4095 25.838 53.8767 25.7177C54.3461 25.5941 54.9119 25.399 55.5721 25.1269L56.8665 28.2186C56.2561 28.5384 54.3298 29.2842 52.1466 29.2842C48.3676 29.2842 46.477 27.5075 46.477 23.9518V12.0285H44.3827V8.86851H46.477V5.20663L51.1189 3.64345ZM64.4981 28.9547H59.8552V10.5249C61.1506 9.79103 64.3973 8.11944 70.6272 8.60943V12.6204C67.2017 12.4046 65.0564 12.9282 64.4981 13.0973V28.9547ZM104.61 14.0513C104.901 11.9624 105.715 8.53355 112.829 8.53355C119.204 8.53355 120.083 11.6025 120.364 12.5076C120.643 13.4171 120.782 14.4947 120.782 15.7457V27.6679C118.173 28.6175 116.923 29.2842 110.813 29.2842C108.527 29.2842 106.836 28.8007 105.731 27.8316C104.628 26.8614 104.075 25.3145 104.075 23.1778V22.3301C104.075 20.2715 104.628 18.8124 105.731 17.9549C106.836 17.0985 108.527 16.666 110.813 16.666C112.409 16.666 113.62 16.7267 114.446 16.8481C115.269 16.9739 115.861 17.0985 116.216 17.2178V15.0833C116.216 14.1033 115.943 13.3619 115.397 12.8589C114.853 12.3548 113.957 12.1055 112.715 12.1055C111.571 12.1055 110.678 12.2464 110.03 12.5271C109.385 12.8068 108.997 13.3163 108.87 14.0513H104.61ZM108.679 23.8044C108.679 25.1497 109.377 25.825 110.773 25.825C112.374 25.825 113.576 25.7795 114.389 25.6809C115.2 25.5833 115.81 25.4478 116.216 25.2754V20.42C115.708 20.2715 115.037 20.149 114.197 20.0504C113.36 19.9528 112.219 19.9051 110.773 19.9051C109.377 19.9051 108.679 20.4894 108.679 21.6721V23.8044ZM78.6502 28.9547H74.0094V8.86743H78.6502V28.9547ZM76.3282 0.571288C74.9558 0.571288 73.694 1.67592 73.694 3.00387C73.694 4.44347 74.9558 5.55244 76.3282 5.55244C77.7028 5.55244 78.9646 4.44347 78.9646 3.00387C78.9646 1.67592 77.7028 0.571288 76.3282 0.571288ZM100.483 24.7226C100.24 24.0873 99.867 23.4228 99.3597 22.7366C99.3597 22.7366 95.236 17.4639 94.9845 17.2178V17.1105C95.236 16.963 97.0788 15.5375 97.9125 14.8275C98.8512 14.0394 99.5233 13.2242 99.932 12.3775C100.337 11.5342 100.54 10.5976 100.54 9.56555V8.90429H96.049V10.0057C96.049 10.8642 95.7336 11.5656 95.0994 12.1055L90.4955 16.1131C89.7583 16.7506 89.2055 17.2362 88.838 17.5679C88.4683 17.8996 88.1854 18.1858 87.9816 18.433V0L83.3376 1.51006V28.9536H87.9816V22.8027C88.6049 22.4006 89.2304 21.9583 89.8657 21.4477C90.5367 20.9078 91.2294 20.3203 91.9405 19.684C92.0153 19.929 92.2321 20.2845 92.5855 20.7539C92.9389 21.2179 93.4083 21.8781 93.9948 22.7366L95.5157 25.0185C96.0219 25.7307 96.2777 26.4895 96.2777 27.3004V28.9536H100.844V27.0034C100.844 26.121 100.723 25.3632 100.483 24.7226Z"/>
</svg>
