<svg width="60" height="60" viewBox="0 0 60 60" fill="none" xmlns="http://www.w3.org/2000/svg">
<path class="bg" fill-rule="evenodd" clip-rule="evenodd" d="M20.7904 0H39.2096C56.0198 0 60 3.98024 60 20.7904V39.2096C60 56.0198 56.0198 60 39.2096 60H20.7904C3.98024 60 0 56.0198 0 39.2096V20.7904C0 3.98024 3.98024 0 20.7904 0Z" fill="black"/>
<path class="text" fill-rule="evenodd" clip-rule="evenodd" d="M49.1179 20.6631C49.4143 19.7315 49.1179 19.0541 47.8052 19.0541H43.4439C42.343 19.0541 41.8349 19.6469 41.5385 20.282C41.5385 20.282 39.2943 25.7019 36.1609 29.2164C35.1447 30.2326 34.6789 30.5714 34.1284 30.5714C33.832 30.5714 33.451 30.2326 33.451 29.3011V20.6207C33.451 19.5198 33.1122 19.0117 32.1807 19.0117H25.3211C24.6436 19.0117 24.2202 19.5198 24.2202 20.0279C24.2202 21.0865 25.7869 21.3406 25.9563 24.3046V30.7407C25.9563 32.138 25.7022 32.3921 25.1517 32.3921C23.6697 32.3921 20.0706 26.9299 17.9111 20.7054C17.4877 19.4775 17.0642 19.0117 15.9633 19.0117H11.5596C10.2894 19.0117 10.0776 19.6045 10.0776 20.2397C10.0776 21.3829 11.5596 27.1416 16.9795 34.7633C20.5787 39.9715 25.7022 42.7661 30.3176 42.7661C33.1122 42.7661 33.451 42.131 33.451 41.0724V37.1345C33.451 35.8642 33.705 35.6525 34.5942 35.6525C35.2294 35.6525 36.3726 35.9913 38.9555 38.4895C41.9196 41.4535 42.4277 42.8085 44.079 42.8085H48.4404C49.7107 42.8085 50.3035 42.1733 49.9647 40.9454C49.5836 39.7174 48.144 37.939 46.2809 35.8219C45.2646 34.6363 43.7403 33.3236 43.2745 32.6885C42.6394 31.8416 42.8088 31.5029 43.2745 30.7407C43.2322 30.7407 48.5674 23.2037 49.1179 20.6631Z" fill="white"/>
</svg>
