<svg width="146" height="99" viewBox="0 0 146 99" fill="none" xmlns="http://www.w3.org/2000/svg">
<path fill-rule="evenodd" clip-rule="evenodd" d="M48.6768 50.0985H97.3533V48.5122H48.6768V50.0985Z"/>
<path fill-rule="evenodd" clip-rule="evenodd" d="M0 50.0985H48.677V48.5127H0V50.0985Z"/>
<path fill-rule="evenodd" clip-rule="evenodd" d="M47.8896 98.3519H49.4635V49.3052H47.8896V98.3519Z"/>
<path fill-rule="evenodd" clip-rule="evenodd" d="M47.8896 49.3051H49.4635V0.258789H47.8896V49.3051Z"/>
<path fill-rule="evenodd" clip-rule="evenodd" d="M2.10876 97.3482L0.996094 96.227L32.2301 64.7554L33.3427 65.877L2.10876 97.3482Z"/>
<path fill-rule="evenodd" clip-rule="evenodd" d="M48.1196 49.8662L0.995117 2.38381L2.10825 1.2627L49.2323 48.7451L48.1196 49.8662Z"/>
<path fill-rule="evenodd" clip-rule="evenodd" d="M69.143 8.55827C71.1874 8.95099 72.3942 9.79487 72.3942 11.4228C72.3942 13.0708 71.1094 14.5421 68.7342 14.5421C66.6119 14.5421 65.2097 13.247 64.626 11.7168L65.8913 10.9323C66.378 12.2667 67.313 13.2078 68.7342 13.2078C70.0385 13.2078 70.8756 12.5607 70.8756 11.4817C70.8756 10.5205 70.0775 10.0492 68.4029 9.73596C66.6509 9.40215 65.1707 8.55827 65.1707 6.89109C65.1707 5.22344 66.7288 4.26222 68.5004 4.26222C70.4867 4.26222 71.6546 5.1449 72.2583 6.61665L71.0899 7.30251C70.5642 6.00841 69.5907 5.55678 68.5198 5.55678C67.4489 5.55678 66.5729 5.96914 66.5729 6.83218C66.5729 7.83268 67.6048 8.2642 69.143 8.55827ZM82.7817 14.2672H81.2631V7.97013C81.2631 6.4203 80.2701 5.63533 78.9073 5.63533C77.4272 5.63533 76.0255 6.87145 76.0255 8.87245V14.2672H74.5073V0.534668H76.0255V6.24357C76.6486 5.04672 77.9529 4.26222 79.3161 4.26222C81.1072 4.26222 82.7817 5.32162 82.7817 7.69523V14.2672Z"/>
<path fill-rule="evenodd" clip-rule="evenodd" d="M85.4103 14.2669H86.929V4.53689H85.4103V14.2669ZM85.2549 2.8496H87.0849V0.927152H85.2549V2.8496ZM93.4223 8.55827C95.4667 8.95099 96.674 9.79487 96.674 11.4228C96.674 13.0708 95.3887 14.5421 93.0135 14.5421C90.8912 14.5421 89.4895 13.247 88.9053 11.7168L90.1711 10.9323C90.6578 12.2667 91.5923 13.2078 93.0135 13.2078C94.3178 13.2078 95.1553 12.5607 95.1553 11.4817C95.1553 10.5205 94.3568 10.0492 92.6827 9.73596C90.9302 9.40215 89.4505 8.55827 89.4505 6.89109C89.4505 5.22344 91.0081 4.26222 92.7797 4.26222C94.766 4.26222 95.9339 5.1449 96.5376 6.61665L95.3692 7.30251C94.8435 6.00841 93.8701 5.55678 92.7992 5.55678C91.7287 5.55678 90.8522 5.96914 90.8522 6.83218C90.8522 7.83268 91.8841 8.2642 93.4223 8.55827ZM107.061 14.2672H105.542V7.97013C105.542 6.4203 104.549 5.63533 103.186 5.63533C101.707 5.63533 100.305 6.87145 100.305 8.87245V14.2672H98.7866V0.534668H100.305V6.24357C100.928 5.04672 102.233 4.26222 103.595 4.26222C105.387 4.26222 107.061 5.32162 107.061 7.69523V14.2672Z"/>
<path fill-rule="evenodd" clip-rule="evenodd" d="M111.241 8.18566L114.921 4.53665H116.732L113.403 7.85231L117.394 14.2672H115.661L112.351 8.93135L111.241 10.0492V14.2672H109.723V0.534668H111.241V8.18566Z"/>
<path fill-rule="evenodd" clip-rule="evenodd" d="M119.005 14.267H120.523V4.53698H119.005V14.267ZM118.849 2.84969H120.679V0.927246H118.849V2.84969Z"/>
<path fill-rule="evenodd" clip-rule="evenodd" d="M61.5107 32.7848H63.3407V30.8623H61.5107V32.7848Z"/>
<path fill-rule="evenodd" clip-rule="evenodd" d="M74.2757 30.2541C73.3801 32.0391 71.881 33.0593 69.934 33.0593C67.1496 33.0593 64.9883 30.9213 64.9883 27.9193C64.9883 24.9179 67.2665 22.7799 69.934 22.7799C72.0169 22.7799 73.5356 23.7799 74.2172 25.4476L73.0683 26.2124C72.3482 24.6631 71.2188 24.1525 69.9535 24.1525C68.0256 24.1525 66.507 25.6046 66.507 27.9193C66.507 30.2345 67.9671 31.6862 69.9535 31.6862C71.5692 31.6862 72.4846 30.8624 73.1853 29.5477L74.2757 30.2541ZM84.0457 27.9193C84.0457 25.742 82.527 24.1524 80.5606 24.1524C78.5937 24.1524 77.0755 25.742 77.0755 27.9193C77.0755 30.097 78.5937 31.6861 80.5606 31.6861C82.527 31.6861 84.0457 30.097 84.0457 27.9193ZM80.5606 33.0592C78.1464 33.0592 75.5179 31.2349 75.5179 27.9193C75.5179 24.6041 78.1464 22.7798 80.5606 22.7798C82.9748 22.7798 85.6033 24.6041 85.6033 27.9193C85.6033 31.2349 82.9748 33.0592 80.5606 33.0592Z"/>
<path fill-rule="evenodd" clip-rule="evenodd" d="M87.6855 32.7852H89.2042V19.0522H87.6855V32.7852Z"/>
<path fill-rule="evenodd" clip-rule="evenodd" d="M91.8506 32.7852H93.3692V19.0522H91.8506V32.7852Z"/>
<path fill-rule="evenodd" clip-rule="evenodd" d="M97.1 26.9191H103.447C103.35 25.0752 101.792 24.0742 100.313 24.0742C98.5797 24.0742 97.4503 25.2519 97.1 26.9191ZM96.9835 28.1749C97.0805 30.2151 98.3073 31.7645 100.313 31.7645C102.065 31.7645 102.941 30.8037 103.564 29.548L104.674 30.2151C103.778 32.0001 102.435 33.0595 100.254 33.0595C97.6257 33.0595 95.4648 30.9215 95.4648 27.9196C95.4648 24.9181 97.6257 22.7797 100.313 22.7797C103.214 22.7797 104.966 24.8003 104.966 27.6452V28.1749H96.9835ZM115.725 30.2543C114.829 32.0393 113.33 33.0594 111.383 33.0594C108.599 33.0594 106.438 30.9215 106.438 27.9195C106.438 24.918 108.716 22.78 111.383 22.78C113.466 22.78 114.985 23.7801 115.667 25.4477L114.518 26.2126C113.798 24.6632 112.668 24.1527 111.403 24.1527C109.475 24.1527 107.956 25.6048 107.956 27.9195C107.956 30.2347 109.417 31.6863 111.403 31.6863C113.019 31.6863 113.934 30.8625 114.635 29.5479L115.725 30.2543ZM116.755 23.0543H118.371V20.4254H119.89V23.0543H122.109V24.2708H119.89V30.1559C119.89 31.1957 120.084 31.7254 121.213 31.7254C121.428 31.7254 121.739 31.667 121.934 31.6076L122.07 32.883C121.739 33.0008 121.369 33.0592 120.785 33.0592C119.539 33.0592 118.371 32.4318 118.371 30.4505V24.2708H116.755V23.0543ZM123.811 32.7846H125.329V23.0541H123.811V32.7846ZM123.655 21.3673H125.485V19.4448H123.655V21.3673Z"/>
<path fill-rule="evenodd" clip-rule="evenodd" d="M132.172 32.7847H130.654L126.76 23.0542H128.395L131.413 31.0194L134.431 23.0542H136.067L132.172 32.7847Z"/>
<path fill-rule="evenodd" clip-rule="evenodd" d="M138.135 26.9187H144.482C144.385 25.0748 142.827 24.0739 141.347 24.0739C139.614 24.0739 138.485 25.2516 138.135 26.9187ZM138.018 28.1745C138.115 30.2148 139.342 31.7641 141.347 31.7641C143.099 31.7641 143.975 30.8034 144.599 29.5476L145.708 30.2148C144.813 31.9998 143.469 33.0592 141.289 33.0592C138.66 33.0592 136.499 30.9212 136.499 27.9192C136.499 24.9177 138.66 22.7793 141.347 22.7793C144.248 22.7793 146 24.7999 146 27.6448V28.1745H138.018Z"/>
</svg>
