<svg width="135" height="33" viewBox="0 0 135 33" fill="none" xmlns="http://www.w3.org/2000/svg">
<path d="M44.5495 19.5702C44.5495 18.8936 44.3658 18.3039 43.9985 17.8012C43.6311 17.2986 43.1575 16.8926 42.5775 16.5832C41.9975 16.2546 41.3498 15.9452 40.6345 15.6552C39.9385 15.3652 39.2328 15.0559 38.5175 14.7272C37.8215 14.3792 37.1835 13.9926 36.6035 13.5672C36.0235 13.1419 35.5498 12.5812 35.1825 11.8852C34.8151 11.1892 34.6315 10.3869 34.6315 9.47823C34.6315 7.98956 35.1825 6.7329 36.2845 5.70823C37.4058 4.68356 38.8945 4.17123 40.7505 4.17123C41.8911 4.17123 42.9641 4.36456 43.9695 4.75123C44.9748 5.1379 45.7675 5.65023 46.3475 6.28823L45.0135 8.14423C43.9115 7.04223 42.5388 6.49123 40.8955 6.49123C39.7741 6.49123 38.8848 6.7619 38.2275 7.30323C37.5701 7.84456 37.2415 8.56956 37.2415 9.47823C37.2415 10.1549 37.4251 10.7446 37.7925 11.2472C38.1598 11.7499 38.6335 12.1559 39.2135 12.4652C39.7935 12.7746 40.4315 13.0742 41.1275 13.3642C41.8428 13.6349 42.5485 13.9346 43.2445 14.2632C43.9598 14.5919 44.6075 14.9689 45.1875 15.3942C45.7675 15.8002 46.2411 16.3609 46.6085 17.0762C46.9758 17.7916 47.1595 18.6132 47.1595 19.5412C47.1595 21.2039 46.5215 22.5379 45.2455 23.5432C44.0081 24.5486 42.4421 25.0512 40.5475 25.0512C39.2135 25.0512 37.9375 24.7806 36.7195 24.2392C35.5015 23.6979 34.6411 22.9536 34.1385 22.0062L35.5595 20.3242C36.1201 21.0589 36.8645 21.6486 37.7925 22.0932C38.7205 22.5186 39.6485 22.7312 40.5765 22.7312C41.7171 22.7312 42.6645 22.4509 43.4185 21.8902C44.1725 21.3102 44.5495 20.5369 44.5495 19.5702ZM54.6145 16.9602V24.7612H52.1495V4.46123C52.9615 4.46123 53.8218 4.45156 54.7305 4.43223C55.6392 4.4129 56.5478 4.40323 57.4565 4.40323C60.1245 4.40323 62.0385 5.00256 63.1985 6.20123C64.3778 7.38056 64.9675 8.8789 64.9675 10.6962C64.9675 12.4556 64.3295 13.9636 63.0535 15.2202C61.8162 16.4576 60.0182 17.0762 57.6595 17.0762C56.4222 17.0762 55.4072 17.0376 54.6145 16.9602ZM57.6885 6.72323C57.3405 6.72323 56.3158 6.74256 54.6145 6.78123V14.6112C55.8325 14.7079 56.8185 14.7562 57.5725 14.7562C59.0612 14.7562 60.2308 14.3986 61.0815 13.6832C61.9322 12.9486 62.3575 11.9432 62.3575 10.6672C62.3575 9.41056 61.9612 8.4439 61.1685 7.76723C60.3952 7.07123 59.2352 6.72323 57.6885 6.72323ZM81.6982 24.7612H69.9532V4.46123H81.4082V6.78123H72.4182V13.3352H80.5382V15.6552H72.4182V22.4412H81.6982V24.7612ZM101.257 20.9332L102.243 22.7892C101.566 23.4852 100.648 24.0362 99.4879 24.4422C98.3279 24.8482 97.1099 25.0512 95.8339 25.0512C92.7985 25.0512 90.3142 24.1039 88.3809 22.2092C86.4862 20.2759 85.5389 17.7432 85.5389 14.6112C85.5389 11.5952 86.4475 9.1109 88.2649 7.15823C90.0822 5.1669 92.5472 4.17123 95.6599 4.17123C98.2312 4.17123 100.29 4.82856 101.837 6.14323L100.706 7.99923C99.3525 6.9939 97.6802 6.49123 95.6889 6.49123C93.4849 6.49123 91.6772 7.24523 90.2659 8.75323C88.8545 10.2419 88.1489 12.1946 88.1489 14.6112C88.1489 17.0279 88.8739 18.9902 90.3239 20.4982C91.8125 21.9869 93.7265 22.7312 96.0659 22.7312C98.0379 22.7312 99.7682 22.1319 101.257 20.9332ZM109.71 24.7612H107.245V4.46123H109.71V24.7612ZM116.763 24.7612H114.269L122.998 4.34523H125.115L133.844 24.7612H131.205L128.595 18.6132H119.344L116.763 24.7612ZM127.638 16.2932L123.984 7.62223L120.33 16.2932H127.638Z"/>
<circle cx="17.0074" cy="14.7096" r="1.69786"/>
<circle cx="7.47325" cy="14.7096" r="1.69786"/>
<circle cx="12.2418" cy="6.37022" r="1.69786"/>
<circle cx="2.68565" cy="23.0636" r="1.69786"/>
<circle cx="12.2301" cy="22.9693" r="1.69786"/>
<circle cx="21.7955" cy="23.0318" r="1.69786"/>
</svg>
