<svg width="120" height="28" viewBox="0 0 120 28" fill="none" xmlns="http://www.w3.org/2000/svg">
<path d="M26.2128 7.94012C24.9633 6.30951 23.3035 5.03964 21.4028 4.26013C19.6177 3.51428 17.6973 3.14655 15.7628 3.18012C14.1465 3.16608 12.5387 3.41604 11.0028 3.92012C9.62419 4.38569 8.338 5.08971 7.20285 6.00012C5.99629 6.94736 5.0292 8.16486 4.37956 9.55447C3.72992 10.9441 3.41591 12.4669 3.46285 14.0001C3.44177 15.5018 3.73825 16.991 4.33285 18.3701C4.89892 19.647 5.73873 20.7838 6.79285 21.7001C7.92319 22.6866 9.23882 23.4379 10.6628 23.9101C12.3064 24.4581 14.0305 24.7252 15.7628 24.7001C18.5419 24.7814 21.2832 24.0404 23.6428 22.5701C25.7076 21.2242 27.1893 19.1497 27.7928 16.7601H14.2428V13.5801H31.5128C31.5733 15.3221 31.3019 17.0597 30.7128 18.7001C30.2521 19.9791 29.5757 21.1696 28.7128 22.2201C27.2397 24.0303 25.3535 25.4604 23.2128 26.3901C20.8539 27.3874 18.3137 27.8845 15.7528 27.8501C13.7154 27.8605 11.6895 27.5431 9.75285 26.9101C7.96933 26.3381 6.31255 25.4282 4.87285 24.2301C3.31877 23.01 2.06977 21.4452 1.22456 19.6593C0.379346 17.8735 -0.0389106 15.9155 0.00284584 13.9401C-0.0339466 11.9729 0.383632 10.0237 1.22309 8.24416C2.06256 6.46464 3.30126 4.90279 4.84285 3.68012C6.30697 2.5017 7.96972 1.59412 9.75285 1.00012C11.6838 0.337487 13.7113 -0.000427956 15.7528 0.000124715C18.2703 -0.0090765 20.7636 0.490946 23.0828 1.47012C25.3335 2.45342 27.3106 3.97055 28.8428 5.89012L26.2128 7.94012Z"/>
<path d="M42.923 0.630127H39.603V27.2901H62.183V24.1101H42.923V0.630127Z"/>
<path d="M119.783 3.7801V0.600098H97.3628V27.2601H100.693V15.7801H115.033V12.6001H100.693V3.7801H119.783Z"/>
<path d="M60.833 0.210122L60.493 0.00012207L58.853 2.88012L72.853 11.0501V27.4001H76.143V11.0501L89.833 3.05012L90.173 2.85012L88.553 0.00012207L74.553 8.17012L60.833 0.210122Z"/>
</svg>
