<svg width="28" height="39" viewBox="0 0 28 39" fill="none" xmlns="http://www.w3.org/2000/svg">
<path fill-rule="evenodd" clip-rule="evenodd" d="M0.279663 8.05249L2.76324 35.2724L13.912 38.2962L25.0706 35.2739L27.5581 8.05249H0.279663ZM5.36135 13.617H13.9179H22.4749L22.1695 16.9537L21.8586 20.3723L20.9216 30.6244L13.9179 32.5204L13.9132 32.5219L6.91403 30.6244L6.42559 25.2622H9.85474L10.1089 28.0438L13.9139 29.0492L13.9177 29.0479L17.7274 28.0422L18.2469 23.4093L6.26163 23.4398L5.92301 20.2718L18.5356 20.1278L18.7905 16.7354L5.58439 16.7722L5.36135 13.617Z" fill="white"/>
<path fill-rule="evenodd" clip-rule="evenodd" d="M7.0993 0.659668V1.80872H7.10479L7.09938 4.88728H7.0993V6.03633H10.5091V4.88728H8.32327L8.32853 1.80872H10.5091V0.659668H7.0993Z" fill="white"/>
<path fill-rule="evenodd" clip-rule="evenodd" d="M11.3694 0.659668V1.76491L14.1253 4.87905H11.1909V6.03633H15.9646V4.93116L13.221 1.81695H15.7862V0.659668H11.3694Z" fill="white"/>
<path fill-rule="evenodd" clip-rule="evenodd" d="M16.8252 0.659668V1.76491L19.5811 4.87905H16.6467V6.03633H21.4205V4.93116L18.6768 1.81695H21.242V0.659668H16.8252Z" fill="white"/>
<path fill-rule="evenodd" clip-rule="evenodd" d="M13.8775 35.124V10.677H25.1017L22.9702 32.5971L13.8775 35.124Z" fill="#2C39F2" fill-opacity="0.19"/>
</svg>
