<svg width="19" height="12" viewBox="0 0 19 12" fill="none" xmlns="http://www.w3.org/2000/svg">
<path d="M17.792 11.2022H15.3027C13.896 11.2022 13.66 10.3774 12.5 9.18627C11.4533 8.10901 10.8733 8.93514 10.8973 10.4694C10.9053 10.877 10.7093 11.2022 10.2373 11.2022C8.764 11.2022 6.64533 11.4163 4.49867 9.03395C2.30267 6.5926 0 1.69481 0 1.21313C0 0.927685 0.229333 0.800059 0.612 0.800059H3.14267C3.81333 0.800059 3.86933 1.14177 4.05733 1.57953C4.836 3.40608 6.69867 7.07154 7.196 5.02542C7.48133 3.85071 7.59733 1.12942 6.376 0.89475C5.68267 0.763007 6.904 0 8.672 0C9.112 0 9.58933 0.0480309 10.0773 0.164678C10.9747 0.378759 10.9787 0.793197 10.9653 1.39702C10.92 3.68329 10.652 5.22028 11.2373 5.60865C11.796 5.98055 13.2653 3.54743 14.0427 1.66873C14.2547 1.15 14.2973 0.801431 14.9 0.801431H17.996C19.6173 0.801431 17.784 3.20024 16.3827 5.07207C15.2533 6.58025 15.3133 6.60907 16.6267 7.86336C17.5613 8.75674 18.6667 9.97673 18.6667 10.667C18.6667 10.9936 18.4187 11.2022 17.792 11.2022Z"/>
</svg>
