<svg width="47" height="59" viewBox="0 0 47 59" fill="none" xmlns="http://www.w3.org/2000/svg">
  <path class="svg-bg" fill-rule="evenodd" clip-rule="evenodd" d="M0 0V43.2713H0.00206923L23.465 58.0114L46.9301 43.2713H46.9321V0H0Z" fill="#2C39F2"/>
  <path fill-rule="evenodd" clip-rule="evenodd" d="M10 13.4897L12.4571 41.0497L23.4834 44.1106L34.5401 41.0453L37 13.4897H10Z" fill="white"/>
  <path class="svg-glyph" fill-rule="evenodd" clip-rule="evenodd" d="M23.4999 19.1233H15.0241L15.1051 20.0301L15.9358 29.3447H23.4999V25.9647H19.0271L18.7181 22.5035H23.4999V19.1233ZM19.7206 33.7307L19.4799 31.0349H16.0868L16.5604 36.3422L23.4843 38.2643L23.4999 38.26V34.7432L23.4851 34.7472L19.7206 33.7307Z" fill="#2C39F2"/>
  <path class="svg-shadow" fill-rule="evenodd" clip-rule="evenodd" d="M23.5 15.7429V41.7675L32.4343 39.2906L34.5364 15.7429H23.5Z" fill="#D5D7FC" fill-opacity="0.19"/>
  <path class="svg-glyph" fill-rule="evenodd" clip-rule="evenodd" d="M23.4882 29.3448H27.6505L27.2581 33.7286L23.4882 34.7461V38.2626L30.4176 36.3421L30.4685 35.7711L31.2628 26.8724L31.3453 25.9647H23.4882V29.3448ZM23.4882 19.1233V22.5035H31.6528L31.7206 21.7437L31.8746 20.0301L31.9554 19.1233H23.4882Z" fill="#2C39F2"/>
  <path fill-rule="evenodd" clip-rule="evenodd" d="M15.8011 7.6971H14.2297V6H12.5121V11.1393H14.2298V9.4183H15.8011V11.1393H17.5188V6H15.801V7.6971H15.8011ZM18.2655 7.70422H19.7778V11.1393H21.4956V7.70422H23.0085V6H18.2655V7.70422ZM26.6542 7.8058L25.5523 6H23.7612V11.1393H25.4419V8.59192L26.6245 10.4193H26.6541L27.8358 8.59192V11.1393H29.5464V6H27.7546L26.6542 7.8058ZM32.1197 9.44051V6H30.4015V11.1393H34.5354V9.44051H32.1197Z" fill="white"/>
</svg>
