<svg width="33" height="32" viewBox="0 0 33 32" fill="none" xmlns="http://www.w3.org/2000/svg">
<path d="M16.5 0C7.38794 0 0 7.34517 0 16.4045C0 23.6535 4.72725 29.8012 11.2843 31.9699C12.1091 32.1201 12.4103 31.6134 12.4103 31.1809C12.4103 30.7904 12.3951 29.4968 12.3871 28.1271C7.79883 29.1183 6.829 26.1927 6.829 26.1927C6.07774 24.2983 4.99712 23.7937 4.99712 23.7937C3.49758 22.7764 5.11087 22.7965 5.11087 22.7965C6.76751 22.9106 7.63969 24.4866 7.63969 24.4866C9.11206 26.9937 11.5029 26.2688 12.4415 25.8483C12.5914 24.7909 13.0184 24.066 13.4888 23.6575C9.82607 23.243 5.973 21.8353 5.973 15.5494C5.973 13.7571 6.61653 12.2953 7.66992 11.1469C7.50173 10.7304 6.93374 9.0613 7.83305 6.8035C7.83305 6.8035 9.2168 6.36295 12.3709 8.4856C13.6862 8.12015 15.0971 7.93993 16.5 7.9339C17.9018 7.93993 19.3137 8.12214 20.631 8.48759C23.7792 6.36295 25.1649 6.80549 25.1649 6.80549C26.0673 9.0653 25.4993 10.7324 25.3301 11.1469C26.3875 12.2953 27.026 13.7572 27.026 15.5494C27.026 21.8513 23.1669 23.239 19.491 23.6455C20.0852 24.1542 20.6109 25.1514 20.6109 26.6813C20.6109 28.8741 20.5887 30.6423 20.5887 31.1829C20.5887 31.6195 20.8888 32.1301 21.7247 31.9699C28.2768 29.7972 33 23.6495 33 16.4045C33 7.34517 25.6121 0 16.5 0Z" fill="white"/>
</svg>
