<svg width="19" height="43" viewBox="0 0 19 43" fill="none" xmlns="http://www.w3.org/2000/svg">
<path d="M15.0629 34.814L16.1838 32.8719C16.1838 32.8719 13.6389 33.9308 9.38104 33.9308C5.11966 33.9308 2.61358 32.9131 2.61358 32.9131L3.86662 35.0326L4.31073 41.7136C4.31073 42.4356 6.62647 43 9.48502 43C12.3453 43 14.6628 42.4374 14.6628 41.7136L15.0664 34.8427V34.814H15.0629ZM16.1467 22.1902C14.7915 22.2726 14.1147 23.8081 13.4345 25.4241C13.1825 26.0154 12.3242 28.5362 11.7638 28.2244C11.2033 27.9145 12.4916 25.8434 12.8547 24.6107C12.437 24.9225 10.9072 26.1318 10.5125 24.9959C9.88155 25.5585 8.52277 25.8559 8.6761 24.4065C8.33949 25.0246 7.58167 25.881 6.66877 25.5065C5.4827 25.0497 7.3649 21.1869 7.83193 21.3732C8.30072 21.59 7.73852 22.4482 7.59225 22.7958C7.26445 23.5465 6.89083 24.5122 7.14284 24.7003C7.56581 25.0479 8.73602 23.4408 8.76245 23.4121C8.98099 23.1165 9.60662 21.2102 10.1071 21.4288C10.6094 21.6689 8.8541 24.1897 9.50793 24.7003C9.64187 24.8078 10.1829 24.6465 10.5107 24.2721C10.7222 24.0571 10.6482 23.5196 11.3549 21.8032C12.0669 20.0851 12.7013 17.9405 13.186 18.1017C13.6706 18.263 13.2723 19.3612 13.0961 19.7912C12.2784 21.7226 10.8614 24.8866 11.5276 24.6465C12.1867 24.4047 12.5304 24.4047 13.1895 23.6271C13.8486 22.8495 13.7975 21.5632 14.2452 21.59C14.6681 21.6151 14.6152 22.0451 14.5095 22.3389C14.9325 21.8552 16.5397 20.7838 16.9116 21.8301C17.3592 23.0627 14.6135 24.8615 15.3008 24.754C15.9617 24.6734 17.042 23.9765 17.5179 23.3333L18.785 11.6877C18.785 11.6877 17.4914 12.7627 9.33698 12.7627C1.18254 12.7627 0.0246729 11.7164 0.0246729 11.7164L1.105 22.3407C1.68658 20.6781 3.05769 17.2991 5.1972 17.4317C6.17355 17.4854 7.49355 19.4186 6.35683 19.4723C5.88099 19.4992 5.82812 18.5066 5.27474 18.3723C4.85354 18.2898 4.29839 18.6141 3.93006 18.9904C3.21807 19.7142 1.63195 22.5844 1.84343 24.0087C2.10778 25.8326 4.32307 23.3888 4.69316 22.665C4.95576 22.158 5.1408 20.6261 5.69418 20.7874C6.27576 20.9486 5.64308 22.5324 5.21835 23.8994C4.74251 25.4564 4.50635 27.0903 3.9283 26.9022C3.34672 26.7159 4.29663 24.7039 4.242 24.3545C3.69038 24.8902 2.68584 26.182 1.36759 25.5352L2.02671 32.1624C2.02671 32.1624 3.82256 33.5832 9.2048 33.5832C14.5871 33.5832 16.4622 32.1624 16.4622 32.1624L17.3064 24.4889C16.6208 25.1876 14.4566 26.3934 14.3245 25.0264C14.2205 23.9263 16.6737 22.3425 16.041 22.3138L16.1467 22.1902ZM18.9225 1.19771L14.2363 6.21427L13.3798 9.62016C16.6948 9.83515 19 10.3117 19 10.8635C19 11.6142 14.7457 12.2198 9.49912 12.2198C4.25257 12.2198 0 11.6053 0 10.8528C0 10.1021 4.25434 9.48399 9.50088 9.48399C10.2464 9.48399 10.9883 9.48399 11.7285 9.51266L12.7172 5.43491L17.6959 0.0689806C17.8157 -0.092266 18.1893 0.0421062 18.5312 0.337725C18.8731 0.604678 19.0582 0.954045 18.9524 1.11529V1.16904L18.9225 1.19771ZM12.1656 11.5802C12.1656 11.5802 11.2439 11.5802 11.0905 11.4369C11.0518 11.3921 11.0271 11.333 11.0271 11.2756C11.0271 11.1717 11.0958 11.1126 11.1857 11.0785L11.2632 11.2129C11.2262 11.2237 11.2121 11.2398 11.2051 11.2541C11.2051 11.3276 11.7585 11.3777 12.1832 11.3724C12.6044 11.367 13.119 11.3312 13.1225 11.2577C13.1225 11.2362 13.082 11.2165 13.015 11.1986L13.0943 11.0696C13.2054 11.1054 13.3005 11.1735 13.3005 11.2864C13.3005 11.4835 13.052 11.5157 12.8952 11.539C12.7066 11.5659 12.1691 11.5802 12.1691 11.5802H12.1656Z" fill="white"/>
</svg>
