<svg width="27" height="39" viewBox="0 0 27 39" fill="none" xmlns="http://www.w3.org/2000/svg">
<path fill-rule="evenodd" clip-rule="evenodd" d="M0 7.48975L2.45711 35.0497L13.4834 38.1106L24.5401 35.0453L27 7.48975H0Z" fill="white"/>
<path fill-rule="evenodd" clip-rule="evenodd" d="M13.4999 13.1233H5.02411L5.10506 14.0301L5.93583 23.3447H13.4999V19.9647H9.02711L8.71815 16.5035H13.4999V13.1233ZM9.7206 27.7307L9.47991 25.0349H6.08679L6.56039 30.3422L13.4843 32.2643L13.4999 32.26V28.7432L13.4851 28.7472L9.7206 27.7307Z" fill="#2C39F2"/>
<path fill-rule="evenodd" clip-rule="evenodd" d="M13.5 9.74292V35.7675L22.4343 33.2906L24.5364 9.74292H13.5Z" fill="#D5D7FC"/>
<path fill-rule="evenodd" clip-rule="evenodd" d="M13.4882 23.3448H17.6505L17.2581 27.7286L13.4882 28.7461V32.2626L20.4176 30.3421L20.4685 29.7711L21.2628 20.8724L21.3453 19.9647H13.4882V23.3448ZM13.4882 13.1233V16.5035H21.6528L21.7206 15.7437L21.8746 14.0301L21.9554 13.1233H13.4882V13.1233Z" fill="#2C39F2"/>
<path fill-rule="evenodd" clip-rule="evenodd" d="M5.80105 1.6971H4.22973V0H2.51208V5.13926H4.22981V3.4183H5.80105V5.13926H7.51878V0H5.80097V1.6971H5.80105ZM8.26554 1.70422H9.77779V5.13926H11.4956V1.70422H13.0085V0H8.26554V1.70422ZM16.6542 1.8058L15.5523 0H13.7612V5.13926H15.4419V2.59192L16.6245 4.41926H16.6541L17.8358 2.59192V5.13926H19.5464V0H17.7546L16.6542 1.8058ZM22.1197 3.44051V0H20.4015V5.13926H24.5354V3.44051H22.1197Z" fill="white"/>
</svg>
