<svg width="422" height="171" viewBox="0 0 422 171" fill="none" xmlns="http://www.w3.org/2000/svg">
<path d="M1.5 80.5C1.5 46.2583 29.2584 18.5 63.5 18.5H358.5C392.742 18.5 420.5 46.2583 420.5 80.5C420.5 114.742 392.742 142.5 358.5 142.5H63.5C29.2584 142.5 1.5 114.742 1.5 80.5Z" stroke-width="3"/>
<path d="M40 24V2H64.314L78 18" stroke-width="3"/>
<path d="M40 138V160H64.314L78 144" stroke-width="3"/>
<path d="M173.5 142.5H243.986L238.58 160.581C236.997 165.874 232.128 169.5 226.604 169.5H186C179.096 169.5 173.5 163.904 173.5 157V142.5Z" stroke-width="3"/>
</svg>
