<svg class="header-left-group__logo-additional-svg" width="82" height="25" viewBox="0 0 82 25" fill="none" xmlns="http://www.w3.org/2000/svg">
  <path d="M4.82691 8.90425H4.23266C3.56023 8.90425 2.96599 8.80651 2.43951 8.61103C1.91825 8.41555 1.46997 8.14676 1.11029 7.80466C0.750623 7.46257 0.469142 7.06182 0.281487 6.59267C0.093832 6.12351 0 5.61036 0 5.05812C0 4.51077 0.0990389 4.00252 0.291907 3.52847C0.484774 3.05442 0.766249 2.6488 1.13113 2.3067C1.49602 1.96461 1.93911 1.7007 2.46558 1.50033C2.99206 1.30485 3.5863 1.20711 4.25352 1.20711H4.83733V0H5.71305V1.20711H6.29686C6.96408 1.20711 7.56355 1.30485 8.08481 1.50033C8.61129 1.69582 9.05436 1.96461 9.41924 2.3067C9.78413 2.6488 10.0604 3.05442 10.2585 3.52847C10.4566 4.00252 10.5504 4.51077 10.5504 5.05812C10.5504 5.61036 10.4513 6.12351 10.2585 6.59267C10.0656 7.06182 9.78413 7.46745 9.41924 7.80466C9.05436 8.14187 8.61129 8.41066 8.08481 8.61103C7.56355 8.80651 6.96408 8.90425 6.29686 8.90425H5.71305V10.1114H4.83733V8.90425H4.82691ZM4.84255 8.22006V1.87664H4.24308C3.72703 1.87664 3.26832 1.95483 2.86173 2.10633C2.45515 2.25783 2.1059 2.46309 1.81921 2.71721C1.53251 2.97134 1.31359 3.26946 1.15721 3.60178C1.00083 3.93899 0.922632 4.28597 0.922632 4.64272V5.47352C0.922632 5.83028 1.00083 6.17726 1.15721 6.5047C1.31359 6.83702 1.53252 7.13025 1.814 7.38437C2.09549 7.6385 2.43951 7.84376 2.8461 7.99526C3.25268 8.14676 3.7166 8.22495 4.22744 8.22495H4.84255V8.22006ZM6.28123 8.22006C6.78685 8.22006 7.24557 8.14187 7.65737 7.99037C8.06917 7.83887 8.41842 7.63361 8.70512 7.37949C8.99181 7.12536 9.21074 6.83213 9.36712 6.49981C9.52349 6.16749 9.60167 5.8254 9.60167 5.46864V4.63783C9.60167 4.28108 9.52349 3.9341 9.36712 3.59689C9.21074 3.25968 8.99181 2.96646 8.70512 2.71233C8.41842 2.4582 8.06917 2.25294 7.65737 2.10144C7.24557 1.94995 6.78685 1.87175 6.28123 1.87175H5.68699V8.21517H6.28123V8.22006Z"/>
  <path d="M13.4902 9.72471V0.361084H17.4779C18.3588 0.361084 19.0365 0.595664 19.5004 1.06482C19.9643 1.53398 20.1989 2.1693 20.1989 2.97567C20.1989 3.79181 19.9643 4.43201 19.5004 4.90117C19.0365 5.37033 18.3588 5.60491 17.4779 5.60491H14.3607V9.72471H13.4902ZM14.3607 4.89628H17.4779C18.0617 4.89628 18.5048 4.74478 18.8071 4.44667C19.1147 4.14856 19.2658 3.76249 19.2658 3.29821V2.65312C19.2658 2.19862 19.1147 1.81743 18.8071 1.51932C18.4996 1.22121 18.0565 1.06971 17.4779 1.06971H14.3607V4.89628Z"/>
  <path d="M26.605 9.88417C25.3018 9.88417 24.2854 9.47366 23.5504 8.65752C22.8102 7.84137 22.4453 6.63427 22.4453 5.04108C22.4453 3.4479 22.8154 2.24568 23.5504 1.42465C24.2906 0.608513 25.3071 0.197998 26.605 0.197998C27.8977 0.197998 28.909 0.608515 29.6492 1.43443C30.3894 2.26034 30.7543 3.45767 30.7543 5.04108C30.7543 6.62449 30.3842 7.82671 29.6492 8.64774C28.909 9.47365 27.8977 9.88417 26.605 9.88417ZM26.605 9.17066C27.0898 9.17066 27.5276 9.09246 27.9238 8.93608C28.3148 8.77969 28.6536 8.55 28.9351 8.24212C29.2165 7.93912 29.4355 7.56281 29.5918 7.12298C29.7482 6.68314 29.8264 6.18466 29.8264 5.62753V4.44486C29.8264 3.88774 29.7482 3.38926 29.5918 2.94942C29.4355 2.50958 29.2165 2.13816 28.9351 1.84005C28.6536 1.53706 28.3148 1.30736 27.9238 1.14609C27.5329 0.984817 27.0898 0.901737 26.605 0.901737C26.1202 0.901737 25.6772 0.984817 25.281 1.14609C24.8848 1.30736 24.5408 1.53706 24.2593 1.84005C23.9778 2.14305 23.7589 2.50958 23.6025 2.94942C23.4461 3.38926 23.3679 3.88774 23.3679 4.44486V5.62753C23.3679 6.18466 23.4461 6.68314 23.6025 7.12298C23.7589 7.56281 23.9778 7.93423 24.2593 8.24212C24.5408 8.54511 24.8796 8.77969 25.281 8.93608C25.6772 9.09246 26.1202 9.17066 26.605 9.17066Z"/>
  <path d="M40.2892 5.32635H34.7117V9.72471H33.8359V0.361084H34.7117V4.61284H40.2892V0.361084H41.1649V9.72471H40.2892V5.32635Z"/>
  <path d="M47.8997 1.06971V9.71983H47.0292V1.06971H43.6201V0.361084H51.3088V1.06971H47.8997Z"/>
  <path d="M53.7686 9.72472V0.361084H59.7058V1.06971H54.6391V4.61284H59.4556V5.32635H54.6391V9.01609H59.7058V9.7296H53.7686V9.72472Z"/>
  <path d="M69.3019 5.32635H63.7244V9.72471H62.8486V0.361084H63.7244V4.61284H69.3019V0.361084H70.1776V9.72471H69.3019V5.32635Z"/>
  <path d="M72.4872 9.0112H73.5349C73.9832 8.41987 74.322 7.64282 74.5618 6.67029C74.8016 5.69777 74.9162 4.48088 74.9162 3.01476V0.361084H80.6345V9.0112H82.0002V11.7333H81.187V9.71982H73.2951V11.7333H72.4819V9.0112H72.4872ZM79.764 9.0112V1.06971H75.7607V3.05386C75.7607 4.52976 75.6512 5.74664 75.4323 6.70939C75.2134 7.67214 74.9267 8.41987 74.567 8.95744V9.0112H79.764Z"/>
  <path d="M7.76653 24.1346L6.66146 21.2219H2.34017L1.23509 24.1346H0.359375L3.95609 14.771H5.07681L8.68916 24.1346H7.76653ZM4.51905 15.5334H4.46172L2.55389 20.5084H6.42688L4.51905 15.5334Z"/>
  <path d="M11.4507 23.4233H12.879L13.4628 22.0842L9.63672 14.7732H10.5854L13.1605 19.7091L13.8277 21.0922H13.885L14.4532 19.6847L16.58 14.7732H17.4818L13.7703 23.306C13.6244 23.6383 13.4524 23.8582 13.2595 23.9706C13.0666 24.083 12.7799 24.1368 12.3994 24.1368H11.4507V23.4233Z"/>
  <path d="M23.242 15.4818V24.1319H22.3715V15.4818H18.9624V14.7732H26.651V15.4818H23.242Z"/>
  <path d="M32.2816 24.2946C31.0201 24.2946 30.0454 23.8889 29.3573 23.0826C28.6692 22.2713 28.3252 21.074 28.3252 19.4808C28.3252 17.8974 28.6692 16.6903 29.3573 15.8595C30.0454 15.0287 31.0201 14.6133 32.2816 14.6133C33.0948 14.6133 33.7828 14.7892 34.3406 15.1411C34.8983 15.493 35.331 15.9768 35.6437 16.5974L34.9296 16.9884C34.7055 16.4801 34.3666 16.0745 33.9184 15.7764C33.4649 15.4783 32.9227 15.3268 32.2816 15.3268C31.3277 15.3268 30.5875 15.6396 30.0558 16.27C29.5241 16.9004 29.253 17.7948 29.253 18.9628V20.0282C29.253 21.1864 29.5189 22.0709 30.0558 22.6769C30.5875 23.2878 31.3329 23.5908 32.2816 23.5908C32.9592 23.5908 33.5274 23.4295 33.9861 23.1168C34.4448 22.7991 34.7837 22.3739 35.0026 21.8364L35.7167 22.2273C35.4144 22.8724 34.9765 23.3807 34.3927 23.7521C33.8089 24.1137 33.1052 24.2946 32.2816 24.2946Z"/>
  <path d="M41.9878 24.2938C40.6846 24.2938 39.6682 23.8833 38.9332 23.0672C38.193 22.251 37.8281 21.0439 37.8281 19.4508C37.8281 17.8576 38.1982 16.6553 38.9332 15.8343C39.6734 15.0182 40.6899 14.6077 41.9878 14.6077C43.2805 14.6077 44.2918 15.0182 45.032 15.8441C45.7722 16.67 46.1371 17.8673 46.1371 19.4508C46.1371 21.0342 45.767 22.2364 45.032 23.0574C44.297 23.8833 43.2805 24.2938 41.9878 24.2938ZM41.9878 23.5852C42.4726 23.5852 42.9104 23.507 43.3066 23.3506C43.6976 23.1942 44.0364 22.9645 44.3179 22.6567C44.5993 22.3537 44.8183 21.9774 44.9747 21.5375C45.131 21.0977 45.2092 20.5992 45.2092 20.0421V18.8594C45.2092 18.3023 45.131 17.8038 44.9747 17.364C44.8183 16.9241 44.5993 16.5527 44.3179 16.2546C44.0364 15.9516 43.6976 15.7219 43.3066 15.5606C42.9157 15.3994 42.4726 15.3163 41.9878 15.3163C41.503 15.3163 41.06 15.3994 40.6638 15.5606C40.2676 15.7219 39.9236 15.9516 39.6421 16.2546C39.3606 16.5576 39.1417 16.9241 38.9853 17.364C38.829 17.8038 38.7508 18.3023 38.7508 18.8594V20.0421C38.7508 20.5992 38.829 21.0977 38.9853 21.5375C39.1417 21.9774 39.3606 22.3488 39.6421 22.6567C39.9236 22.9597 40.2624 23.1942 40.6638 23.3506C41.0652 23.507 41.503 23.5852 41.9878 23.5852Z"/>
  <path d="M49.2217 24.1368V14.7732H53.2093C54.0903 14.7732 54.7679 15.0078 55.2319 15.4769C55.6958 15.9461 55.9303 16.5814 55.9303 17.3878C55.9303 18.2039 55.6958 18.8441 55.2319 19.3133C54.7679 19.7824 54.0903 20.017 53.2093 20.017H50.0922V24.1368H49.2217ZM50.0974 19.3035H53.2146C53.7984 19.3035 54.2415 19.152 54.5438 18.8539C54.8513 18.5558 55.0025 18.1697 55.0025 17.7054V17.0603C55.0025 16.6058 54.8513 16.2246 54.5438 15.9265C54.2362 15.6284 53.7932 15.4769 53.2146 15.4769H50.0974V19.3035Z"/>
  <path d="M62.1346 24.2946C60.8732 24.2946 59.8984 23.8889 59.2103 23.0826C58.5223 22.2713 58.1782 21.074 58.1782 19.4808C58.1782 17.8974 58.5223 16.6903 59.2103 15.8595C59.8984 15.0287 60.8732 14.6133 62.1346 14.6133C62.9478 14.6133 63.6359 14.7892 64.1936 15.1411C64.7514 15.493 65.184 15.9768 65.4968 16.5974L64.7827 16.9884C64.5585 16.4801 64.2197 16.0745 63.7714 15.7764C63.3179 15.4783 62.7758 15.3268 62.1346 15.3268C61.1807 15.3268 60.4405 15.6396 59.9088 16.27C59.3771 16.9004 59.1061 17.7948 59.1061 18.9628V20.0282C59.1061 21.1864 59.3719 22.0709 59.9088 22.6769C60.4405 23.2878 61.1859 23.5908 62.1346 23.5908C62.8123 23.5908 63.3805 23.4295 63.8392 23.1168C64.2979 22.7991 64.6367 22.3739 64.8556 21.8364L65.5698 22.2273C65.2674 22.8724 64.8296 23.3807 64.2458 23.7521C63.6671 24.1137 62.9634 24.2946 62.1346 24.2946Z"/>
</svg>
