<svg class="technologies__icon technologies__icon--web" width="29" height="39" viewBox="0 0 29 39" fill="none" xmlns="http://www.w3.org/2000/svg">
<path fill-rule="evenodd" clip-rule="evenodd" d="M0.79895 7.73438L3.34788 35.7502L14.7901 38.8624L26.2423 35.7517L28.7953 7.73438H0.79895Z" fill="white"/>
<path d="M11.0279 15V29.1503L6 27.7977V30.711L13.5419 33V15H11.0279Z" fill="#2C39F2"/>
<path d="M16.6536 15H25L24.7989 18.1214H19.3687V22.9075L24.3966 22.2832L23.7933 31.1272L16.6536 33V29.8786L21.7821 28.422L21.8827 25.7168L16.6536 26.6532V15Z" fill="#2C39F2"/>
<path fill-rule="evenodd" clip-rule="evenodd" d="M12.1148 0.659668V1.86919H13.1444L13.15 5.10979H10.849V6.31931H14.4383V5.10979H14.4382L14.4326 1.86919H14.4383V0.659668H12.1148Z" fill="white"/>
<path fill-rule="evenodd" clip-rule="evenodd" d="M15.2902 0.659668V1.82308L17.3624 5.10112H15.1561V6.31931H18.7453V5.15598L16.6825 1.87786H18.6112V0.659668H15.2902Z" fill="white"/>
</svg>
