<svg width="120" height="46" viewBox="0 0 120 46" fill="none" xmlns="http://www.w3.org/2000/svg">
<path class="bg" fill-rule="evenodd" clip-rule="evenodd" d="M120 4.17391C120 1.86991 118.13 0 115.826 0H4.17391C1.86991 0 0 1.86991 0 4.17391V41.7391C0 44.0431 1.86991 45.913 4.17391 45.913H115.826C118.13 45.913 120 44.0431 120 41.7391V4.17391Z" fill="black"/>
<path class="text" d="M102.613 11.0522H99.8438V29.8547H102.613V11.0522Z" fill="white"/>
<path class="text" fill-rule="evenodd" clip-rule="evenodd" d="M96.8581 29.8534H94.0887V16.5292H96.8581V29.8534ZM95.4734 10.5835C96.5054 10.5835 97.3433 11.4214 97.3433 12.4534C97.3433 13.4854 96.5054 14.3233 95.4734 14.3233C94.4414 14.3233 93.6035 13.4854 93.6035 12.4534C93.6035 11.4214 94.4414 10.5835 95.4734 10.5835Z" fill="white"/>
<path class="text" fill-rule="evenodd" clip-rule="evenodd" d="M91.0866 29.853H88.3652V28.3952C87.3896 29.5003 85.671 30.1952 84.0546 30.1952C80.1896 30.1952 77.0508 27.0564 77.0508 23.1904C77.0508 19.3253 80.1896 16.1865 84.0546 16.1865C85.671 16.1865 87.2988 16.7959 88.3652 17.8717V16.5288H91.0866V29.853ZM84.1433 18.9862C86.5266 18.9862 88.4017 20.6912 88.4017 23.1904C88.4017 25.6895 86.5266 27.4102 84.1433 27.4102C81.76 27.4102 79.9485 25.5747 79.9485 23.1904C79.9485 20.807 81.76 18.9862 84.1433 18.9862Z" fill="white"/>
<path class="text" fill-rule="evenodd" clip-rule="evenodd" d="M56.7166 29.853H53.9941V16.5288H56.7166V17.4596C57.3208 16.8909 58.454 16.1886 60.0254 16.1865C61.958 16.1865 63.398 16.9994 64.3841 18.3069C65.463 17.0119 67.2421 16.1865 69.0547 16.1865C72.4564 16.1865 74.775 18.4832 74.775 22.0623V29.853H72.0526V22.0623C72.0526 20.3239 70.6376 18.909 68.8992 18.909C67.1597 18.909 65.7458 20.3239 65.7458 22.0623V29.853H63.0234V22.0623C63.0234 20.3239 61.6084 18.909 59.87 18.909C58.1315 18.909 56.7166 20.3239 56.7166 22.0623V29.853Z" fill="white"/>
<path class="text" d="M35.702 22.9583C35.702 25.3813 33.7309 27.3524 31.3079 27.3524C28.885 27.3524 26.9138 25.3813 26.9138 22.9583C26.9138 20.5353 28.885 18.5642 31.3079 18.5642C33.7309 18.5642 35.702 20.5353 35.702 22.9583ZM31.3079 8.34961C23.2523 8.34961 16.6992 14.9027 16.6992 22.9583C16.6992 31.014 23.2523 37.567 31.3079 37.567C34.2589 37.567 37.1044 36.6884 39.5368 35.0261L39.5785 34.9969L37.6105 32.7096L37.5771 32.7305C35.7051 33.9357 33.5368 34.5722 31.3079 34.5722C24.9041 34.5722 19.694 29.3621 19.694 22.9583C19.694 16.5545 24.9041 11.3444 31.3079 11.3444C37.7117 11.3444 42.9218 16.5545 42.9218 22.9583C42.9218 23.7879 42.829 24.6279 42.6484 25.4543C42.2811 26.9621 41.2251 27.4234 40.4331 27.3628C39.6359 27.2981 38.703 26.7305 38.6968 25.3406V24.2814V22.9583C38.6968 18.8835 35.3827 15.5694 31.3079 15.5694C27.2331 15.5694 23.919 18.8835 23.919 22.9583C23.919 27.0331 27.2331 30.3472 31.3079 30.3472C33.2874 30.3472 35.1437 29.574 36.543 28.1663C37.357 29.4331 38.6832 30.2272 40.1931 30.3482C40.3225 30.3587 40.455 30.3639 40.5855 30.3639C41.6488 30.3639 42.7017 30.008 43.551 29.3642C44.4265 28.6985 45.0808 27.7374 45.4418 26.5823C45.4992 26.3955 45.6056 25.9687 45.6056 25.9656L45.6088 25.95C45.8217 25.0234 45.9166 24.0999 45.9166 22.9583C45.9166 14.9027 39.3636 8.34961 31.3079 8.34961Z" fill="white"/>
</svg>
