<svg width="21" height="27" viewBox="0 0 21 27" fill="none" xmlns="http://www.w3.org/2000/svg">
  <path d="M0.605957 0.0217285V20.076L10.4636 26.9069L20.3212 20.076V0.0217285H0.605957Z" fill="black"/>
  <path d="M16.1558 15.3598C16.3492 15.3598 16.5635 15.3376 16.7778 15.2655L16.7569 17.4962C16.229 17.6848 15.5547 17.8291 14.9066 17.8236C13.7306 17.8125 12.8473 17.363 12.3769 16.4751C11.2427 17.3685 9.92033 17.8957 8.21641 17.8846C6.05777 17.8624 4.19704 16.575 4.21795 14.2444C4.24408 11.2535 7.00903 10.349 9.31402 10.3712C10.2235 10.3823 11.2322 10.5099 12.0424 10.7152L12.0476 10.2991C12.0581 9.12265 11.1538 8.30694 9.35583 8.29029C7.77213 8.27365 6.35569 8.70647 5.27375 9.13375L5.29989 6.19275C6.23547 5.882 7.99166 5.43253 9.76875 5.44918C13.2236 5.48247 15.4136 6.94742 15.3823 10.8207L15.3509 14.5718C15.3405 15.1822 15.722 15.3542 16.1558 15.3598ZM7.18674 14.0502C7.17629 15.0213 8.04392 15.6483 9.15199 15.6594C10.1817 15.6705 11.1591 15.382 12.011 14.6329L12.0267 12.613C11.4727 12.4743 10.6312 12.3023 9.86806 12.2967C8.52479 12.2801 7.20242 12.7295 7.18674 14.0502Z" fill="white"/>
</svg>
