<svg width="21" height="27" viewBox="0 0 21 27" fill="none" xmlns="http://www.w3.org/2000/svg">
  <path fill="#2c39f2" d="M0.605957 0.0217285V20.076L10.4636 26.9069L20.3212 20.076V0.0217285H0.605957Z"/>
  <path fill="url(#pattern)" d="M0.605957 0.0217285V20.076L10.4636 26.9069L20.3212 20.076V0.0217285H0.605957Z"/>
  <path stroke="transparent" d="M16.1558 15.3598C16.3492 15.3598 16.5635 15.3376 16.7778 15.2655L16.7569 17.4962C16.229 17.6848 15.5547 17.8291 14.9066 17.8236C13.7306 17.8125 12.8473 17.363 12.3769 16.4751C11.2427 17.3685 9.92033 17.8957 8.21641 17.8846C6.05777 17.8624 4.19704 16.575 4.21795 14.2444C4.24408 11.2535 7.00903 10.349 9.31402 10.3712C10.2235 10.3823 11.2322 10.5099 12.0424 10.7152L12.0476 10.2991C12.0581 9.12265 11.1538 8.30694 9.35583 8.29029C7.77213 8.27365 6.35569 8.70647 5.27375 9.13375L5.29989 6.19275C6.23547 5.882 7.99166 5.43253 9.76875 5.44918C13.2236 5.48247 15.4136 6.94742 15.3823 10.8207L15.3509 14.5718C15.3405 15.1822 15.722 15.3542 16.1558 15.3598ZM7.18674 14.0502C7.17629 15.0213 8.04392 15.6483 9.15199 15.6594C10.1817 15.6705 11.1591 15.382 12.011 14.6329L12.0267 12.613C11.4727 12.4743 10.6312 12.3023 9.86806 12.2967C8.52479 12.2801 7.20242 12.7295 7.18674 14.0502Z" fill="white"/>

    <pattern id="pattern" viewBox="30,90,488,467" width="300%" height="300%">
      <defs>
          <rect id="path-1" x="0.4" y="0" width="487.2" height="467"></rect>
      </defs>
      <g id="Page-1" stroke="none" stroke-width="1" fill="none" fill-rule="evenodd">
          <g id="Group-2" transform="translate(244.000000, 233.500000) rotate(-180.000000) translate(-244.000000, -233.500000) translate(0.000000, -0.000000)">
              <g mask="url(#mask-2)">
                  <g transform="translate(-102.000000, -69.376940)">
                      <polygon id="Rectangle" fill="#FE2953" points="200.275249 509.456598 291.331465 468.855168 326.275249 485.937715 234.193656 525.806387"></polygon>
                      <polygon id="Rectangle" fill="#FE2953" points="272.4 459.969501 363.456216 419.368071 398.4 436.450618 306.318407 476.31929"></polygon>
                      <polygon id="Rectangle" fill="#FE2953" points="345.4 411.405643 436.456216 370.804213 471.4 387.88676 379.318407 427.755432"></polygon>
                      <polygon id="Rectangle" fill="#FE2953" points="418.7 362.63469 509.756216 322.033259 544.7 339.115807 452.618407 378.984479"></polygon>
                      <polygon id="Rectangle" fill="#FE2953" points="271.975249 544.093294 363.031465 503.491864 397.975249 520.574411 305.893656 560.443083"></polygon>
                      <polygon id="Rectangle" fill="#FE2953" points="344.1 494.606198 435.156216 454.004767 470.1 471.087314 378.018407 510.955987"></polygon>
                      <polygon id="Rectangle" fill="#FE2953" points="417.1 446.042339 508.156216 405.440909 543.1 422.523456 451.018407 462.392129"></polygon>
                      <polygon id="Rectangle" fill="#FE2953" points="490.4 397.271386 581.456216 356.669956 616.4 373.752503 524.318407 413.621175"></polygon>
                      <polygon id="Rectangle" fill="#FE2953" points="414.2 529.346441 505.256216 488.745011 540.2 505.827558 448.118407 545.696231"></polygon>
                      <polygon id="Rectangle" fill="#FE2953" points="487.2 480.782583 578.256216 440.181153 613.2 457.2637 521.118407 497.132373"></polygon>
                      <polygon id="Rectangle" fill="#FE2953" points="488.345 565.484579 579.401216 524.883149 614.345 541.965696 522.263407 581.834368"></polygon>
                      <polygon id="Rectangle" fill="#FE2953" points="561.345 516.920721 652.401216 476.31929 687.345 493.401838 595.263407 533.27051"></polygon>
                      <polygon id="Rectangle" fill="#FE2953" points="560.5 432.01163 651.556216 391.4102 686.5 408.492747 594.418407 448.361419"></polygon>
                      <polygon id="Rectangle" fill="#FE2953" points="487.2 314.070832 578.256216 273.469401 613.2 290.551948 521.118407 330.420621"></polygon>
                      <polygon id="Rectangle" fill="#FE2953" points="560.5 265.299878 651.556216 224.698448 686.5 241.780995 594.418407 281.649667"></polygon>
                      <polygon id="Rectangle" fill="#FE2953" points="66.4 186.810743 157.456216 146.209313 192.4 163.29186 100.318407 203.160532"></polygon>
                      <polygon id="Rectangle" fill="#FE2953" points="139.7 138.03979 230.756216 97.4383592 265.7 114.520906 173.618407 154.389579"></polygon>
                      <polygon id="Rectangle" fill="#FE2953" points="0 151.086796 91.0562159 110.485366 126 127.567913 33.9184067 167.436585"></polygon>
                      <polygon id="Rectangle" fill="#FE2953" points="73.3 102.315843 164.356216 61.7144124 199.3 78.7969595 107.218407 118.665632"></polygon>
                      <polygon id="Rectangle" fill="#FE2953" points="57.4 524.169058 148.456216 483.567627 183.4 500.650175 91.3184067 540.518847"></polygon>
                      <polygon id="Rectangle" fill="#FE2953" points="127.9 558.33979 218.956216 517.738359 253.9 534.820906 161.818407 574.689579"></polygon>
                  </g>
              </g>
          </g>
      </g>
    </pattern>
</svg>
