<svg width="295" height="185" viewBox="0 0 295 185" fill="none" xmlns="http://www.w3.org/2000/svg">
  <path d="M1.5 30.5H227.568C227.576 30.5051 227.585 30.5103 227.593 30.5156C227.848 30.6776 228.229 30.9224 228.727 31.2497C229.723 31.9045 231.186 32.8893 233.042 34.2023C236.755 36.8283 242.04 40.7662 248.307 46.0001C260.782 56.4197 277.135 71.9652 292.721 92.5107C277.866 112.553 261.521 128.09 248.862 138.63C242.503 143.925 237.08 147.955 233.251 150.659C231.337 152.01 229.821 153.03 228.787 153.71C228.27 154.05 227.874 154.305 227.608 154.474C227.594 154.483 227.581 154.492 227.568 154.5H1.5V30.5Z" stroke-width="3"/>
  <path d="M1.5 30V3L51.5 30" stroke-width="3"/>
  <path d="M1.5 155V182L51.5 155" stroke-width="3"/>
</svg>
