<svg width="407" height="401" viewBox="0 0 407 401" fill="none" xmlns="http://www.w3.org/2000/svg">
  <path d="M176.5 29.5H98.5V67.5H176.5V29.5Z" stroke-width="3" stroke-miterlimit="10"></path>
  <path d="M97.5 81.5H140.5" stroke-width="3" stroke-miterlimit="10"></path>
  <path d="M97.5 151.5H140.5" stroke-width="3" stroke-miterlimit="10"></path>
  <path d="M162.5 151.5H180.5" stroke-width="3" stroke-miterlimit="10"></path>
  <path d="M97.5 90.5H148.5" stroke-width="3" stroke-miterlimit="10"></path>
  <path d="M126.5 116.5H169.5" stroke-width="3" stroke-miterlimit="10"></path>
  <path d="M126.5 125.5H177.5" stroke-width="3" stroke-miterlimit="10"></path>
  <path d="M97.5 100.5H138.5" stroke-width="3" stroke-miterlimit="10"></path>
  <path d="M176.5 81.5H159.5V98.5H176.5V81.5Z" stroke-width="3" stroke-miterlimit="10"></path>
  <path class="fill-svg" d="M115 117H98V134H115V117Z"></path>
  <path d="M82.5 15.5H194.5" stroke-width="3" stroke-miterlimit="10"></path>
  <path d="M194.5 2.5H82.5V164.5H194.5V2.5Z" stroke-width="3" stroke-miterlimit="10"></path>
  <rect x="1.5" y="200.5" width="155" height="153" stroke-width="3"></rect>
  <rect x="190.5" y="223.5" width="75" height="75" stroke-width="3"></rect>
  <rect x="223.5" y="340.5" width="182" height="59" stroke-width="3"></rect>
  <line x1="127.5" y1="199" x2="127.5" y2="355" stroke-width="3"></line>
  <line x1="2" y1="250.5" x2="126" y2="250.5" stroke-width="3"></line>
  <line x1="2" y1="276.5" x2="126" y2="276.5" stroke-width="3" stroke-dasharray="5 8"></line>
  <line x1="2" y1="302.5" x2="126" y2="302.5" stroke-width="3"></line>
  <line x1="2" y1="327.5" x2="126" y2="327.5" stroke-width="3" stroke-dasharray="5 8"></line>
  <path d="M242.444 247C245.886 250.61 248 255.508 248 260.901C248 272.002 239.046 281 228 281C216.954 281 208 272.002 208 260.901C208 255.508 210.114 250.61 213.556 247" stroke-width="3"></path>
  <circle class="fill-svg" cx="228" cy="261" r="10"></circle>
  <rect class="fill-svg" x="16" y="219" width="85" height="12"></rect>
  <rect x="300.5" y="223.5" width="75" height="75" stroke-width="3"></rect>
  <line x1="302" y1="260.5" x2="374" y2="260.5" stroke-width="3" stroke-dasharray="5 8"></line>
  <line x1="337.5" y1="224" x2="337.5" y2="297" stroke-width="3" stroke-dasharray="5 8"></line>
  <line x1="284.5" y1="340" x2="284.5" y2="399" stroke-width="3"></line>
  <line x1="284" y1="370.5" x2="406" y2="370.5" stroke-width="3" stroke-dasharray="5 8"></line>
  <path d="M238.625 371.815L254.291 381.437L268.353 358.541" stroke-width="7"></path>
  <path d="M348.376 106.585H231.624V188.415H348.376V106.585Z" stroke-width="3" stroke-miterlimit="10"></path>
  <path d="M330.798 121.969L348.376 106.585" stroke-width="3" stroke-miterlimit="10"></path>
  <path d="M231.624 106.585L290.656 157.001L313.088 137.481" stroke-width="3" stroke-miterlimit="10"></path>
  <path d="M231.624 188.027L281.473 149.245" stroke-width="3" stroke-miterlimit="10"></path>
  <path d="M348.376 188.027L299.839 149.245" stroke-width="3" stroke-miterlimit="10"></path>
  <path class="fill-svg" d="M331.989 119H311V139.684H331.989V119Z"></path>
</svg>
