<svg xmlns="http://www.w3.org/2000/svg" xmlns:xlink="http://www.w3.org/1999/xlink"><symbol id="icon-arrow" viewBox="0 0 35 28">
  <line x1="-8.74228e-08" y1="14" x2="32" y2="14" stroke-width="2"/>
  <path d="M20 1L33 14L20 27" stroke-width="2"/>
</symbol><symbol id="icon-big-arrow" viewBox="0 0 116 33">
  <path d="M116 16.5L3 16.5" stroke-width="3"/>
  <path d="M17 2L3 16.5L17 31" stroke-width="3"/>
</symbol><symbol id="icon-close" viewBox="0 0 20 20">
<rect x="2.9292" y="0.100586" width="24" height="4" transform="rotate(45 2.9292 0.100586)" fill="black"/>
<rect x="0.100586" y="17.071" width="24" height="4" transform="rotate(-45 0.100586 17.071)" fill="black"/>
</symbol><symbol id="icon-laptop-bottom" viewBox="0 0 859 32">
  <path d="M1.5 1.5H857.5V17C857.5 24.4558 851.456 30.5 844 30.5H15C7.54418 30.5 1.5 24.4558 1.5 17V1.5Z" stroke="black" stroke-width="3"/>
</symbol><symbol id="icon-lighthouse" viewBox="0 0 39 40">
<path d="M0 0.48999V39.29H38.8V0.48999H0ZM15.42 13.72H23.29V15H15.42V13.72ZM23.25 34.06C21.98 33.94 20.7 33.87 19.42 33.87C18.42 33.87 17.42 33.92 16.42 33.99L23.03 30.93L23.25 34.06ZM16.3 7.99999C16.3 7.19638 16.6192 6.42569 17.1875 5.85746C17.7557 5.28922 18.5264 4.96999 19.33 4.96999C20.1336 4.96999 20.9043 5.28922 21.4725 5.85746C22.0408 6.42569 22.36 7.19638 22.36 7.99999H16.3ZM16.74 9.99999H22.15V11.73H16.74V9.99999ZM22.26 17V17.19L16.3 20L16.46 17H22.26ZM16.26 22.31L22.44 19.31L22.58 23L15.96 26.11L16.26 22.31ZM15.93 28.43L22.74 25.16L22.96 28.79L15.66 32.16L15.93 28.43ZM19.51 35.91C22.9669 35.9025 26.4086 36.3668 29.74 37.29H8.97001C12.3724 36.343 15.8883 35.8653 19.42 35.87L19.51 35.91ZM36.89 37.33H35.42C32.2011 35.8403 28.7815 34.8296 25.27 34.33L24.21 17H25.29V11.72H24.1V9.88999C24.3803 9.78981 24.6251 9.60953 24.8038 9.37151C24.9826 9.13349 25.0876 8.84822 25.1057 8.55109C25.1238 8.25396 25.0542 7.95805 24.9057 7.70009C24.7571 7.44212 24.5361 7.23346 24.27 7.09999C24.0793 5.92863 23.4781 4.86332 22.574 4.09452C21.6699 3.32573 20.5218 2.90359 19.335 2.90359C18.1482 2.90359 17.0001 3.32573 16.096 4.09452C15.1919 4.86332 14.5907 5.92863 14.4 7.09999C14.1239 7.24184 13.8979 7.4648 13.7523 7.7389C13.6067 8.013 13.5485 8.32511 13.5855 8.63326C13.6226 8.94142 13.753 9.23086 13.9594 9.46267C14.1658 9.69449 14.4382 9.85757 14.74 9.92999V11.72H13.42V17H14.42L13.52 34.3C9.97182 34.7784 6.51621 35.7898 3.27 37.3H2V2.48999H36.8L36.89 37.33Z"/>
</symbol><symbol id="icon-lock" viewBox="0 0 21 22">
<rect x="1" y="11" width="19" height="10" stroke-width="2"/>
<path d="M4 7.5C4 3.91015 6.91015 1 10.5 1C14.0899 1 17 3.91015 17 7.5V11H4V7.5Z" stroke-width="2"/>
</symbol><symbol id="icon-logo-additional" viewBox="0 0 82 25">
  <path d="M4.82691 8.90425H4.23266C3.56023 8.90425 2.96599 8.80651 2.43951 8.61103C1.91825 8.41555 1.46997 8.14676 1.11029 7.80466C0.750623 7.46257 0.469142 7.06182 0.281487 6.59267C0.093832 6.12351 0 5.61036 0 5.05812C0 4.51077 0.0990389 4.00252 0.291907 3.52847C0.484774 3.05442 0.766249 2.6488 1.13113 2.3067C1.49602 1.96461 1.93911 1.7007 2.46558 1.50033C2.99206 1.30485 3.5863 1.20711 4.25352 1.20711H4.83733V0H5.71305V1.20711H6.29686C6.96408 1.20711 7.56355 1.30485 8.08481 1.50033C8.61129 1.69582 9.05436 1.96461 9.41924 2.3067C9.78413 2.6488 10.0604 3.05442 10.2585 3.52847C10.4566 4.00252 10.5504 4.51077 10.5504 5.05812C10.5504 5.61036 10.4513 6.12351 10.2585 6.59267C10.0656 7.06182 9.78413 7.46745 9.41924 7.80466C9.05436 8.14187 8.61129 8.41066 8.08481 8.61103C7.56355 8.80651 6.96408 8.90425 6.29686 8.90425H5.71305V10.1114H4.83733V8.90425H4.82691ZM4.84255 8.22006V1.87664H4.24308C3.72703 1.87664 3.26832 1.95483 2.86173 2.10633C2.45515 2.25783 2.1059 2.46309 1.81921 2.71721C1.53251 2.97134 1.31359 3.26946 1.15721 3.60178C1.00083 3.93899 0.922632 4.28597 0.922632 4.64272V5.47352C0.922632 5.83028 1.00083 6.17726 1.15721 6.5047C1.31359 6.83702 1.53252 7.13025 1.814 7.38437C2.09549 7.6385 2.43951 7.84376 2.8461 7.99526C3.25268 8.14676 3.7166 8.22495 4.22744 8.22495H4.84255V8.22006ZM6.28123 8.22006C6.78685 8.22006 7.24557 8.14187 7.65737 7.99037C8.06917 7.83887 8.41842 7.63361 8.70512 7.37949C8.99181 7.12536 9.21074 6.83213 9.36712 6.49981C9.52349 6.16749 9.60167 5.8254 9.60167 5.46864V4.63783C9.60167 4.28108 9.52349 3.9341 9.36712 3.59689C9.21074 3.25968 8.99181 2.96646 8.70512 2.71233C8.41842 2.4582 8.06917 2.25294 7.65737 2.10144C7.24557 1.94995 6.78685 1.87175 6.28123 1.87175H5.68699V8.21517H6.28123V8.22006Z"/>
  <path d="M13.4902 9.72471V0.361084H17.4779C18.3588 0.361084 19.0365 0.595664 19.5004 1.06482C19.9643 1.53398 20.1989 2.1693 20.1989 2.97567C20.1989 3.79181 19.9643 4.43201 19.5004 4.90117C19.0365 5.37033 18.3588 5.60491 17.4779 5.60491H14.3607V9.72471H13.4902ZM14.3607 4.89628H17.4779C18.0617 4.89628 18.5048 4.74478 18.8071 4.44667C19.1147 4.14856 19.2658 3.76249 19.2658 3.29821V2.65312C19.2658 2.19862 19.1147 1.81743 18.8071 1.51932C18.4996 1.22121 18.0565 1.06971 17.4779 1.06971H14.3607V4.89628Z"/>
  <path d="M26.605 9.88417C25.3018 9.88417 24.2854 9.47366 23.5504 8.65752C22.8102 7.84137 22.4453 6.63427 22.4453 5.04108C22.4453 3.4479 22.8154 2.24568 23.5504 1.42465C24.2906 0.608513 25.3071 0.197998 26.605 0.197998C27.8977 0.197998 28.909 0.608515 29.6492 1.43443C30.3894 2.26034 30.7543 3.45767 30.7543 5.04108C30.7543 6.62449 30.3842 7.82671 29.6492 8.64774C28.909 9.47365 27.8977 9.88417 26.605 9.88417ZM26.605 9.17066C27.0898 9.17066 27.5276 9.09246 27.9238 8.93608C28.3148 8.77969 28.6536 8.55 28.9351 8.24212C29.2165 7.93912 29.4355 7.56281 29.5918 7.12298C29.7482 6.68314 29.8264 6.18466 29.8264 5.62753V4.44486C29.8264 3.88774 29.7482 3.38926 29.5918 2.94942C29.4355 2.50958 29.2165 2.13816 28.9351 1.84005C28.6536 1.53706 28.3148 1.30736 27.9238 1.14609C27.5329 0.984817 27.0898 0.901737 26.605 0.901737C26.1202 0.901737 25.6772 0.984817 25.281 1.14609C24.8848 1.30736 24.5408 1.53706 24.2593 1.84005C23.9778 2.14305 23.7589 2.50958 23.6025 2.94942C23.4461 3.38926 23.3679 3.88774 23.3679 4.44486V5.62753C23.3679 6.18466 23.4461 6.68314 23.6025 7.12298C23.7589 7.56281 23.9778 7.93423 24.2593 8.24212C24.5408 8.54511 24.8796 8.77969 25.281 8.93608C25.6772 9.09246 26.1202 9.17066 26.605 9.17066Z"/>
  <path d="M40.2892 5.32635H34.7117V9.72471H33.8359V0.361084H34.7117V4.61284H40.2892V0.361084H41.1649V9.72471H40.2892V5.32635Z"/>
  <path d="M47.8997 1.06971V9.71983H47.0292V1.06971H43.6201V0.361084H51.3088V1.06971H47.8997Z"/>
  <path d="M53.7686 9.72472V0.361084H59.7058V1.06971H54.6391V4.61284H59.4556V5.32635H54.6391V9.01609H59.7058V9.7296H53.7686V9.72472Z"/>
  <path d="M69.3019 5.32635H63.7244V9.72471H62.8486V0.361084H63.7244V4.61284H69.3019V0.361084H70.1776V9.72471H69.3019V5.32635Z"/>
  <path d="M72.4872 9.0112H73.5349C73.9832 8.41987 74.322 7.64282 74.5618 6.67029C74.8016 5.69777 74.9162 4.48088 74.9162 3.01476V0.361084H80.6345V9.0112H82.0002V11.7333H81.187V9.71982H73.2951V11.7333H72.4819V9.0112H72.4872ZM79.764 9.0112V1.06971H75.7607V3.05386C75.7607 4.52976 75.6512 5.74664 75.4323 6.70939C75.2134 7.67214 74.9267 8.41987 74.567 8.95744V9.0112H79.764Z"/>
  <path d="M7.76653 24.1346L6.66146 21.2219H2.34017L1.23509 24.1346H0.359375L3.95609 14.771H5.07681L8.68916 24.1346H7.76653ZM4.51905 15.5334H4.46172L2.55389 20.5084H6.42688L4.51905 15.5334Z"/>
  <path d="M11.4507 23.4233H12.879L13.4628 22.0842L9.63672 14.7732H10.5854L13.1605 19.7091L13.8277 21.0922H13.885L14.4532 19.6847L16.58 14.7732H17.4818L13.7703 23.306C13.6244 23.6383 13.4524 23.8582 13.2595 23.9706C13.0666 24.083 12.7799 24.1368 12.3994 24.1368H11.4507V23.4233Z"/>
  <path d="M23.242 15.4818V24.1319H22.3715V15.4818H18.9624V14.7732H26.651V15.4818H23.242Z"/>
  <path d="M32.2816 24.2946C31.0201 24.2946 30.0454 23.8889 29.3573 23.0826C28.6692 22.2713 28.3252 21.074 28.3252 19.4808C28.3252 17.8974 28.6692 16.6903 29.3573 15.8595C30.0454 15.0287 31.0201 14.6133 32.2816 14.6133C33.0948 14.6133 33.7828 14.7892 34.3406 15.1411C34.8983 15.493 35.331 15.9768 35.6437 16.5974L34.9296 16.9884C34.7055 16.4801 34.3666 16.0745 33.9184 15.7764C33.4649 15.4783 32.9227 15.3268 32.2816 15.3268C31.3277 15.3268 30.5875 15.6396 30.0558 16.27C29.5241 16.9004 29.253 17.7948 29.253 18.9628V20.0282C29.253 21.1864 29.5189 22.0709 30.0558 22.6769C30.5875 23.2878 31.3329 23.5908 32.2816 23.5908C32.9592 23.5908 33.5274 23.4295 33.9861 23.1168C34.4448 22.7991 34.7837 22.3739 35.0026 21.8364L35.7167 22.2273C35.4144 22.8724 34.9765 23.3807 34.3927 23.7521C33.8089 24.1137 33.1052 24.2946 32.2816 24.2946Z"/>
  <path d="M41.9878 24.2938C40.6846 24.2938 39.6682 23.8833 38.9332 23.0672C38.193 22.251 37.8281 21.0439 37.8281 19.4508C37.8281 17.8576 38.1982 16.6553 38.9332 15.8343C39.6734 15.0182 40.6899 14.6077 41.9878 14.6077C43.2805 14.6077 44.2918 15.0182 45.032 15.8441C45.7722 16.67 46.1371 17.8673 46.1371 19.4508C46.1371 21.0342 45.767 22.2364 45.032 23.0574C44.297 23.8833 43.2805 24.2938 41.9878 24.2938ZM41.9878 23.5852C42.4726 23.5852 42.9104 23.507 43.3066 23.3506C43.6976 23.1942 44.0364 22.9645 44.3179 22.6567C44.5993 22.3537 44.8183 21.9774 44.9747 21.5375C45.131 21.0977 45.2092 20.5992 45.2092 20.0421V18.8594C45.2092 18.3023 45.131 17.8038 44.9747 17.364C44.8183 16.9241 44.5993 16.5527 44.3179 16.2546C44.0364 15.9516 43.6976 15.7219 43.3066 15.5606C42.9157 15.3994 42.4726 15.3163 41.9878 15.3163C41.503 15.3163 41.06 15.3994 40.6638 15.5606C40.2676 15.7219 39.9236 15.9516 39.6421 16.2546C39.3606 16.5576 39.1417 16.9241 38.9853 17.364C38.829 17.8038 38.7508 18.3023 38.7508 18.8594V20.0421C38.7508 20.5992 38.829 21.0977 38.9853 21.5375C39.1417 21.9774 39.3606 22.3488 39.6421 22.6567C39.9236 22.9597 40.2624 23.1942 40.6638 23.3506C41.0652 23.507 41.503 23.5852 41.9878 23.5852Z"/>
  <path d="M49.2217 24.1368V14.7732H53.2093C54.0903 14.7732 54.7679 15.0078 55.2319 15.4769C55.6958 15.9461 55.9303 16.5814 55.9303 17.3878C55.9303 18.2039 55.6958 18.8441 55.2319 19.3133C54.7679 19.7824 54.0903 20.017 53.2093 20.017H50.0922V24.1368H49.2217ZM50.0974 19.3035H53.2146C53.7984 19.3035 54.2415 19.152 54.5438 18.8539C54.8513 18.5558 55.0025 18.1697 55.0025 17.7054V17.0603C55.0025 16.6058 54.8513 16.2246 54.5438 15.9265C54.2362 15.6284 53.7932 15.4769 53.2146 15.4769H50.0974V19.3035Z"/>
  <path d="M62.1346 24.2946C60.8732 24.2946 59.8984 23.8889 59.2103 23.0826C58.5223 22.2713 58.1782 21.074 58.1782 19.4808C58.1782 17.8974 58.5223 16.6903 59.2103 15.8595C59.8984 15.0287 60.8732 14.6133 62.1346 14.6133C62.9478 14.6133 63.6359 14.7892 64.1936 15.1411C64.7514 15.493 65.184 15.9768 65.4968 16.5974L64.7827 16.9884C64.5585 16.4801 64.2197 16.0745 63.7714 15.7764C63.3179 15.4783 62.7758 15.3268 62.1346 15.3268C61.1807 15.3268 60.4405 15.6396 59.9088 16.27C59.3771 16.9004 59.1061 17.7948 59.1061 18.9628V20.0282C59.1061 21.1864 59.3719 22.0709 59.9088 22.6769C60.4405 23.2878 61.1859 23.5908 62.1346 23.5908C62.8123 23.5908 63.3805 23.4295 63.8392 23.1168C64.2979 22.7991 64.6367 22.3739 64.8556 21.8364L65.5698 22.2273C65.2674 22.8724 64.8296 23.3807 64.2458 23.7521C63.6671 24.1137 62.9634 24.2946 62.1346 24.2946Z"/>
</symbol><symbol id="icon-mail" viewBox="0 0 29 23">
  <rect x="1" y="1" width="27" height="21" stroke-width="2"/>
  <path d="M2 2L15 15L28 2" stroke-width="2"/>
</symbol><symbol id="icon-moon-dark" viewBox="0 0 7 7">
  <path fill-rule="evenodd" clip-rule="evenodd" d="M2.98178 7C4.91477 7 6.48178 5.433 6.48178 3.5C6.48178 1.567 4.91477 0 2.98178 0C1.72114 0 0.61617 0.66648 0 1.6663C0.20281 1.59458 0.421069 1.55556 0.648443 1.55556C1.72233 1.55556 2.59289 2.42611 2.59289 3.5C2.59289 4.57389 1.72233 5.44444 0.648443 5.44444C0.421069 5.44444 0.20281 5.40542 8.9407e-08 5.3337C0.61617 6.33352 1.72114 7 2.98178 7Z" fill="white"/>
</symbol><symbol id="icon-union-1" viewBox="0 0 42 42">
<path fill-rule="evenodd" clip-rule="evenodd" d="M24.7398 0.47L24.1498 0.36H23.9498C23.2881 0.248903 22.6202 0.178769 21.9498 0.15H21.5498C21.4002 0.134827 21.2494 0.134827 21.0998 0.15H20.7398C20.1198 0 19.4898 0 18.8698 0C13.9153 0.0079335 9.16606 1.9796 5.66272 5.48294C2.15939 8.98627 0.187725 13.7355 0.179792 18.69C0.177679 19.3111 0.207716 19.932 0.269788 20.55V20.68C0.267678 24.5867 1.37705 28.4134 3.46837 31.7132C5.55969 35.0131 8.54665 37.6498 12.0804 39.3156C15.6142 40.9814 19.549 41.6074 23.4252 41.1207C27.3015 40.6339 30.9593 39.0544 33.9715 36.5666C36.9837 34.0788 39.226 30.7854 40.4365 27.0709C41.647 23.3565 41.7757 19.3743 40.8077 15.5894C39.8397 11.8045 37.815 8.37313 34.9698 5.69592C32.1246 3.01871 28.5765 1.20619 24.7398 0.47ZM20.8198 39.27C15.891 39.2647 11.1657 37.3044 7.68052 33.8193C4.19537 30.3341 2.23508 25.6087 2.22979 20.68H1.22979L2.22979 20.54V20.42C1.97132 17.9459 2.26917 15.4453 3.10156 13.1011C3.93395 10.7569 5.27981 8.62844 7.04071 6.87138C8.80161 5.11431 10.933 3.77308 13.279 2.94581C15.625 2.11854 18.1262 1.82614 20.5998 2.09H21.9298C22.5098 2.09 23.0998 2.18 23.6898 2.27H23.8698L24.3698 2.36C28.9071 3.2399 32.9539 5.77842 35.7209 9.48042C38.488 13.1824 39.7767 17.7824 39.3359 22.3832C38.895 26.9839 36.7562 31.2555 33.3365 34.3647C29.9169 37.4739 25.4616 39.1977 20.8398 39.2L20.8198 39.27ZM22.4797 2.53004C19.9295 2.53651 17.4228 3.19045 15.1945 4.43054C12.9662 5.67063 11.0892 7.45627 9.73968 9.62004C8.45653 11.4101 7.69811 13.5226 7.54967 15.72C7.46589 16.3466 7.42247 16.9779 7.41968 17.61V18V18.3V18.69C7.42233 22.4261 8.90765 26.0084 11.5495 28.6502C14.1913 31.2921 17.7736 32.7774 21.5097 32.78C22.1054 32.7797 22.7003 32.7363 23.2897 32.65C27.2153 32.4476 30.9064 30.7194 33.5758 27.834C36.2452 24.9486 37.6815 21.1344 37.5785 17.2049C37.4754 13.2754 35.8411 9.54177 33.0241 6.80026C30.2071 4.05874 26.4305 2.52639 22.4997 2.53004H22.4797ZM29.3097 15.43V15.98V16.28V16.53C29.2279 19.1078 28.1463 21.5526 26.294 23.3471C24.4416 25.1415 21.9637 26.145 19.3847 26.145C16.8056 26.145 14.3278 25.1415 12.4754 23.3471C10.623 21.5526 9.54151 19.1078 9.45968 16.53V15.92C9.70233 14.0787 10.3329 12.3097 11.3097 10.73C12.2274 9.46413 13.4292 8.43106 14.8186 7.7138C16.208 6.99655 17.7462 6.61508 19.3097 6.60004H19.7397H19.8297C20.2265 6.53599 20.6277 6.50256 21.0297 6.50004C23.2063 6.50268 25.293 7.36851 26.8321 8.90761C28.3712 10.4467 29.237 12.5334 29.2397 14.71V15.27V15.42L29.3097 15.43ZM23.0897 30.66C22.5596 30.7351 22.0251 30.7752 21.4897 30.78C19.4852 30.7802 17.5122 30.2811 15.7489 29.3279C13.9856 28.3746 12.4874 26.9972 11.3897 25.32C13.093 26.8846 15.2153 27.9189 17.4971 28.2964C19.7789 28.674 22.1213 28.3784 24.2378 27.4459C26.3543 26.5134 28.1532 24.9843 29.4144 23.0457C30.6757 21.107 31.3447 18.8429 31.3397 16.53V16.21V15.98V15.33V14.72C31.3333 12.1567 30.3648 9.68912 28.6259 7.80577C26.887 5.92241 24.5044 4.76051 21.9497 4.55004H22.4797C25.9123 4.52088 29.2186 5.84336 31.6843 8.23175C34.15 10.6201 35.577 13.8827 35.6571 17.3145C35.7372 20.7464 34.464 24.072 32.1125 26.5728C29.761 29.0737 26.52 30.549 23.0897 30.68V30.66ZM16.763 10.5346C18.0556 9.67094 19.5752 9.20996 21.1298 9.20996C23.2136 9.21261 25.2112 10.0416 26.6847 11.515C28.1582 12.9885 28.9871 14.9862 28.9898 17.07C28.9898 18.6245 28.5288 20.1442 27.6651 21.4367C26.8015 22.7293 25.5739 23.7367 24.1377 24.3317C22.7014 24.9266 21.121 25.0822 19.5964 24.7789C18.0717 24.4757 16.6712 23.7271 15.5719 22.6278C14.4727 21.5286 13.7241 20.1281 13.4208 18.6034C13.1175 17.0787 13.2732 15.4983 13.8681 14.0621C14.463 12.6258 15.4704 11.3983 16.763 10.5346ZM23.4398 15.67C23.7748 15.4326 24.0378 15.1073 24.1998 14.73C24.3066 14.5455 24.3726 14.3402 24.3933 14.128C24.414 13.9158 24.3889 13.7016 24.3198 13.5C23.9777 13.7323 23.7102 14.0588 23.5498 14.44C23.4433 14.6247 23.3784 14.8305 23.3594 15.0428C23.3404 15.2552 23.3678 15.4692 23.4398 15.67ZM18.6005 22.3624C19.3907 22.738 20.2549 22.9319 21.1298 22.93C22.6779 22.9194 24.1592 22.2977 25.2511 21.2001C26.3431 20.1026 26.9572 18.6181 26.9598 17.07C26.9616 16.1449 26.7422 15.2329 26.3198 14.41C26.2646 14.8026 26.157 15.186 25.9998 15.55C25.7089 16.2156 25.2422 16.7895 24.6498 17.21C24.261 17.4786 23.8022 17.628 23.3298 17.64C23.0607 17.6386 22.795 17.5807 22.5498 17.47C22.0777 17.2336 21.7183 16.8202 21.5498 16.32C21.2573 15.4298 21.3256 14.4604 21.7398 13.62C22.0216 12.9546 22.4819 12.3801 23.0698 11.96C23.2136 11.8656 23.368 11.7884 23.5298 11.73C22.7325 11.3697 21.8647 11.1925 20.99 11.2113C20.1153 11.2302 19.256 11.4447 18.475 11.8391C17.694 12.2335 17.0113 12.7977 16.4769 13.4904C15.9424 14.1831 15.5699 14.9867 15.3866 15.8421C15.2033 16.6976 15.2138 17.5833 15.4175 18.4341C15.6212 19.285 16.0128 20.0794 16.5636 20.7592C17.1144 21.4389 17.8104 21.9867 18.6005 22.3624Z"/>
</symbol><symbol id="icon-union-2" viewBox="0 0 46 40">
<path fill-rule="evenodd" clip-rule="evenodd" d="M41.9102 39.21H4.67023C3.62702 39.2074 2.62743 38.7911 1.8907 38.0525C1.15396 37.3139 0.740231 36.3132 0.740234 35.27V4.19001C0.742874 3.14852 1.15777 2.15044 1.89422 1.414C2.63067 0.67755 3.62875 0.26265 4.67023 0.26001H41.9102C42.9487 0.275431 43.9404 0.694125 44.6757 1.42755C45.411 2.16097 45.8322 3.15163 45.8502 4.19001V35.27C45.8347 36.3101 45.4147 37.3033 44.6791 38.0389C43.9435 38.7744 42.9504 39.1945 41.9102 39.21ZM2.74023 35.27V8.00001H43.8502V35.27C43.8502 35.7845 43.6458 36.278 43.282 36.6418C42.9182 37.0056 42.4248 37.21 41.9102 37.21H4.67023C4.15745 37.2074 3.66657 37.0018 3.30491 36.6383C2.94325 36.2747 2.74023 35.7828 2.74023 35.27ZM8.23029 4.50992C8.23029 5.38805 7.51843 6.09992 6.64029 6.09992C5.76216 6.09992 5.05029 5.38805 5.05029 4.50992C5.05029 3.63179 5.76216 2.91992 6.64029 2.91992C7.51843 2.91992 8.23029 3.63179 8.23029 4.50992ZM11.7401 6.09992C12.6183 6.09992 13.3301 5.38805 13.3301 4.50992C13.3301 3.63179 12.6183 2.91992 11.7401 2.91992C10.862 2.91992 10.1501 3.63179 10.1501 4.50992C10.1501 5.38805 10.862 6.09992 11.7401 6.09992ZM39.8602 31.6401H30.9302V30.3701C30.9302 28.3332 30.1211 26.3798 28.6808 24.9395C28.4536 24.7122 28.2135 24.5007 27.9624 24.3056C26.6648 27.5085 25.4241 30.5278 25.1702 31C24.8807 31.4659 24.4219 31.8015 23.8901 31.9362C23.3584 32.0709 22.7952 31.9943 22.3188 31.7224C21.8424 31.4505 21.4899 31.0046 21.3354 30.4783C21.1809 29.952 21.2363 29.3863 21.4902 28.9C21.748 28.4556 23.7105 25.8678 25.8115 23.1298C24.9965 22.8414 24.1312 22.6901 23.2502 22.6901C21.2134 22.6901 19.2599 23.4992 17.8197 24.9395C16.3794 26.3798 15.5702 28.3332 15.5702 30.3701L15.6202 31.5801L14.6202 31.6401H6.74023V30.3701C6.84655 26.0394 8.64162 21.9217 11.7422 18.8964C14.8428 15.871 19.0032 14.1775 23.3352 14.1775C26.1031 14.1775 28.8009 14.8688 31.197 16.1572L31.2802 16.05L31.2303 16.1751C32.5717 16.9003 33.8179 17.8129 34.9283 18.8964C38.0289 21.9217 39.8239 26.0394 39.9302 30.3701L39.8602 31.6401ZM29.8896 23.249C29.5328 22.917 29.1536 22.6143 28.7558 22.3425C29.4456 20.632 30.097 19.008 30.5653 17.8384C31.5515 18.4041 32.4755 19.0874 33.3155 19.8796C36.0231 22.4331 37.6525 25.9247 37.8702 29.6401H32.9502C32.7745 27.1995 31.6809 24.916 29.8896 23.249ZM30.0938 17.5793C29.3179 18.5808 28.2414 19.9722 27.1113 21.4393C25.9159 20.9265 24.6188 20.6553 23.2952 20.6553C20.8483 20.6553 18.4921 21.582 16.7008 23.249C14.9095 24.916 13.816 27.1995 13.6402 29.6401H8.74023C8.95801 25.9247 10.5874 22.4331 13.2949 19.8796C16.0025 17.3261 19.5835 15.9038 23.3052 15.9038C25.6901 15.9038 28.0173 16.4879 30.0938 17.5793Z"/>
</symbol><symbol id="so-so-rocket" viewBox="0 0 422 171">
<path d="M1.5 80.5C1.5 46.2583 29.2584 18.5 63.5 18.5H358.5C392.742 18.5 420.5 46.2583 420.5 80.5C420.5 114.742 392.742 142.5 358.5 142.5H63.5C29.2584 142.5 1.5 114.742 1.5 80.5Z" stroke-width="3"/>
<path d="M40 24V2H64.314L78 18" stroke-width="3"/>
<path d="M40 138V160H64.314L78 144" stroke-width="3"/>
<path d="M173.5 142.5H243.986L238.58 160.581C236.997 165.874 232.128 169.5 226.604 169.5H186C179.096 169.5 173.5 163.904 173.5 157V142.5Z" stroke-width="3"/>
</symbol><symbol id="logo-greenlabs" viewBox="0 0 152 26">
<path d="M17.943 8.00326C16.5308 6.85994 15.077 5.94952 13.2702 5.63193C9.42818 4.95441 6.70759 7.57981 5.75227 10.3111C4.46466 14.0375 5.60689 18.2085 8.59747 20.0717C11.235 21.702 13.914 21.4479 16.5516 19.987C16.78 19.8599 16.9877 19.5212 17.0085 19.2671C17.0708 18.2297 17.0292 17.2134 17.0292 16.0912C15.3263 16.0912 13.7271 16.0912 12.0657 16.0912C12.0657 14.5244 12.0657 13.0635 12.0657 11.5391C12.2734 11.4968 12.4603 11.4544 12.668 11.4544C15.4716 11.4544 18.2753 11.4756 21.079 11.4332C21.7435 11.4332 21.9927 11.6238 21.972 12.3225C21.9304 15.3502 21.972 18.399 21.9512 21.4267C21.9512 21.7443 21.8058 22.1466 21.5981 22.3371C17.0292 26.4658 9.65663 27.3762 4.67234 23.544C2.2425 21.6808 0.830286 19.1612 0.290321 16.1547C-0.561161 11.5391 0.435696 7.38926 3.77932 4.04398C6.52068 1.27037 9.90584 0.317597 13.7479 0.719877C16.1777 0.973949 18.3791 1.75734 20.2898 3.30294C20.4559 3.42998 20.6221 3.55701 20.7674 3.70522C20.8505 3.76874 20.892 3.8746 21.0166 4.02281C20.0198 5.33551 19.0022 6.64822 17.943 8.00326Z" fill="black"/>
<path d="M118.604 0C120.204 0 121.72 0 123.381 0C123.381 3.09121 123.381 6.16124 123.381 9.48534C123.963 8.87134 124.316 8.44788 124.71 8.08795C127.389 5.67427 131.668 5.99186 134.347 8.78664C137.856 12.4283 137.836 19.9023 134.388 23.5863C131.771 26.3811 126.6 26.8681 123.963 23.6287C123.859 23.5016 123.713 23.3958 123.443 23.1629C123.402 24.0309 123.381 24.7508 123.34 25.513C121.761 25.513 120.224 25.513 118.604 25.513C118.604 17.044 118.604 8.57492 118.604 0ZM127.659 10.9674C126.392 10.9251 125.375 11.4544 124.586 12.4283C123.111 14.2492 122.924 17.2345 124.108 19.2671C124.959 20.7068 126.185 21.4902 127.867 21.4267C129.549 21.342 130.795 20.4951 131.398 18.9283C131.792 17.8909 132.041 16.684 132 15.5619C131.834 12.8094 129.985 10.9674 127.659 10.9674Z" fill="black"/>
<path d="M52.8957 17.9756C48.5967 17.9756 44.5885 17.9756 40.4765 17.9756C40.5596 19.4153 41.2449 20.4104 42.3248 21.1303C44.1109 22.316 46.0215 21.956 49.0744 19.9446C49.9051 20.728 50.7566 21.4902 51.5873 22.2948C51.6496 22.3583 51.6911 22.4642 51.7535 22.6124C49.822 25.1531 47.1845 26.1694 44.1316 26C40.0819 25.7671 37.029 23.3111 35.9283 19.5635C34.6823 15.3713 35.9906 10.7345 39.0435 8.27851C42.7817 5.25082 50.3828 5.58959 52.2726 13.0635C52.6465 14.5668 52.688 16.1971 52.8957 17.9756ZM47.8699 14.715C47.5583 12.1108 46.2084 10.6922 44.1316 10.6922C42.1172 10.7134 40.6842 12.2166 40.3934 14.715C42.8648 14.715 45.3362 14.715 47.8699 14.715Z" fill="black"/>
<path d="M71.1507 17.9968C67.0802 17.9968 63.0512 17.9968 59.0223 17.9968C59.1884 21.2785 63.5081 23.6075 67.5994 19.9023C68.5132 20.7492 69.427 21.6173 70.3407 22.4642C68.0147 25.5554 64.3388 26.6987 60.3929 25.5766C57.0493 24.6238 54.5364 21.4479 54.1418 17.8274C53.768 14.461 54.4949 11.518 56.8001 8.97724C60.2891 5.12382 68.3263 5.31438 70.59 12.1955C71.1922 14.0375 71.3584 15.943 71.1507 17.9968ZM66.3533 14.715C66.3741 12.3649 64.6711 10.6499 62.5113 10.6922C60.476 10.7134 58.7938 13.0424 59.043 14.715C61.4936 14.715 63.9235 14.715 66.3533 14.715Z" fill="black"/>
<path d="M115.656 25.5342C114.077 25.5342 112.603 25.5342 111.045 25.5342C111.004 24.9414 110.962 24.3485 110.921 23.6498C110.63 23.9039 110.422 24.0733 110.235 24.2427C108.2 26.0423 104.732 26.4234 102.364 25.1319C100.225 23.9674 99.2282 21.6173 99.6851 18.8013C100.038 16.557 101.887 14.8208 104.358 14.355C106.331 13.9739 108.262 14.0798 110.194 14.6515C110.422 14.715 110.651 14.7573 110.879 14.7997C111.232 12.9577 110.048 11.2427 108.2 11.2215C106.269 11.2003 104.337 11.5179 102.219 11.7085C101.907 10.7134 101.513 9.42182 101.077 8.06677C104.482 6.54234 107.93 6.01303 111.46 7.17752C114.181 8.06677 115.489 10.2899 115.593 13.0423C115.78 17.171 115.656 21.2997 115.656 25.5342ZM107.971 17.2557C107.971 17.298 107.971 17.3192 107.951 17.3616C107.535 17.3616 107.099 17.298 106.705 17.3827C105.687 17.5945 104.752 18.0179 104.462 19.1612C104.212 20.0717 104.275 21.0033 105.064 21.6808C106.933 23.2476 110.547 21.956 111.024 19.5635C111.294 18.2296 111.107 17.912 109.778 17.5945C109.197 17.4039 108.574 17.3404 107.971 17.2557Z" fill="black"/>
<path d="M89.3847 25.5342C87.8686 25.5342 86.3318 25.5342 84.6496 25.5342C84.6496 25.0896 84.6496 24.6873 84.6496 24.285C84.6081 20.8762 84.6081 17.4463 84.4835 14.0375C84.4212 12.3013 83.1751 11.2427 81.576 11.2215C79.9353 11.2003 78.6269 12.3013 78.5231 14.0163C78.3777 16.3665 78.3985 18.7378 78.3569 21.088C78.3362 22.5277 78.3569 23.9675 78.3569 25.5131C76.7371 25.5131 75.1795 25.5131 73.5596 25.5131C73.5596 19.3095 73.5596 13.1271 73.5596 6.85996C75.1172 6.85996 76.654 6.85996 78.2946 6.85996C78.3362 7.62217 78.357 8.40556 78.4193 9.42185C78.8554 8.93488 79.1669 8.57494 79.4784 8.25735C81.3683 6.39416 83.5697 6.0554 85.9788 6.94465C88.3671 7.8339 89.3847 9.86647 89.4678 12.2166C89.6339 16.5782 89.5093 20.9609 89.5093 25.3225C89.4885 25.3648 89.4262 25.4284 89.3847 25.5342Z" fill="black"/>
<path d="M151.543 8.72311C150.92 9.92995 150.297 11.0944 149.757 12.1319C148.386 11.6238 147.119 11.0521 145.811 10.6922C145.23 10.5228 144.482 10.5863 143.9 10.798C142.862 11.1791 142.737 12.2801 143.651 12.9153C144.274 13.3387 145.001 13.614 145.686 13.9104C146.787 14.3762 147.95 14.7361 149.03 15.2866C151.148 16.3876 152.208 18.3143 151.979 20.4104C151.668 23.184 150.276 24.9837 147.805 25.5554C144.357 26.3599 141.18 25.6189 138.293 23.5651C137.919 23.2899 137.691 23.0358 138.023 22.5277C138.646 21.5961 139.207 20.6221 139.788 19.6694C141.429 20.7915 143.049 21.7655 145.043 21.829C145.562 21.8501 146.123 21.8501 146.559 21.6596C146.933 21.4902 147.369 21.0032 147.389 20.6221C147.41 20.1987 147.14 19.5212 146.787 19.3518C145.707 18.8013 144.565 18.4625 143.423 18.0391C142.883 17.8273 142.322 17.658 141.782 17.4039C139.207 16.1547 138.272 14.2915 138.667 11.285C138.958 9.14657 140.848 7.24103 143.174 6.77523C145.956 6.1824 148.864 6.85992 151.543 8.72311Z" fill="black"/>
<path d="M24.7549 6.79643C26.4163 6.79643 27.9739 6.79643 29.6561 6.79643C29.6561 7.91858 29.6561 8.99839 29.6561 10.0994C30.9229 7.89741 32.4805 6.30946 35.2219 6.52119C35.2219 8.32086 35.2219 10.0782 35.2219 11.9202C34.6819 11.9837 34.1004 11.9837 33.5605 12.1319C31.1929 12.7248 29.7184 14.8209 29.6976 17.7003C29.6769 20.2622 29.6976 22.8453 29.6976 25.4919C28.057 25.4919 26.4578 25.4919 24.7757 25.4919C24.7549 19.3095 24.7549 13.1059 24.7549 6.79643Z" fill="black"/>
<path d="M97.3799 25.5342C95.76 25.5342 94.2232 25.5342 92.624 25.5342C92.624 17.0228 92.624 8.53258 92.624 0.0211792C94.2024 0.0211792 95.76 0.0211792 97.3799 0.0211792C97.3799 8.51141 97.3799 16.9805 97.3799 25.5342Z" fill="black"/>
</symbol><symbol id="logo-html-academy" viewBox="0 0 150 52">
<path d="M62.3005 38.1763C62.085 38.2303 61.8155 38.3383 61.546 38.3383C61.1149 38.3383 60.6838 38.1223 60.6838 37.4744V33.3165C60.6838 29.8067 58.6358 28.2407 55.3483 28.2407C53.5159 28.2407 51.8453 28.6727 50.9291 28.9967V31.3726C51.953 30.9406 53.4082 30.4546 55.0788 30.4546C57.0729 30.4546 58.0969 31.4806 58.0969 32.9385V33.3705C57.1807 33.1545 56.1028 33.0465 55.0788 33.0465C52.6536 33.0465 49.959 33.9645 49.959 36.9344C49.959 39.3103 51.8991 40.4982 54.001 40.4982C55.7795 40.4982 57.2346 39.9043 58.3663 38.9863C58.7975 39.9043 59.6059 40.3363 60.6838 40.3363C61.2766 40.3363 61.8155 40.2283 62.3005 40.0663V38.1763ZM58.1508 37.0964C57.2346 38.0143 56.0489 38.4463 54.8094 38.4463C53.6776 38.4463 52.6536 37.8524 52.6536 36.7184C52.6536 35.2605 54.2166 34.8285 55.6717 34.8285C56.4801 34.8285 57.4502 34.9905 58.1508 35.0985V37.0964Z" fill="black"/>
<path d="M69.63 40.4443C71.0852 40.4443 72.3247 40.1743 73.4565 39.6343V37.2584C72.5403 37.7984 71.3007 38.1763 70.1151 38.1763C68.0671 38.1763 66.0731 36.9884 66.0731 34.3425C66.0731 31.6426 68.121 30.5086 70.169 30.5086C71.3546 30.5086 72.5403 30.8866 73.3487 31.4806V29.1587C72.3247 28.5647 71.0852 28.2407 69.7917 28.2407C66.7198 28.2407 63.4323 30.1307 63.4323 34.4505C63.3784 38.6083 66.5581 40.4443 69.63 40.4443Z" fill="black"/>
<path d="M80.1931 33.0467C77.7679 33.0467 75.0732 33.9647 75.0732 36.9346C75.0732 39.3105 77.0134 40.4985 79.1152 40.4985C80.8937 40.4985 82.3488 39.9045 83.4806 38.9865C83.9117 39.9045 84.7201 40.3365 85.798 40.3365C86.3908 40.3365 86.9298 40.2285 87.4148 40.0665V38.2305C87.1992 38.2845 86.9298 38.3925 86.6603 38.3925C86.2292 38.3925 85.798 38.1765 85.798 37.5286V33.3707C85.798 29.8609 83.7501 28.2949 80.4626 28.2949C78.6302 28.2949 76.9595 28.7269 76.0433 29.0509V31.4268C77.0673 30.9948 78.5224 30.5088 80.1931 30.5088C82.1872 30.5088 83.2111 31.5348 83.2111 32.9927V33.4247C82.2949 33.2087 81.1632 33.0467 80.1931 33.0467ZM83.2111 37.0966C82.2949 38.0145 81.1093 38.4465 79.8697 38.4465C78.738 38.4465 77.714 37.8526 77.714 36.7186C77.714 35.2607 79.2769 34.8287 80.732 34.8287C81.5404 34.8287 82.5105 34.9907 83.2111 35.0987V37.0966Z" fill="black"/>
<path d="M88.4395 34.3425C88.4395 37.6904 90.6491 40.4443 94.1521 40.4443C96.3079 40.4443 97.7091 39.4183 98.5714 38.2844V40.1203H100.889V23.2729H98.3019V30.0767C97.4935 29.1587 96.1462 28.2948 94.1521 28.2948C90.703 28.2948 88.4395 31.0487 88.4395 34.3425ZM98.3019 32.9386V35.7465C97.763 37.0424 96.4157 38.1764 94.6372 38.1764C92.5892 38.1764 91.0802 36.6104 91.0802 34.3425C91.0802 32.0746 92.5892 30.5087 94.6372 30.5087C96.4157 30.5087 97.763 31.6966 98.3019 32.9386Z" fill="black"/>
<path d="M109.942 40.4443C111.559 40.4443 113.014 40.1743 114.092 39.6343V37.4204C113.122 37.9064 111.828 38.2303 110.427 38.2303C108.325 38.2303 106.277 37.3664 106.008 35.3145H114.685C115.439 31.9666 113.822 28.2407 109.241 28.2407C106.547 28.2407 103.421 30.1307 103.421 34.3425C103.421 38.4463 106.385 40.4443 109.942 40.4443ZM109.349 30.4006C111.882 30.4006 112.475 32.3986 112.367 33.3705H105.954C106.062 31.4266 107.625 30.4006 109.349 30.4006Z" fill="black"/>
<path d="M132.901 32.9927V40.1745H135.488V32.9387C135.488 30.5628 134.141 28.2949 131.123 28.2949C129.452 28.2949 128.105 29.1589 127.081 30.1308C126.434 28.9969 125.194 28.2949 123.47 28.2949C121.584 28.2949 120.236 29.3749 119.643 30.0769V28.6189H117.38V40.1745H119.967V32.3448C120.56 31.5888 121.637 30.5628 123.039 30.5628C124.44 30.5628 125.302 31.4808 125.302 32.9927V40.1745H127.889V32.9387C127.889 32.6688 127.889 32.3988 127.835 32.1288C128.428 31.4268 129.398 30.5628 130.692 30.5628C131.985 30.5628 132.901 31.4808 132.901 32.9927Z" fill="black"/>
<path d="M149.5 28.5649H146.806L143.356 37.3126L139.476 28.5649H136.728L142.225 40.2285L142.009 40.8225C141.362 42.6044 140.392 43.5224 139.153 43.5224C138.775 43.5224 138.344 43.4684 137.967 43.3604V45.5743C138.452 45.6823 138.991 45.7903 139.476 45.7903C141.255 45.7903 142.871 44.7643 144.111 41.7404L149.5 28.5649Z" fill="black"/>
<path d="M53.408 12.2576C54.0547 11.3396 55.1865 10.3136 56.6416 10.3136C58.2045 10.3136 59.3362 11.2316 59.3362 13.0675V19.8713H61.9231V12.7436C61.9231 9.98966 60.0908 8.04573 57.1805 8.04573C55.6176 8.04573 54.2703 8.7477 53.4619 9.61167V3.02393H50.875V19.8713H53.4619V12.2576H53.408Z" fill="black"/>
<path d="M66.3966 16.3614C66.3966 19.0613 68.1212 20.1953 70.3847 20.1953C71.5164 20.1953 72.5943 19.9793 73.5105 19.7093V17.4954C72.8099 17.7654 72.0015 17.9274 71.1931 17.9274C69.6841 17.9274 68.9835 17.4414 68.9835 15.9295V10.6377H73.1871V8.36975H68.9835V4.21191L66.3966 4.85989V8.36975H64.3486V10.6377H66.3966V16.3614Z" fill="black"/>
<path d="M78.9539 12.0957C79.5467 11.3398 80.6246 10.3138 82.0258 10.3138C83.427 10.3138 84.2893 11.2318 84.2893 12.7437V19.9254H86.8762V12.6897C86.8762 12.4197 86.8762 12.1497 86.8223 11.8798C87.4151 11.1778 88.3852 10.3138 89.6786 10.3138C91.0799 10.3138 91.9422 11.2318 91.9422 12.7437V19.9254H94.529V12.6897C94.529 10.3138 93.1817 8.0459 90.1637 8.0459C88.493 8.0459 87.1457 8.90987 86.1217 9.88183C85.475 8.74787 84.2354 8.0459 82.5108 8.0459C80.6246 8.0459 79.2772 9.12586 78.6844 9.82783V8.36989H76.4209V19.9254H79.0078V12.0957H78.9539Z" fill="black"/>
<path d="M100.889 3.02393H98.3018V19.8713H100.889V3.02393Z" fill="black"/>
<path d="M20.695 0H20.4795L0 2.15992V39.7965L20.4795 52L40.9589 39.7965V2.15992L20.695 0ZM38.2642 38.2305L20.4795 48.8681L2.69466 38.2305V22.8411L20.4256 33.4247L20.4795 35.3146L8.29957 28.0789V29.9149L20.4795 37.2586L20.5333 39.2025L8.29957 31.9668V33.8027L20.4795 41.2004L32.821 33.8027V31.9128V31.2648V30.5088V25.811L38.2642 22.5711V38.2305ZM38.2642 20.5732L33.4138 23.4351L31.1503 24.785L20.4256 18.3593V20.1952L29.5874 25.649L29.4796 25.703L29.2641 25.811L27.9706 26.567L20.4256 22.0312V23.8671L26.4077 27.5389L25.0065 28.4569H24.9526L20.4256 25.811V27.6469L23.3897 29.3749L20.3717 31.2108L2.69466 20.7352L20.3717 10.0976L38.2642 20.5732ZM38.2642 18.6833L20.3717 8.09969L2.69466 18.6833V4.58982L20.4795 2.6999L38.2642 4.58982V18.6833Z" fill="black"/>
</symbol><symbol id="logo-kelnik" viewBox="0 0 100 30">
<path d="M4.31506 0.287894V28.0697C4.31506 28.2137 4.17586 28.3576 4.03667 28.3576H0.278391C0.139195 28.3576 0 28.2137 0 28.0697V0.287894C0 0.143947 0.139195 0 0.278391 0H4.03667C4.17586 0 4.31506 0.143947 4.31506 0.287894ZM48.0224 0H44.5425C44.4034 0 44.2642 0.143947 44.2642 0.287894V28.0697C44.2642 28.2137 44.4034 28.3576 44.5425 28.3576H48.0224C48.1616 28.3576 48.3008 28.2137 48.3008 28.0697V0.287894C48.3008 0.143947 48.1616 0 48.0224 0ZM85.8836 0H82.4037C82.2645 0 82.1253 0.143947 82.1253 0.287894V28.0697C82.1253 28.2137 82.2645 28.3576 82.4037 28.3576H85.8836C86.0228 28.3576 86.162 28.2137 86.162 28.0697V0.287894C86.162 0.143947 86.0228 0.143947 85.8836 0ZM77.9495 7.6292H74.4696C74.3304 7.6292 74.1912 7.77315 74.1912 7.9171V28.0697C74.1912 28.2137 74.3304 28.3576 74.4696 28.3576H77.9495C78.0887 28.3576 78.2279 28.2137 78.2279 28.0697V7.9171C78.2279 7.77315 78.0887 7.6292 77.9495 7.6292ZM77.9495 0H74.4696C74.3304 0 74.1912 0.143947 74.1912 0.287894V4.03052C74.1912 4.17447 74.3304 4.31842 74.4696 4.31842H77.9495C78.0887 4.31842 78.2279 4.17447 78.2279 4.03052V0.287894C78.2279 0.143947 78.0887 0.143947 77.9495 0ZM10.1613 14.2508C11.8316 12.3795 21.7145 0.719736 21.8537 0.431842C21.8537 0.287894 21.8537 0.143947 21.7145 0.143947C21.7145 0.143947 21.7145 0.143947 21.5753 0.143947H16.9818C16.8427 0.143947 16.7035 0.287894 16.5643 0.431842L6.68138 12.3795V15.9781L16.8427 28.0697C16.9818 28.2137 17.121 28.3576 17.2602 28.3576H22.1321C22.2713 28.3576 22.4105 28.2137 22.2713 28.0697C22.2713 28.0697 22.2713 28.0697 22.2713 27.9258C21.9929 27.7818 11.6924 15.8342 10.1613 14.2508ZM91.4514 17.7055C93.5394 15.2584 99.1072 8.20499 99.2464 7.9171C99.3856 7.77315 99.2464 7.48526 99.1072 7.48526H95.2097C95.0705 7.48526 94.9313 7.6292 94.7921 7.77315L88.5283 15.9781V19.5768L95.2097 28.0697C95.3489 28.2137 95.4881 28.3576 95.6273 28.3576H99.8031C99.9423 28.3576 100.082 28.2137 99.9423 28.0697C99.9423 28.0697 99.9423 28.0697 99.9423 27.9258C99.664 27.7818 96.6017 24.1831 91.4514 17.7055ZM61.3852 7.05341C59.0189 7.05341 52.3375 7.05341 52.3375 16.41V27.9258C52.3375 28.0697 52.4767 28.2137 52.6159 28.2137H56.0958C56.235 28.2137 56.3742 28.0697 56.3742 27.9258V15.8342C56.3742 10.3642 59.9932 10.5081 61.3852 10.5081C62.7772 10.5081 66.3962 10.5081 66.3962 15.8342V27.9258C66.3962 28.0697 66.5354 28.2137 66.6746 28.2137H70.1545C70.2937 28.2137 70.4329 28.0697 70.4329 27.9258V16.41C70.1545 7.05341 63.7515 7.05341 61.3852 7.05341ZM38.2788 9.93236C39.9491 12.0916 40.9235 14.9705 40.6451 17.8495C40.6451 18.1374 40.6451 18.2813 40.6451 19.001C40.6451 19.2889 40.5059 19.4329 40.2275 19.4329H26.4471C26.4471 21.1602 26.8647 22.7437 27.9783 24.0392C28.9527 25.1908 30.4838 25.7666 31.8758 25.6226C32.9893 25.6226 34.1029 25.3347 35.0773 24.615C35.9124 23.8952 36.4692 23.0316 36.6084 22.0239H40.3667C40.5059 22.0239 40.5059 22.0239 40.5059 22.1679C40.0883 24.1831 39.1139 25.9105 37.4436 27.206C35.7732 28.5016 33.6853 29.0773 31.5974 29.0773C29.0919 29.2213 26.5863 28.2137 24.916 26.3423C23.1064 24.0392 22.2713 21.1602 22.4105 18.1374C22.2713 15.2584 23.1064 12.3795 24.916 10.0763C26.5863 8.06105 29.0919 7.05341 31.7366 7.19736C34.2421 6.90947 36.6084 7.9171 38.2788 9.93236ZM36.7476 16.1221C36.7476 14.6826 36.33 13.2431 35.3556 12.0916C34.3813 11.0839 32.9893 10.6521 31.5974 10.6521C30.2054 10.6521 28.9527 11.0839 27.9783 12.0916C27.0039 13.2431 26.4471 14.6826 26.4471 16.1221H36.7476Z" fill="black"/>
</symbol><symbol id="logo-mail" viewBox="0 0 120 46">
<path fill-rule="evenodd" clip-rule="evenodd" d="M120 4.17391C120 1.86991 118.13 0 115.826 0H4.17391C1.86991 0 0 1.86991 0 4.17391V41.7391C0 44.0431 1.86991 45.913 4.17391 45.913H115.826C118.13 45.913 120 44.0431 120 41.7391V4.17391Z" fill="black"/>
<path d="M102.613 11.0522H99.8438V29.8547H102.613V11.0522Z" fill="white"/>
<path fill-rule="evenodd" clip-rule="evenodd" d="M96.8581 29.8534H94.0887V16.5292H96.8581V29.8534ZM95.4734 10.5835C96.5054 10.5835 97.3433 11.4214 97.3433 12.4534C97.3433 13.4854 96.5054 14.3233 95.4734 14.3233C94.4414 14.3233 93.6035 13.4854 93.6035 12.4534C93.6035 11.4214 94.4414 10.5835 95.4734 10.5835Z" fill="white"/>
<path fill-rule="evenodd" clip-rule="evenodd" d="M91.0866 29.853H88.3652V28.3952C87.3896 29.5003 85.671 30.1952 84.0546 30.1952C80.1896 30.1952 77.0508 27.0564 77.0508 23.1904C77.0508 19.3253 80.1896 16.1865 84.0546 16.1865C85.671 16.1865 87.2988 16.7959 88.3652 17.8717V16.5288H91.0866V29.853ZM84.1433 18.9862C86.5266 18.9862 88.4017 20.6912 88.4017 23.1904C88.4017 25.6895 86.5266 27.4102 84.1433 27.4102C81.76 27.4102 79.9485 25.5747 79.9485 23.1904C79.9485 20.807 81.76 18.9862 84.1433 18.9862Z" fill="white"/>
<path fill-rule="evenodd" clip-rule="evenodd" d="M56.7166 29.853H53.9941V16.5288H56.7166V17.4596C57.3208 16.8909 58.454 16.1886 60.0254 16.1865C61.958 16.1865 63.398 16.9994 64.3841 18.3069C65.463 17.0119 67.2421 16.1865 69.0547 16.1865C72.4564 16.1865 74.775 18.4832 74.775 22.0623V29.853H72.0526V22.0623C72.0526 20.3239 70.6376 18.909 68.8992 18.909C67.1597 18.909 65.7458 20.3239 65.7458 22.0623V29.853H63.0234V22.0623C63.0234 20.3239 61.6084 18.909 59.87 18.909C58.1315 18.909 56.7166 20.3239 56.7166 22.0623V29.853Z" fill="white"/>
<path d="M35.702 22.9583C35.702 25.3813 33.7309 27.3524 31.3079 27.3524C28.885 27.3524 26.9138 25.3813 26.9138 22.9583C26.9138 20.5353 28.885 18.5642 31.3079 18.5642C33.7309 18.5642 35.702 20.5353 35.702 22.9583ZM31.3079 8.34961C23.2523 8.34961 16.6992 14.9027 16.6992 22.9583C16.6992 31.014 23.2523 37.567 31.3079 37.567C34.2589 37.567 37.1044 36.6884 39.5368 35.0261L39.5785 34.9969L37.6105 32.7096L37.5771 32.7305C35.7051 33.9357 33.5368 34.5722 31.3079 34.5722C24.9041 34.5722 19.694 29.3621 19.694 22.9583C19.694 16.5545 24.9041 11.3444 31.3079 11.3444C37.7117 11.3444 42.9218 16.5545 42.9218 22.9583C42.9218 23.7879 42.829 24.6279 42.6484 25.4543C42.2811 26.9621 41.2251 27.4234 40.4331 27.3628C39.6359 27.2981 38.703 26.7305 38.6968 25.3406V24.2814V22.9583C38.6968 18.8835 35.3827 15.5694 31.3079 15.5694C27.2331 15.5694 23.919 18.8835 23.919 22.9583C23.919 27.0331 27.2331 30.3472 31.3079 30.3472C33.2874 30.3472 35.1437 29.574 36.543 28.1663C37.357 29.4331 38.6832 30.2272 40.1931 30.3482C40.3225 30.3587 40.455 30.3639 40.5855 30.3639C41.6488 30.3639 42.7017 30.008 43.551 29.3642C44.4265 28.6985 45.0808 27.7374 45.4418 26.5823C45.4992 26.3955 45.6056 25.9687 45.6056 25.9656L45.6088 25.95C45.8217 25.0234 45.9166 24.0999 45.9166 22.9583C45.9166 14.9027 39.3636 8.34961 31.3079 8.34961Z" fill="white"/>
</symbol><symbol id="logo-shishki" viewBox="0 0 146 99">
<path fill-rule="evenodd" clip-rule="evenodd" d="M48.6768 50.0985H97.3533V48.5122H48.6768V50.0985Z" fill="black"/>
<path fill-rule="evenodd" clip-rule="evenodd" d="M0 50.0985H48.677V48.5127H0V50.0985Z" fill="black"/>
<path fill-rule="evenodd" clip-rule="evenodd" d="M47.8896 98.3519H49.4635V49.3052H47.8896V98.3519Z" fill="black"/>
<path fill-rule="evenodd" clip-rule="evenodd" d="M47.8896 49.3051H49.4635V0.258789H47.8896V49.3051Z" fill="black"/>
<path fill-rule="evenodd" clip-rule="evenodd" d="M2.10876 97.3482L0.996094 96.227L32.2301 64.7554L33.3427 65.877L2.10876 97.3482Z" fill="black"/>
<path fill-rule="evenodd" clip-rule="evenodd" d="M48.1196 49.8662L0.995117 2.38381L2.10825 1.2627L49.2323 48.7451L48.1196 49.8662Z" fill="black"/>
<path fill-rule="evenodd" clip-rule="evenodd" d="M69.143 8.55827C71.1874 8.95099 72.3942 9.79487 72.3942 11.4228C72.3942 13.0708 71.1094 14.5421 68.7342 14.5421C66.6119 14.5421 65.2097 13.247 64.626 11.7168L65.8913 10.9323C66.378 12.2667 67.313 13.2078 68.7342 13.2078C70.0385 13.2078 70.8756 12.5607 70.8756 11.4817C70.8756 10.5205 70.0775 10.0492 68.4029 9.73596C66.6509 9.40215 65.1707 8.55827 65.1707 6.89109C65.1707 5.22344 66.7288 4.26222 68.5004 4.26222C70.4867 4.26222 71.6546 5.1449 72.2583 6.61665L71.0899 7.30251C70.5642 6.00841 69.5907 5.55678 68.5198 5.55678C67.4489 5.55678 66.5729 5.96914 66.5729 6.83218C66.5729 7.83268 67.6048 8.2642 69.143 8.55827ZM82.7817 14.2672H81.2631V7.97013C81.2631 6.4203 80.2701 5.63533 78.9073 5.63533C77.4272 5.63533 76.0255 6.87145 76.0255 8.87245V14.2672H74.5073V0.534668H76.0255V6.24357C76.6486 5.04672 77.9529 4.26222 79.3161 4.26222C81.1072 4.26222 82.7817 5.32162 82.7817 7.69523V14.2672Z" fill="black"/>
<path fill-rule="evenodd" clip-rule="evenodd" d="M85.4103 14.2669H86.929V4.53689H85.4103V14.2669ZM85.2549 2.8496H87.0849V0.927152H85.2549V2.8496ZM93.4223 8.55827C95.4667 8.95099 96.674 9.79487 96.674 11.4228C96.674 13.0708 95.3887 14.5421 93.0135 14.5421C90.8912 14.5421 89.4895 13.247 88.9053 11.7168L90.1711 10.9323C90.6578 12.2667 91.5923 13.2078 93.0135 13.2078C94.3178 13.2078 95.1553 12.5607 95.1553 11.4817C95.1553 10.5205 94.3568 10.0492 92.6827 9.73596C90.9302 9.40215 89.4505 8.55827 89.4505 6.89109C89.4505 5.22344 91.0081 4.26222 92.7797 4.26222C94.766 4.26222 95.9339 5.1449 96.5376 6.61665L95.3692 7.30251C94.8435 6.00841 93.8701 5.55678 92.7992 5.55678C91.7287 5.55678 90.8522 5.96914 90.8522 6.83218C90.8522 7.83268 91.8841 8.2642 93.4223 8.55827ZM107.061 14.2672H105.542V7.97013C105.542 6.4203 104.549 5.63533 103.186 5.63533C101.707 5.63533 100.305 6.87145 100.305 8.87245V14.2672H98.7866V0.534668H100.305V6.24357C100.928 5.04672 102.233 4.26222 103.595 4.26222C105.387 4.26222 107.061 5.32162 107.061 7.69523V14.2672Z" fill="black"/>
<path fill-rule="evenodd" clip-rule="evenodd" d="M111.241 8.18566L114.921 4.53665H116.732L113.403 7.85231L117.394 14.2672H115.661L112.351 8.93135L111.241 10.0492V14.2672H109.723V0.534668H111.241V8.18566Z" fill="black"/>
<path fill-rule="evenodd" clip-rule="evenodd" d="M119.005 14.267H120.523V4.53698H119.005V14.267ZM118.849 2.84969H120.679V0.927246H118.849V2.84969Z" fill="black"/>
<path fill-rule="evenodd" clip-rule="evenodd" d="M61.5107 32.7848H63.3407V30.8623H61.5107V32.7848Z" fill="black"/>
<path fill-rule="evenodd" clip-rule="evenodd" d="M74.2757 30.2541C73.3801 32.0391 71.881 33.0593 69.934 33.0593C67.1496 33.0593 64.9883 30.9213 64.9883 27.9193C64.9883 24.9179 67.2665 22.7799 69.934 22.7799C72.0169 22.7799 73.5356 23.7799 74.2172 25.4476L73.0683 26.2124C72.3482 24.6631 71.2188 24.1525 69.9535 24.1525C68.0256 24.1525 66.507 25.6046 66.507 27.9193C66.507 30.2345 67.9671 31.6862 69.9535 31.6862C71.5692 31.6862 72.4846 30.8624 73.1853 29.5477L74.2757 30.2541ZM84.0457 27.9193C84.0457 25.742 82.527 24.1524 80.5606 24.1524C78.5937 24.1524 77.0755 25.742 77.0755 27.9193C77.0755 30.097 78.5937 31.6861 80.5606 31.6861C82.527 31.6861 84.0457 30.097 84.0457 27.9193ZM80.5606 33.0592C78.1464 33.0592 75.5179 31.2349 75.5179 27.9193C75.5179 24.6041 78.1464 22.7798 80.5606 22.7798C82.9748 22.7798 85.6033 24.6041 85.6033 27.9193C85.6033 31.2349 82.9748 33.0592 80.5606 33.0592Z" fill="black"/>
<path fill-rule="evenodd" clip-rule="evenodd" d="M87.6855 32.7852H89.2042V19.0522H87.6855V32.7852Z" fill="black"/>
<path fill-rule="evenodd" clip-rule="evenodd" d="M91.8506 32.7852H93.3692V19.0522H91.8506V32.7852Z" fill="black"/>
<path fill-rule="evenodd" clip-rule="evenodd" d="M97.1 26.9191H103.447C103.35 25.0752 101.792 24.0742 100.313 24.0742C98.5797 24.0742 97.4503 25.2519 97.1 26.9191ZM96.9835 28.1749C97.0805 30.2151 98.3073 31.7645 100.313 31.7645C102.065 31.7645 102.941 30.8037 103.564 29.548L104.674 30.2151C103.778 32.0001 102.435 33.0595 100.254 33.0595C97.6257 33.0595 95.4648 30.9215 95.4648 27.9196C95.4648 24.9181 97.6257 22.7797 100.313 22.7797C103.214 22.7797 104.966 24.8003 104.966 27.6452V28.1749H96.9835ZM115.725 30.2543C114.829 32.0393 113.33 33.0594 111.383 33.0594C108.599 33.0594 106.438 30.9215 106.438 27.9195C106.438 24.918 108.716 22.78 111.383 22.78C113.466 22.78 114.985 23.7801 115.667 25.4477L114.518 26.2126C113.798 24.6632 112.668 24.1527 111.403 24.1527C109.475 24.1527 107.956 25.6048 107.956 27.9195C107.956 30.2347 109.417 31.6863 111.403 31.6863C113.019 31.6863 113.934 30.8625 114.635 29.5479L115.725 30.2543ZM116.755 23.0543H118.371V20.4254H119.89V23.0543H122.109V24.2708H119.89V30.1559C119.89 31.1957 120.084 31.7254 121.213 31.7254C121.428 31.7254 121.739 31.667 121.934 31.6076L122.07 32.883C121.739 33.0008 121.369 33.0592 120.785 33.0592C119.539 33.0592 118.371 32.4318 118.371 30.4505V24.2708H116.755V23.0543ZM123.811 32.7846H125.329V23.0541H123.811V32.7846ZM123.655 21.3673H125.485V19.4448H123.655V21.3673Z" fill="black"/>
<path fill-rule="evenodd" clip-rule="evenodd" d="M132.172 32.7847H130.654L126.76 23.0542H128.395L131.413 31.0194L134.431 23.0542H136.067L132.172 32.7847Z" fill="black"/>
<path fill-rule="evenodd" clip-rule="evenodd" d="M138.135 26.9187H144.482C144.385 25.0748 142.827 24.0739 141.347 24.0739C139.614 24.0739 138.485 25.2516 138.135 26.9187ZM138.018 28.1745C138.115 30.2148 139.342 31.7641 141.347 31.7641C143.099 31.7641 143.975 30.8034 144.599 29.5476L145.708 30.2148C144.813 31.9998 143.469 33.0592 141.289 33.0592C138.66 33.0592 136.499 30.9212 136.499 27.9192C136.499 24.9177 138.66 22.7793 141.347 22.7793C144.248 22.7793 146 24.7999 146 27.6448V28.1745H138.018Z" fill="black"/>
</symbol><symbol id="logo-vk" viewBox="0 0 60 60">
<path fill-rule="evenodd" clip-rule="evenodd" d="M20.7904 0H39.2096C56.0198 0 60 3.98024 60 20.7904V39.2096C60 56.0198 56.0198 60 39.2096 60H20.7904C3.98024 60 0 56.0198 0 39.2096V20.7904C0 3.98024 3.98024 0 20.7904 0Z" fill="black"/>
<path fill-rule="evenodd" clip-rule="evenodd" d="M49.1174 20.6631C49.4138 19.7315 49.1174 19.0541 47.8047 19.0541H43.4434C42.3425 19.0541 41.8344 19.6469 41.538 20.282C41.538 20.282 39.2938 25.7019 36.1604 29.2164C35.1442 30.2326 34.6784 30.5714 34.128 30.5714C33.8316 30.5714 33.4505 30.2326 33.4505 29.3011V20.6207C33.4505 19.5198 33.1117 19.0117 32.1802 19.0117H25.3206C24.6431 19.0117 24.2197 19.5198 24.2197 20.0279C24.2197 21.0865 25.7864 21.3406 25.9558 24.3046V30.7407C25.9558 32.138 25.7017 32.3921 25.1512 32.3921C23.6692 32.3921 20.0701 26.9299 17.9106 20.7054C17.4872 19.4775 17.0637 19.0117 15.9628 19.0117H11.5592C10.2889 19.0117 10.0771 19.6045 10.0771 20.2397C10.0771 21.3829 11.5592 27.1416 16.9791 34.7633C20.5782 39.9715 25.7017 42.7661 30.3171 42.7661C33.1117 42.7661 33.4505 42.131 33.4505 41.0724V37.1345C33.4505 35.8642 33.7045 35.6525 34.5937 35.6525C35.2289 35.6525 36.3721 35.9913 38.9551 38.4895C41.9191 41.4535 42.4272 42.8085 44.0786 42.8085H48.4399C49.7102 42.8085 50.303 42.1733 49.9642 40.9454C49.5831 39.7174 48.1435 37.939 46.2804 35.8219C45.2642 34.6363 43.7398 33.3236 43.274 32.6885C42.6389 31.8416 42.8083 31.5029 43.274 30.7407C43.2317 30.7407 48.5669 23.2037 49.1174 20.6631Z" fill="white"/>
</symbol></svg>