<svg xmlns="http://www.w3.org/2000/svg" xmlns:xlink="http://www.w3.org/1999/xlink"><symbol id="icon-arrow" viewBox="0 0 35 28">
  <line x1="-8.74228e-08" y1="14" x2="32" y2="14" stroke-width="2"/>
  <path d="M20 1L33 14L20 27" stroke-width="2"/>
</symbol><symbol id="icon-close" viewBox="0 0 20 20">
<rect x="2.9292" y="0.100586" width="24" height="4" transform="rotate(45 2.9292 0.100586)" fill="black"/>
<rect x="0.100586" y="17.071" width="24" height="4" transform="rotate(-45 0.100586 17.071)" fill="black"/>
</symbol><symbol id="icon-drako" viewBox="0 0 190 215">
  <path d="M121.174 87.2449L75.6128 149.77L106.633 165.765L118.266 144.439L131.837 130.383L157.041 128.929L165.281 122.628L166.735 110.995L121.174 87.2449Z" class="light"/>
  <path fill-rule="evenodd" clip-rule="evenodd" d="M110.892 168.327L105.98 166.603C113.214 145.773 113.656 140.228 113.664 139.262L112.978 137.473L131.943 126.729H152.429C160.05 126.134 162.529 124.007 162.847 117.638L168.041 117.897C167.474 129.279 159.931 131.387 152.627 131.952L133.307 131.958L118.802 140.176C118.354 145.83 114.432 158.137 110.892 168.327Z" class="dark"/>
  <path fill-rule="evenodd" clip-rule="evenodd" d="M179.498 13.3896L80.3725 13.9788L60.4387 37.5723L72.2655 53.1206H54.7779L40.1011 65.0355H81.3253V64.9351L97.3016 50.2772L88.1654 39.8371H152.158L179.498 13.3896Z" fill="#2C39F2"/>
  <path fill-rule="evenodd" clip-rule="evenodd" d="M39.1465 148.243L178.543 11.4768L39.1465 148.243Z" class="light"/>
  <path fill-rule="evenodd" clip-rule="evenodd" d="M40.8869 150.155L37.2368 146.434L176.803 9.56396L180.453 13.2853L40.8869 150.155Z" class="dark"/>
  <path fill-rule="evenodd" clip-rule="evenodd" d="M58.676 98.5098L66.487 108.212L68.7441 120.432L67.6156 124.981L53.7761 132.94L48.6938 108.212L58.676 98.5098Z" class="light"/>
  <path fill-rule="evenodd" clip-rule="evenodd" d="M52.4567 108.384L56.5832 128.59L66.5065 122.846L67.244 119.862L65.1834 108.637L59.4843 101.51L52.4567 108.384ZM52.942 136.766L46.7847 106.609L59.9534 93.7275L70.0529 106.359L72.5636 120.024L71.0127 126.302L52.942 136.766Z" class="dark"/>
  <path fill-rule="evenodd" clip-rule="evenodd" d="M123.167 100.423L125.945 116.681L139.398 102.936" class="light"/>
  <path fill-rule="evenodd" clip-rule="evenodd" d="M124.958 123.376L121.257 101.333L126.388 100.423L128.367 112.212L138.558 101.608L142.262 105.376L124.958 123.376Z" class="dark"/>
  <path fill-rule="evenodd" clip-rule="evenodd" d="M64.3865 179.804L56.332 211.366H99.2969" class="light"/>
  <path fill-rule="evenodd" clip-rule="evenodd" d="M98.3423 214.235H52.5132L61.2981 179.804L66.3421 181.072L59.1985 209.071H98.3423V214.235Z" class="dark"/>
  <path fill-rule="evenodd" clip-rule="evenodd" d="M118.207 94.8899L124.012 100.859L140.589 103.711L144.655 116.559L158.052 108.731L164.183 122.774L175.418 113.039L178.084 108.878L181.408 103.695V72.9587L132.941 62.6489L102.659 62.1663C102.659 62.1663 77.9082 62.1663 76.7443 93.1911V127.526L55.5181 147.551L39.8968 148.727L3.81982 147.486L5.56697 158.09C21.994 170.412 40.746 178.282 60.2224 179.253L81.2261 189.205L76.8447 211.365H133.152L133.182 207.81C133.182 201.557 132.431 194.067 123.616 193.68H104.164C104.164 193.68 111.123 177.199 110.049 170.868C104.937 140.748 82.6966 148.14 82.6966 148.14" class="light"/>
  <path fill-rule="evenodd" clip-rule="evenodd" d="M134.805 214.235H72.8372L77.4345 191.034L58.7579 182.203C39.9025 181.146 20.7274 173.692 3.27261 160.625L2.43549 160L0 145.256L39.0546 146.598L53.5971 145.506L73.3031 126.949V93.8631C74.5466 60.72 101.508 60.3396 101.781 60.3396L132.557 60.8749L183.014 71.5866V105.096L176.133 115.615L162.249 127.618L155.885 113.069L142.223 121.036L137.658 106.645L121.834 103.928L115.449 97.3766L119.163 93.7327L124.37 99.0776L141.651 102.045L145.211 113.265L158.304 105.629L164.183 119.066L172.457 111.914L177.818 103.561V75.812L131.728 66.0269L101.738 65.5487C100.882 65.5568 79.5477 66.0297 78.4965 93.9609L78.4992 129.205L55.8131 150.563L39.1602 151.815L6.16323 150.682L7.21707 157.071C23.7752 169.25 41.8449 176.143 59.5327 177.027L60.0475 177.051L83.3214 188.056L79.1657 209.023H129.655L129.664 208.064C129.664 199.838 127.813 196.836 122.595 196.608L99.3594 196.61L100.89 192.988C103.464 186.904 107.286 175.749 106.598 171.709C104.997 162.277 101.513 155.883 96.2466 152.709C89.7746 148.807 82.7336 151.073 82.6604 151.095L81.0322 146.147C81.4088 146.022 90.4302 143.123 98.9232 148.242C105.544 152.236 109.852 159.837 111.721 170.831C112.593 175.959 109.202 185.942 107.121 191.398H122.709C134.86 191.928 134.86 203.667 134.86 208.085L134.805 214.235Z" class="dark"/>
  <path fill-rule="evenodd" clip-rule="evenodd" d="M164.222 88.9456L161.557 83.2617L131.759 75.5559" class="light"/>
  <path fill-rule="evenodd" clip-rule="evenodd" d="M161.378 89.9021L159.234 85.1985L130.805 77.6362L132.165 72.6868L162.978 80.8832L166.131 87.8066L161.378 89.9021Z" class="dark"/>
  <path fill-rule="evenodd" clip-rule="evenodd" d="M101.396 137.38L111.338 152.039L126.796 151.523L125.813 161.604C137.648 162.012 140.112 158.108 141.277 148.954L143.217 138.441L120.071 137.584L114.699 127.79L88.7944 116.681" class="light"/>
  <path fill-rule="evenodd" clip-rule="evenodd" d="M127.17 164.502C126.655 164.502 126.126 164.494 125.578 164.472L122.808 164.381L123.763 154.743L109.933 155.197L99.2418 139.737L103.533 136.824L112.61 149.95L129.522 149.399L128.535 159.333C136.388 159.078 137.571 156.097 138.461 149.236L139.863 141.78L118.391 141L112.773 130.954L87.8398 120.472L89.8717 115.725L116.457 126.903L121.519 135.956L146.081 136.848L143.599 150.036C142.4 159.312 139.356 164.502 127.17 164.502Z" class="dark"/>
  <path fill-rule="evenodd" clip-rule="evenodd" d="M100.931 72.6868C99.8975 74.1572 99.2969 75.9276 99.2969 77.8333C99.2969 82.9161 103.57 87.0328 108.846 87.0328C114.116 87.0328 118.392 82.9161 118.392 77.8333C118.392 76.477 118.07 75.2003 117.522 74.0431L100.931 72.6868Z" class="light"/>
  <path fill-rule="evenodd" clip-rule="evenodd" d="M102.313 75.3009C101.982 76.1026 101.813 76.9615 101.813 77.8394C101.813 81.6077 104.966 84.6751 108.846 84.6751C112.723 84.6751 115.876 81.6077 115.876 77.8394C115.876 77.3595 115.82 76.8797 115.711 76.4052L102.313 75.3009ZM108.846 89.9021C102.001 89.9021 96.4326 84.4925 96.4326 77.8394C96.4326 75.4209 97.1676 73.0869 98.559 71.0882L99.4427 69.8176L119.478 71.47L120.132 72.8633C120.878 74.4611 121.257 76.1353 121.257 77.8394C121.257 84.4925 115.688 89.9021 108.846 89.9021Z" class="dark"/>
  <path fill-rule="evenodd" clip-rule="evenodd" d="M41.0557 81.0181C41.0557 81.0181 36.7579 72.9847 31.4067 70.5297C25.5847 67.8583 23.5188 67.9048 23.5188 67.9048L25.0403 73.4998L24.134 73.0148C20.1192 70.864 15.1355 72.2504 12.7866 76.1712L16.7768 77.1164C13.4861 80.0728 11.363 84.1251 10.7996 88.5309L10.5029 90.8351H14.6211L15.5166 111.899L23.2929 92.2955L28.0534 81.0181H41.0557Z" class="light"/>
  <path fill-rule="evenodd" clip-rule="evenodd" d="M29.3847 78.0825H36.2424C34.6477 75.9944 32.5877 73.7999 30.5005 72.8485C29.3902 72.3415 28.435 71.9435 27.6213 71.63L29.3847 78.0825ZM13.8433 87.85H17.4517L17.9171 98.7324L20.9949 91.0149L26.4783 78.0825H28.4078L23.0821 75.2474C21.8712 74.6014 20.5296 74.4242 19.2777 74.6613L22.7093 75.471L18.8151 78.9549C16.2081 81.2856 14.4637 84.4206 13.8433 87.85ZM13.5684 124.333L12.2404 93.2966H7.63867L8.32989 87.9318C8.76802 84.5269 10.0253 81.3075 11.9628 78.5351L8.75713 77.7799L10.6865 74.5768C12.9697 70.7822 17.1252 68.8058 21.3051 69.1547L20.203 65.1174L23.6808 65.0356C24.3067 65.0384 26.824 65.1829 32.7564 67.8925C38.7678 70.6377 43.1872 78.6141 43.6716 79.5137L45.8296 83.5292H30.0759L26.0212 93.0895L13.5684 124.333Z" class="dark"/>
  <path fill-rule="evenodd" clip-rule="evenodd" d="M73.8173 177.25L92.4861 182.673L92.5083 182.507C93.1725 177.704 90.6538 173.016 86.2475 170.846L85.55 170.503L89.2644 145.75L62.3005 131.984L49.6489 132.885L55.1901 148.375L74.7279 151.378L74.811 169.977L73.8173 177.25Z" class="light"/>
  <path fill-rule="evenodd" clip-rule="evenodd" d="M75.6277 175.072L88.2141 178.837C87.6724 176.27 86.0395 174.074 83.6772 172.879L81.3363 171.689L84.9401 146.962L61.092 134.421L52.9138 135.019L56.6543 145.791L76.2283 148.889L76.3195 169.85L75.6277 175.072ZM93.0378 185.543L90.1446 184.847L69.9459 178.805L71.1766 169.513L71.1069 153.352L52.8253 150.459L45.8296 130.316L62.1699 129.115L90.5629 144.05L86.9619 168.768C91.6033 171.618 94.1828 177.011 93.4427 182.535L93.0378 185.543Z" class="dark"/>
  <path fill-rule="evenodd" clip-rule="evenodd" d="M62.6645 89.5073C66.0527 87.4572 66.1133 84.7256 65.7081 80.7826L65.6557 80.2805L60.5665 82.5403C57.0295 77.1101 49.2606 75.5704 43.8296 80.2446C39.9866 83.5501 39.074 89.1624 41.2795 93.7262L41.2961 93.7621C43.6118 98.5548 48.9215 101.375 54.0907 100.128C55.7034 99.7386 57.1177 99.035 58.3114 98.1161L58.5733 98.2486L58.8462 97.6636C61.2171 95.5859 62.5845 92.6059 62.6645 89.5073Z" class="light"/>
  <path fill-rule="evenodd" clip-rule="evenodd" d="M51.6856 79.7982C49.6821 79.7982 47.7544 80.5244 46.1576 81.8955C43.3434 84.3154 42.5761 88.483 44.295 92.0355C46.1115 95.794 50.1565 97.8371 53.944 96.9266C55.1153 96.6421 56.1835 96.1354 57.1188 95.4173L57.5173 95.0759C59.2796 93.5367 60.3261 91.3066 60.3858 88.9545L60.4237 87.5346L61.6383 86.8002C62.8421 86.0713 63.3924 85.3613 63.5172 83.871L59.952 85.4535L58.7455 83.6C57.4279 81.5812 55.2888 80.2263 52.8731 79.8822C52.4773 79.8253 52.0815 79.7982 51.6856 79.7982ZM52.1384 102.335C46.9845 102.335 42.023 99.2787 39.6291 94.3334C36.8718 88.6266 38.1678 81.9064 42.7686 77.9555C45.8322 75.3216 49.674 74.1781 53.6051 74.739C56.7501 75.1861 59.6077 76.6982 61.7169 78.9852L68.1397 76.1346L68.5626 80.1857C68.9612 84.0254 68.9991 87.6999 65.4773 90.4584C65.0815 93.5557 63.6283 96.4443 61.3645 98.6013L60.177 101.132L58.8865 100.482C57.737 101.157 56.4898 101.658 55.1613 101.978C54.1609 102.219 53.1442 102.335 52.1384 102.335Z" class="dark"/>
  <path fill-rule="evenodd" clip-rule="evenodd" d="M52.5132 86.0765L61.1062 81.2944L52.5132 86.0765Z" class="light"/>
  <path fill-rule="evenodd" clip-rule="evenodd" d="M53.7794 88.9455L51.5586 84.3443L59.8403 80.3379L62.0611 84.9363L53.7794 88.9455Z" class="dark"/>
  <path fill-rule="evenodd" clip-rule="evenodd" d="M58.2416 109.03C58.2416 113.785 54.3924 117.638 49.6486 117.638C44.9022 117.638 41.0557 113.785 41.0557 109.03C41.0557 104.276 44.9022 100.423 49.6486 100.423C54.3924 100.423 58.2416 104.276 58.2416 109.03Z" class="light"/>
  <path fill-rule="evenodd" clip-rule="evenodd" d="M49.6487 102.847C46.2457 102.847 43.4764 105.621 43.4764 109.03C43.4764 112.442 46.2457 115.213 49.6487 115.213C53.0517 115.213 55.821 112.442 55.821 109.03C55.821 105.621 53.0517 102.847 49.6487 102.847ZM49.6487 120.507C43.3304 120.507 38.1914 115.359 38.1914 109.03C38.1914 102.701 43.3304 97.5532 49.6487 97.5532C55.967 97.5532 61.106 102.701 61.106 109.03C61.106 115.359 55.967 120.507 49.6487 120.507Z" class="dark"/>
  <path fill-rule="evenodd" clip-rule="evenodd" d="M53.4678 124.876L77.8479 116.681L82.111 125.597L57.4444 134.853L53.4678 124.876Z" class="light"/>
  <path fill-rule="evenodd" clip-rule="evenodd" d="M57.3837 126.412L59.3976 131.75L78.8815 124.03L76.8353 119.509L57.3837 126.412ZM56.4788 138.679L50.6035 123.118L79.5232 112.856L85.9301 127.009L56.4788 138.679Z" class="dark"/>
  <path fill-rule="evenodd" clip-rule="evenodd" d="M49.1963 137.722L44.875 111.899L56.5423 112.197L60.1514 133.508L49.1963 137.722Z" class="light"/>
  <path fill-rule="evenodd" clip-rule="evenodd" d="M48.299 116.209L51.6701 134.672L58.024 132.433L55.0521 116.367L48.299 116.209ZM47.6018 141.548L42.0107 110.943L59.4539 111.349L63.9705 135.78L47.6018 141.548Z" class="dark"/>
  <path fill-rule="evenodd" clip-rule="evenodd" d="M79.2471 116.794C85.2625 111.293 89.3437 114.36 90.2906 118.32C90.9595 121.126 91.0944 123.945 88.5291 124.728L83.5684 126.246L79.2471 116.794Z" class="light"/>
  <path fill-rule="evenodd" clip-rule="evenodd" d="M82.6855 117.099L85.0557 122.593L87.475 121.808C87.4913 121.808 87.8151 121.116 87.2328 118.535C86.9552 117.3 86.3075 116.364 85.5809 116.143C84.8734 115.923 83.8475 116.278 82.6855 117.099ZM81.714 130.071L75.4277 115.493L76.9462 114.024C81.401 109.704 85.0367 109.616 87.3117 110.31C90.1609 111.175 92.3243 113.743 93.0999 117.179C94.6946 124.271 91.9161 126.765 89.3064 127.608L81.714 130.071Z" class="dark"/>
  <path fill-rule="evenodd" clip-rule="evenodd" d="M190.001 0L174.724 7.56612L177.985 10.9518L177.993 10.9604L181.254 14.3461L190.001 0Z" class="dark"/>
  <path fill-rule="evenodd" clip-rule="evenodd" d="M117.438 82.0702C117.438 84.4475 115.514 86.374 113.141 86.374C110.768 86.374 108.845 84.4475 108.845 82.0702C108.845 79.6929 110.768 77.7664 113.141 77.7664C115.514 77.7664 117.438 79.6929 117.438 82.0702Z" class="dark"/>
  <path fill-rule="evenodd" clip-rule="evenodd" d="M72.5635 151.112L83.066 143.461L72.5635 151.112Z" class="light"/>
  <path fill-rule="evenodd" clip-rule="evenodd" d="M74.5291 152.068L71.6084 147.844L82.0546 140.592L84.9752 144.816L74.5291 152.068Z" class="dark"/>
  <path fill-rule="evenodd" clip-rule="evenodd" d="M86.885 154.938L75.4277 152.068L86.885 154.938Z" class="light"/>
  <path fill-rule="evenodd" clip-rule="evenodd" d="M85.6278 157.807L74.4731 154.6L75.7334 149.199L86.8852 152.406L85.6278 157.807Z" class="dark"/>
  <path fill-rule="evenodd" clip-rule="evenodd" d="M50.6034 137.722L25.7793 160.676L50.6034 137.722Z" class="light"/>
  <path fill-rule="evenodd" clip-rule="evenodd" d="M28.3774 162.589L24.8247 158.811L48.9604 135.81L52.5132 139.587L28.3774 162.589Z" class="dark"/>
</symbol><symbol id="icon-lighthouse" viewBox="0 0 39 40">
<path d="M0 0.48999V39.29H38.8V0.48999H0ZM15.42 13.72H23.29V15H15.42V13.72ZM23.25 34.06C21.98 33.94 20.7 33.87 19.42 33.87C18.42 33.87 17.42 33.92 16.42 33.99L23.03 30.93L23.25 34.06ZM16.3 7.99999C16.3 7.19638 16.6192 6.42569 17.1875 5.85746C17.7557 5.28922 18.5264 4.96999 19.33 4.96999C20.1336 4.96999 20.9043 5.28922 21.4725 5.85746C22.0408 6.42569 22.36 7.19638 22.36 7.99999H16.3ZM16.74 9.99999H22.15V11.73H16.74V9.99999ZM22.26 17V17.19L16.3 20L16.46 17H22.26ZM16.26 22.31L22.44 19.31L22.58 23L15.96 26.11L16.26 22.31ZM15.93 28.43L22.74 25.16L22.96 28.79L15.66 32.16L15.93 28.43ZM19.51 35.91C22.9669 35.9025 26.4086 36.3668 29.74 37.29H8.97001C12.3724 36.343 15.8883 35.8653 19.42 35.87L19.51 35.91ZM36.89 37.33H35.42C32.2011 35.8403 28.7815 34.8296 25.27 34.33L24.21 17H25.29V11.72H24.1V9.88999C24.3803 9.78981 24.6251 9.60953 24.8038 9.37151C24.9826 9.13349 25.0876 8.84822 25.1057 8.55109C25.1238 8.25396 25.0542 7.95805 24.9057 7.70009C24.7571 7.44212 24.5361 7.23346 24.27 7.09999C24.0793 5.92863 23.4781 4.86332 22.574 4.09452C21.6699 3.32573 20.5218 2.90359 19.335 2.90359C18.1482 2.90359 17.0001 3.32573 16.096 4.09452C15.1919 4.86332 14.5907 5.92863 14.4 7.09999C14.1239 7.24184 13.8979 7.4648 13.7523 7.7389C13.6067 8.013 13.5485 8.32511 13.5855 8.63326C13.6226 8.94142 13.753 9.23086 13.9594 9.46267C14.1658 9.69449 14.4382 9.85757 14.74 9.92999V11.72H13.42V17H14.42L13.52 34.3C9.97182 34.7784 6.51621 35.7898 3.27 37.3H2V2.48999H36.8L36.89 37.33Z" fill="#2C39F2"/>
</symbol><symbol id="icon-lock" viewBox="0 0 21 22">
<rect x="1" y="11" width="19" height="10" stroke-width="2"/>
<path d="M4 7.5C4 3.91015 6.91015 1 10.5 1C14.0899 1 17 3.91015 17 7.5V11H4V7.5Z" stroke-width="2"/>
</symbol><symbol id="icon-logo-additional" viewBox="0 0 82 25">
  <path d="M4.82691 8.90425H4.23266C3.56023 8.90425 2.96599 8.80651 2.43951 8.61103C1.91825 8.41555 1.46997 8.14676 1.11029 7.80466C0.750623 7.46257 0.469142 7.06182 0.281487 6.59267C0.093832 6.12351 0 5.61036 0 5.05812C0 4.51077 0.0990389 4.00252 0.291907 3.52847C0.484774 3.05442 0.766249 2.6488 1.13113 2.3067C1.49602 1.96461 1.93911 1.7007 2.46558 1.50033C2.99206 1.30485 3.5863 1.20711 4.25352 1.20711H4.83733V0H5.71305V1.20711H6.29686C6.96408 1.20711 7.56355 1.30485 8.08481 1.50033C8.61129 1.69582 9.05436 1.96461 9.41924 2.3067C9.78413 2.6488 10.0604 3.05442 10.2585 3.52847C10.4566 4.00252 10.5504 4.51077 10.5504 5.05812C10.5504 5.61036 10.4513 6.12351 10.2585 6.59267C10.0656 7.06182 9.78413 7.46745 9.41924 7.80466C9.05436 8.14187 8.61129 8.41066 8.08481 8.61103C7.56355 8.80651 6.96408 8.90425 6.29686 8.90425H5.71305V10.1114H4.83733V8.90425H4.82691ZM4.84255 8.22006V1.87664H4.24308C3.72703 1.87664 3.26832 1.95483 2.86173 2.10633C2.45515 2.25783 2.1059 2.46309 1.81921 2.71721C1.53251 2.97134 1.31359 3.26946 1.15721 3.60178C1.00083 3.93899 0.922632 4.28597 0.922632 4.64272V5.47352C0.922632 5.83028 1.00083 6.17726 1.15721 6.5047C1.31359 6.83702 1.53252 7.13025 1.814 7.38437C2.09549 7.6385 2.43951 7.84376 2.8461 7.99526C3.25268 8.14676 3.7166 8.22495 4.22744 8.22495H4.84255V8.22006ZM6.28123 8.22006C6.78685 8.22006 7.24557 8.14187 7.65737 7.99037C8.06917 7.83887 8.41842 7.63361 8.70512 7.37949C8.99181 7.12536 9.21074 6.83213 9.36712 6.49981C9.52349 6.16749 9.60167 5.8254 9.60167 5.46864V4.63783C9.60167 4.28108 9.52349 3.9341 9.36712 3.59689C9.21074 3.25968 8.99181 2.96646 8.70512 2.71233C8.41842 2.4582 8.06917 2.25294 7.65737 2.10144C7.24557 1.94995 6.78685 1.87175 6.28123 1.87175H5.68699V8.21517H6.28123V8.22006Z"/>
  <path d="M13.4902 9.72471V0.361084H17.4779C18.3588 0.361084 19.0365 0.595664 19.5004 1.06482C19.9643 1.53398 20.1989 2.1693 20.1989 2.97567C20.1989 3.79181 19.9643 4.43201 19.5004 4.90117C19.0365 5.37033 18.3588 5.60491 17.4779 5.60491H14.3607V9.72471H13.4902ZM14.3607 4.89628H17.4779C18.0617 4.89628 18.5048 4.74478 18.8071 4.44667C19.1147 4.14856 19.2658 3.76249 19.2658 3.29821V2.65312C19.2658 2.19862 19.1147 1.81743 18.8071 1.51932C18.4996 1.22121 18.0565 1.06971 17.4779 1.06971H14.3607V4.89628Z"/>
  <path d="M26.605 9.88417C25.3018 9.88417 24.2854 9.47366 23.5504 8.65752C22.8102 7.84137 22.4453 6.63427 22.4453 5.04108C22.4453 3.4479 22.8154 2.24568 23.5504 1.42465C24.2906 0.608513 25.3071 0.197998 26.605 0.197998C27.8977 0.197998 28.909 0.608515 29.6492 1.43443C30.3894 2.26034 30.7543 3.45767 30.7543 5.04108C30.7543 6.62449 30.3842 7.82671 29.6492 8.64774C28.909 9.47365 27.8977 9.88417 26.605 9.88417ZM26.605 9.17066C27.0898 9.17066 27.5276 9.09246 27.9238 8.93608C28.3148 8.77969 28.6536 8.55 28.9351 8.24212C29.2165 7.93912 29.4355 7.56281 29.5918 7.12298C29.7482 6.68314 29.8264 6.18466 29.8264 5.62753V4.44486C29.8264 3.88774 29.7482 3.38926 29.5918 2.94942C29.4355 2.50958 29.2165 2.13816 28.9351 1.84005C28.6536 1.53706 28.3148 1.30736 27.9238 1.14609C27.5329 0.984817 27.0898 0.901737 26.605 0.901737C26.1202 0.901737 25.6772 0.984817 25.281 1.14609C24.8848 1.30736 24.5408 1.53706 24.2593 1.84005C23.9778 2.14305 23.7589 2.50958 23.6025 2.94942C23.4461 3.38926 23.3679 3.88774 23.3679 4.44486V5.62753C23.3679 6.18466 23.4461 6.68314 23.6025 7.12298C23.7589 7.56281 23.9778 7.93423 24.2593 8.24212C24.5408 8.54511 24.8796 8.77969 25.281 8.93608C25.6772 9.09246 26.1202 9.17066 26.605 9.17066Z"/>
  <path d="M40.2892 5.32635H34.7117V9.72471H33.8359V0.361084H34.7117V4.61284H40.2892V0.361084H41.1649V9.72471H40.2892V5.32635Z"/>
  <path d="M47.8997 1.06971V9.71983H47.0292V1.06971H43.6201V0.361084H51.3088V1.06971H47.8997Z"/>
  <path d="M53.7686 9.72472V0.361084H59.7058V1.06971H54.6391V4.61284H59.4556V5.32635H54.6391V9.01609H59.7058V9.7296H53.7686V9.72472Z"/>
  <path d="M69.3019 5.32635H63.7244V9.72471H62.8486V0.361084H63.7244V4.61284H69.3019V0.361084H70.1776V9.72471H69.3019V5.32635Z"/>
  <path d="M72.4872 9.0112H73.5349C73.9832 8.41987 74.322 7.64282 74.5618 6.67029C74.8016 5.69777 74.9162 4.48088 74.9162 3.01476V0.361084H80.6345V9.0112H82.0002V11.7333H81.187V9.71982H73.2951V11.7333H72.4819V9.0112H72.4872ZM79.764 9.0112V1.06971H75.7607V3.05386C75.7607 4.52976 75.6512 5.74664 75.4323 6.70939C75.2134 7.67214 74.9267 8.41987 74.567 8.95744V9.0112H79.764Z"/>
  <path d="M7.76653 24.1346L6.66146 21.2219H2.34017L1.23509 24.1346H0.359375L3.95609 14.771H5.07681L8.68916 24.1346H7.76653ZM4.51905 15.5334H4.46172L2.55389 20.5084H6.42688L4.51905 15.5334Z"/>
  <path d="M11.4507 23.4233H12.879L13.4628 22.0842L9.63672 14.7732H10.5854L13.1605 19.7091L13.8277 21.0922H13.885L14.4532 19.6847L16.58 14.7732H17.4818L13.7703 23.306C13.6244 23.6383 13.4524 23.8582 13.2595 23.9706C13.0666 24.083 12.7799 24.1368 12.3994 24.1368H11.4507V23.4233Z"/>
  <path d="M23.242 15.4818V24.1319H22.3715V15.4818H18.9624V14.7732H26.651V15.4818H23.242Z"/>
  <path d="M32.2816 24.2946C31.0201 24.2946 30.0454 23.8889 29.3573 23.0826C28.6692 22.2713 28.3252 21.074 28.3252 19.4808C28.3252 17.8974 28.6692 16.6903 29.3573 15.8595C30.0454 15.0287 31.0201 14.6133 32.2816 14.6133C33.0948 14.6133 33.7828 14.7892 34.3406 15.1411C34.8983 15.493 35.331 15.9768 35.6437 16.5974L34.9296 16.9884C34.7055 16.4801 34.3666 16.0745 33.9184 15.7764C33.4649 15.4783 32.9227 15.3268 32.2816 15.3268C31.3277 15.3268 30.5875 15.6396 30.0558 16.27C29.5241 16.9004 29.253 17.7948 29.253 18.9628V20.0282C29.253 21.1864 29.5189 22.0709 30.0558 22.6769C30.5875 23.2878 31.3329 23.5908 32.2816 23.5908C32.9592 23.5908 33.5274 23.4295 33.9861 23.1168C34.4448 22.7991 34.7837 22.3739 35.0026 21.8364L35.7167 22.2273C35.4144 22.8724 34.9765 23.3807 34.3927 23.7521C33.8089 24.1137 33.1052 24.2946 32.2816 24.2946Z"/>
  <path d="M41.9878 24.2938C40.6846 24.2938 39.6682 23.8833 38.9332 23.0672C38.193 22.251 37.8281 21.0439 37.8281 19.4508C37.8281 17.8576 38.1982 16.6553 38.9332 15.8343C39.6734 15.0182 40.6899 14.6077 41.9878 14.6077C43.2805 14.6077 44.2918 15.0182 45.032 15.8441C45.7722 16.67 46.1371 17.8673 46.1371 19.4508C46.1371 21.0342 45.767 22.2364 45.032 23.0574C44.297 23.8833 43.2805 24.2938 41.9878 24.2938ZM41.9878 23.5852C42.4726 23.5852 42.9104 23.507 43.3066 23.3506C43.6976 23.1942 44.0364 22.9645 44.3179 22.6567C44.5993 22.3537 44.8183 21.9774 44.9747 21.5375C45.131 21.0977 45.2092 20.5992 45.2092 20.0421V18.8594C45.2092 18.3023 45.131 17.8038 44.9747 17.364C44.8183 16.9241 44.5993 16.5527 44.3179 16.2546C44.0364 15.9516 43.6976 15.7219 43.3066 15.5606C42.9157 15.3994 42.4726 15.3163 41.9878 15.3163C41.503 15.3163 41.06 15.3994 40.6638 15.5606C40.2676 15.7219 39.9236 15.9516 39.6421 16.2546C39.3606 16.5576 39.1417 16.9241 38.9853 17.364C38.829 17.8038 38.7508 18.3023 38.7508 18.8594V20.0421C38.7508 20.5992 38.829 21.0977 38.9853 21.5375C39.1417 21.9774 39.3606 22.3488 39.6421 22.6567C39.9236 22.9597 40.2624 23.1942 40.6638 23.3506C41.0652 23.507 41.503 23.5852 41.9878 23.5852Z"/>
  <path d="M49.2217 24.1368V14.7732H53.2093C54.0903 14.7732 54.7679 15.0078 55.2319 15.4769C55.6958 15.9461 55.9303 16.5814 55.9303 17.3878C55.9303 18.2039 55.6958 18.8441 55.2319 19.3133C54.7679 19.7824 54.0903 20.017 53.2093 20.017H50.0922V24.1368H49.2217ZM50.0974 19.3035H53.2146C53.7984 19.3035 54.2415 19.152 54.5438 18.8539C54.8513 18.5558 55.0025 18.1697 55.0025 17.7054V17.0603C55.0025 16.6058 54.8513 16.2246 54.5438 15.9265C54.2362 15.6284 53.7932 15.4769 53.2146 15.4769H50.0974V19.3035Z"/>
  <path d="M62.1346 24.2946C60.8732 24.2946 59.8984 23.8889 59.2103 23.0826C58.5223 22.2713 58.1782 21.074 58.1782 19.4808C58.1782 17.8974 58.5223 16.6903 59.2103 15.8595C59.8984 15.0287 60.8732 14.6133 62.1346 14.6133C62.9478 14.6133 63.6359 14.7892 64.1936 15.1411C64.7514 15.493 65.184 15.9768 65.4968 16.5974L64.7827 16.9884C64.5585 16.4801 64.2197 16.0745 63.7714 15.7764C63.3179 15.4783 62.7758 15.3268 62.1346 15.3268C61.1807 15.3268 60.4405 15.6396 59.9088 16.27C59.3771 16.9004 59.1061 17.7948 59.1061 18.9628V20.0282C59.1061 21.1864 59.3719 22.0709 59.9088 22.6769C60.4405 23.2878 61.1859 23.5908 62.1346 23.5908C62.8123 23.5908 63.3805 23.4295 63.8392 23.1168C64.2979 22.7991 64.6367 22.3739 64.8556 21.8364L65.5698 22.2273C65.2674 22.8724 64.8296 23.3807 64.2458 23.7521C63.6671 24.1137 62.9634 24.2946 62.1346 24.2946Z"/>
</symbol><symbol id="icon-logo" viewBox="0 0 120 27">
  <path d="M40.8945 0.0551758L33.3 13.7613L32.1449 16.3527L32.3906 14.0111L32.3801 0.0551758H26.5732V26.9792H26.5941V26.9958H31.9045L39.5042 13.0122L40.5652 10.5984L40.377 12.7625L40.3875 26.9958H46.1944L46.1735 0.0551758H40.8945Z"/>
  <path d="M11.5824 0.0544434L8.76001 0.0599894L0 26.9951H5.84872L11.4675 7.73988L17.0496 26.9951H23.1649L14.3944 0.0544434H11.5824Z"/>
  <path d="M69.003 0.0551758H52.5127V6.22018V26.9792H58.3562V6.22018H69.003V0.0551758Z"/>
  <path d="M85.263 26.996H91.3783L82.6026 0.0498047H79.7906L76.9682 0.0553549L68.2134 26.996H74.0569L75.5465 21.8964H83.7838L85.263 26.996ZM77.0257 16.8301L79.6808 7.74079L82.3151 16.8301H77.0257Z"/>
  <path d="M99.606 0.0217285V20.076L109.464 26.9069L119.321 20.076V0.0217285H99.606Z"/>
  <path class="light" d="M115.156 15.3595C115.349 15.3595 115.564 15.3373 115.778 15.2652L115.757 17.4959C115.229 17.6846 114.555 17.8289 113.907 17.8233C112.731 17.8122 111.847 17.3628 111.377 16.4749C110.243 17.3683 108.92 17.8955 107.216 17.8844C105.058 17.8622 103.197 16.5748 103.218 14.2442C103.244 11.2532 106.009 10.3487 108.314 10.3709C109.223 10.382 110.232 10.5097 111.042 10.715L111.048 10.2988C111.058 9.12241 110.154 8.3067 108.356 8.29005C106.772 8.2734 105.356 8.70623 104.274 9.13351L104.3 6.19251C105.235 5.88176 106.992 5.43229 108.769 5.44894C112.224 5.48223 114.414 6.94718 114.382 10.8204L114.351 14.5716C114.34 15.182 114.722 15.354 115.156 15.3595ZM106.187 14.05C106.176 15.0211 107.044 15.6481 108.152 15.6592C109.182 15.6703 110.159 15.3817 111.011 14.6326L111.027 12.6128C110.473 12.474 109.631 12.302 108.868 12.2965C107.525 12.2798 106.202 12.7293 106.187 14.05Z"/>
</symbol><symbol id="icon-mail" viewBox="0 0 29 23">
  <rect x="1" y="1" width="27" height="21" stroke-width="2"/>
  <path d="M2 2L15 15L28 2" stroke-width="2"/>
</symbol><symbol id="icon-moon-dark" viewBox="0 0 7 7">
  <path fill-rule="evenodd" clip-rule="evenodd" d="M2.98178 7C4.91477 7 6.48178 5.433 6.48178 3.5C6.48178 1.567 4.91477 0 2.98178 0C1.72114 0 0.61617 0.66648 0 1.6663C0.20281 1.59458 0.421069 1.55556 0.648443 1.55556C1.72233 1.55556 2.59289 2.42611 2.59289 3.5C2.59289 4.57389 1.72233 5.44444 0.648443 5.44444C0.421069 5.44444 0.20281 5.40542 8.9407e-08 5.3337C0.61617 6.33352 1.72114 7 2.98178 7Z" fill="white"/>
</symbol><symbol id="icon-union-1" viewBox="0 0 42 42">
<path fill-rule="evenodd" clip-rule="evenodd" d="M24.7398 0.47L24.1498 0.36H23.9498C23.2881 0.248903 22.6202 0.178769 21.9498 0.15H21.5498C21.4002 0.134827 21.2494 0.134827 21.0998 0.15H20.7398C20.1198 0 19.4898 0 18.8698 0C13.9153 0.0079335 9.16606 1.9796 5.66272 5.48294C2.15939 8.98627 0.187725 13.7355 0.179792 18.69C0.177679 19.3111 0.207716 19.932 0.269788 20.55V20.68C0.267678 24.5867 1.37705 28.4134 3.46837 31.7132C5.55969 35.0131 8.54665 37.6498 12.0804 39.3156C15.6142 40.9814 19.549 41.6074 23.4252 41.1207C27.3015 40.6339 30.9593 39.0544 33.9715 36.5666C36.9837 34.0788 39.226 30.7854 40.4365 27.0709C41.647 23.3565 41.7757 19.3743 40.8077 15.5894C39.8397 11.8045 37.815 8.37313 34.9698 5.69592C32.1246 3.01871 28.5765 1.20619 24.7398 0.47ZM20.8198 39.27C15.891 39.2647 11.1657 37.3044 7.68052 33.8193C4.19537 30.3341 2.23508 25.6087 2.22979 20.68H1.22979L2.22979 20.54V20.42C1.97132 17.9459 2.26917 15.4453 3.10156 13.1011C3.93395 10.7569 5.27981 8.62844 7.04071 6.87138C8.80161 5.11431 10.933 3.77308 13.279 2.94581C15.625 2.11854 18.1262 1.82614 20.5998 2.09H21.9298C22.5098 2.09 23.0998 2.18 23.6898 2.27H23.8698L24.3698 2.36C28.9071 3.2399 32.9539 5.77842 35.7209 9.48042C38.488 13.1824 39.7767 17.7824 39.3359 22.3832C38.895 26.9839 36.7562 31.2555 33.3365 34.3647C29.9169 37.4739 25.4616 39.1977 20.8398 39.2L20.8198 39.27ZM22.4797 2.53004C19.9295 2.53651 17.4228 3.19045 15.1945 4.43054C12.9662 5.67063 11.0892 7.45627 9.73968 9.62004C8.45653 11.4101 7.69811 13.5226 7.54967 15.72C7.46589 16.3466 7.42247 16.9779 7.41968 17.61V18V18.3V18.69C7.42233 22.4261 8.90765 26.0084 11.5495 28.6502C14.1913 31.2921 17.7736 32.7774 21.5097 32.78C22.1054 32.7797 22.7003 32.7363 23.2897 32.65C27.2153 32.4476 30.9064 30.7194 33.5758 27.834C36.2452 24.9486 37.6815 21.1344 37.5785 17.2049C37.4754 13.2754 35.8411 9.54177 33.0241 6.80026C30.2071 4.05874 26.4305 2.52639 22.4997 2.53004H22.4797ZM29.3097 15.43V15.98V16.28V16.53C29.2279 19.1078 28.1463 21.5526 26.294 23.3471C24.4416 25.1415 21.9637 26.145 19.3847 26.145C16.8056 26.145 14.3278 25.1415 12.4754 23.3471C10.623 21.5526 9.54151 19.1078 9.45968 16.53V15.92C9.70233 14.0787 10.3329 12.3097 11.3097 10.73C12.2274 9.46413 13.4292 8.43106 14.8186 7.7138C16.208 6.99655 17.7462 6.61508 19.3097 6.60004H19.7397H19.8297C20.2265 6.53599 20.6277 6.50256 21.0297 6.50004C23.2063 6.50268 25.293 7.36851 26.8321 8.90761C28.3712 10.4467 29.237 12.5334 29.2397 14.71V15.27V15.42L29.3097 15.43ZM23.0897 30.66C22.5596 30.7351 22.0251 30.7752 21.4897 30.78C19.4852 30.7802 17.5122 30.2811 15.7489 29.3279C13.9856 28.3746 12.4874 26.9972 11.3897 25.32C13.093 26.8846 15.2153 27.9189 17.4971 28.2964C19.7789 28.674 22.1213 28.3784 24.2378 27.4459C26.3543 26.5134 28.1532 24.9843 29.4144 23.0457C30.6757 21.107 31.3447 18.8429 31.3397 16.53V16.21V15.98V15.33V14.72C31.3333 12.1567 30.3648 9.68912 28.6259 7.80577C26.887 5.92241 24.5044 4.76051 21.9497 4.55004H22.4797C25.9123 4.52088 29.2186 5.84336 31.6843 8.23175C34.15 10.6201 35.577 13.8827 35.6571 17.3145C35.7372 20.7464 34.464 24.072 32.1125 26.5728C29.761 29.0737 26.52 30.549 23.0897 30.68V30.66ZM16.763 10.5346C18.0556 9.67094 19.5752 9.20996 21.1298 9.20996C23.2136 9.21261 25.2112 10.0416 26.6847 11.515C28.1582 12.9885 28.9871 14.9862 28.9898 17.07C28.9898 18.6245 28.5288 20.1442 27.6651 21.4367C26.8015 22.7293 25.5739 23.7367 24.1377 24.3317C22.7014 24.9266 21.121 25.0822 19.5964 24.7789C18.0717 24.4757 16.6712 23.7271 15.5719 22.6278C14.4727 21.5286 13.7241 20.1281 13.4208 18.6034C13.1175 17.0787 13.2732 15.4983 13.8681 14.0621C14.463 12.6258 15.4704 11.3983 16.763 10.5346ZM23.4398 15.67C23.7748 15.4326 24.0378 15.1073 24.1998 14.73C24.3066 14.5455 24.3726 14.3402 24.3933 14.128C24.414 13.9158 24.3889 13.7016 24.3198 13.5C23.9777 13.7323 23.7102 14.0588 23.5498 14.44C23.4433 14.6247 23.3784 14.8305 23.3594 15.0428C23.3404 15.2552 23.3678 15.4692 23.4398 15.67ZM18.6005 22.3624C19.3907 22.738 20.2549 22.9319 21.1298 22.93C22.6779 22.9194 24.1592 22.2977 25.2511 21.2001C26.3431 20.1026 26.9572 18.6181 26.9598 17.07C26.9616 16.1449 26.7422 15.2329 26.3198 14.41C26.2646 14.8026 26.157 15.186 25.9998 15.55C25.7089 16.2156 25.2422 16.7895 24.6498 17.21C24.261 17.4786 23.8022 17.628 23.3298 17.64C23.0607 17.6386 22.795 17.5807 22.5498 17.47C22.0777 17.2336 21.7183 16.8202 21.5498 16.32C21.2573 15.4298 21.3256 14.4604 21.7398 13.62C22.0216 12.9546 22.4819 12.3801 23.0698 11.96C23.2136 11.8656 23.368 11.7884 23.5298 11.73C22.7325 11.3697 21.8647 11.1925 20.99 11.2113C20.1153 11.2302 19.256 11.4447 18.475 11.8391C17.694 12.2335 17.0113 12.7977 16.4769 13.4904C15.9424 14.1831 15.5699 14.9867 15.3866 15.8421C15.2033 16.6976 15.2138 17.5833 15.4175 18.4341C15.6212 19.285 16.0128 20.0794 16.5636 20.7592C17.1144 21.4389 17.8104 21.9867 18.6005 22.3624Z" fill="#2C39F2"/>
</symbol><symbol id="icon-union-2" viewBox="0 0 46 40">
<path fill-rule="evenodd" clip-rule="evenodd" d="M41.9102 39.21H4.67023C3.62702 39.2074 2.62743 38.7911 1.8907 38.0525C1.15396 37.3139 0.740231 36.3132 0.740234 35.27V4.19001C0.742874 3.14852 1.15777 2.15044 1.89422 1.414C2.63067 0.67755 3.62875 0.26265 4.67023 0.26001H41.9102C42.9487 0.275431 43.9404 0.694125 44.6757 1.42755C45.411 2.16097 45.8322 3.15163 45.8502 4.19001V35.27C45.8347 36.3101 45.4147 37.3033 44.6791 38.0389C43.9435 38.7744 42.9504 39.1945 41.9102 39.21ZM2.74023 35.27V8.00001H43.8502V35.27C43.8502 35.7845 43.6458 36.278 43.282 36.6418C42.9182 37.0056 42.4248 37.21 41.9102 37.21H4.67023C4.15745 37.2074 3.66657 37.0018 3.30491 36.6383C2.94325 36.2747 2.74023 35.7828 2.74023 35.27ZM8.23029 4.50992C8.23029 5.38805 7.51843 6.09992 6.64029 6.09992C5.76216 6.09992 5.05029 5.38805 5.05029 4.50992C5.05029 3.63179 5.76216 2.91992 6.64029 2.91992C7.51843 2.91992 8.23029 3.63179 8.23029 4.50992ZM11.7401 6.09992C12.6183 6.09992 13.3301 5.38805 13.3301 4.50992C13.3301 3.63179 12.6183 2.91992 11.7401 2.91992C10.862 2.91992 10.1501 3.63179 10.1501 4.50992C10.1501 5.38805 10.862 6.09992 11.7401 6.09992ZM39.8602 31.6401H30.9302V30.3701C30.9302 28.3332 30.1211 26.3798 28.6808 24.9395C28.4536 24.7122 28.2135 24.5007 27.9624 24.3056C26.6648 27.5085 25.4241 30.5278 25.1702 31C24.8807 31.4659 24.4219 31.8015 23.8901 31.9362C23.3584 32.0709 22.7952 31.9943 22.3188 31.7224C21.8424 31.4505 21.4899 31.0046 21.3354 30.4783C21.1809 29.952 21.2363 29.3863 21.4902 28.9C21.748 28.4556 23.7105 25.8678 25.8115 23.1298C24.9965 22.8414 24.1312 22.6901 23.2502 22.6901C21.2134 22.6901 19.2599 23.4992 17.8197 24.9395C16.3794 26.3798 15.5702 28.3332 15.5702 30.3701L15.6202 31.5801L14.6202 31.6401H6.74023V30.3701C6.84655 26.0394 8.64162 21.9217 11.7422 18.8964C14.8428 15.871 19.0032 14.1775 23.3352 14.1775C26.1031 14.1775 28.8009 14.8688 31.197 16.1572L31.2802 16.05L31.2303 16.1751C32.5717 16.9003 33.8179 17.8129 34.9283 18.8964C38.0289 21.9217 39.8239 26.0394 39.9302 30.3701L39.8602 31.6401ZM29.8896 23.249C29.5328 22.917 29.1536 22.6143 28.7558 22.3425C29.4456 20.632 30.097 19.008 30.5653 17.8384C31.5515 18.4041 32.4755 19.0874 33.3155 19.8796C36.0231 22.4331 37.6525 25.9247 37.8702 29.6401H32.9502C32.7745 27.1995 31.6809 24.916 29.8896 23.249ZM30.0938 17.5793C29.3179 18.5808 28.2414 19.9722 27.1113 21.4393C25.9159 20.9265 24.6188 20.6553 23.2952 20.6553C20.8483 20.6553 18.4921 21.582 16.7008 23.249C14.9095 24.916 13.816 27.1995 13.6402 29.6401H8.74023C8.95801 25.9247 10.5874 22.4331 13.2949 19.8796C16.0025 17.3261 19.5835 15.9038 23.3052 15.9038C25.6901 15.9038 28.0173 16.4879 30.0938 17.5793Z" fill="#2C39F2"/>
</symbol></svg>